SplineFontDB: 2.0
FontName: Umpush-Oblique
FullName: Umpush Oblique
FamilyName: Umpush
Weight: Book
Copyright: Copyright (c) 2003 NECTEC. All rights reserved.\nCopyright (c) 2007 Widhaya Trisarnwadhana. All rights reserved.\nModified under GNU General Public License by TLWG.
Version: 0.9.7: 2007-04-13
ItalicAngle: -10
UnderlinePosition: -170
UnderlineWidth: 20
Ascent: 1638
Descent: 410
Order2: 1
NeedsXUIDChange: 1
FSType: 0
OS2Version: 0
OS2_WeightWidthSlopeOnly: 0
OS2_UseTypoMetrics: 0
CreationTime: 1153662374
ModificationTime: 1199604155
PfmFamily: 33
TTFWeight: 400
TTFWidth: 5
LineGap: 0
VLineGap: 0
Panose: 2 11 5 4 2 2 2 2 2 4
OS2TypoAscent: 0
OS2TypoAOffset: 1
OS2TypoDescent: 0
OS2TypoDOffset: 1
OS2TypoLinegap: 0
OS2WinAscent: 0
OS2WinAOffset: 1
OS2WinDescent: 0
OS2WinDOffset: 1
HheadAscent: 0
HheadAOffset: 1
HheadDescent: 0
HheadDOffset: 1
OS2SubXSize: 19968
OS2SubYSize: 28
OS2SubXOff: -32593
OS2SubYOff: 21140
OS2SupXSize: 21132
OS2SupYSize: -4232
OS2SupXOff: 21252
OS2SupYOff: 269
OS2StrikeYSize: -11832
OS2StrikeYPos: 90
OS2Vendor: 'PfEd'
Lookup: 6 0 0 "'ccmp' Glyph Composition/Decomposition in Thai lookup 0"  {"'ccmp' Glyph Composition/Decomposition in Thai lookup 0"  } ['ccmp' ('thai' <'KUY ' 'PAL ' 'THA ' 'dflt' > ) ]
Lookup: 6 0 0 "'ccmp' Glyph Composition/Decomposition in Thai lookup 1"  {"'ccmp' Glyph Composition/Decomposition in Thai lookup 1"  } ['ccmp' ('thai' <'KUY ' 'PAL ' 'THA ' 'dflt' > ) ]
Lookup: 5 0 0 "Required Feature in Thai lookup 2"  {"Required Feature in Thai lookup 2"  } [' RQD' ('thai' <'PAL ' > ) ]
Lookup: 1 0 0 "Single Substitution lookup 3"  {"Single Substitution lookup 3"  } []
Lookup: 2 0 0 "Multiple Substitution lookup 4"  {"Multiple Substitution lookup 4"  } []
Lookup: 1 0 0 "Single Substitution lookup 5"  {"Single Substitution lookup 5"  } []
Lookup: 2 0 0 "Multiple Substitution lookup 6"  {"Multiple Substitution lookup 6"  } []
Lookup: 1 0 0 "Single Substitution lookup 7"  {"Single Substitution lookup 7"  } []

StartChar: .notdef
Encoding: 65536 -1 0
Width: 1536
Flags: W
HStem: 0 32<288 1248> 1248 32<288 1248>
VStem: 256 32<32 1248> 1248 32<32 1248>
Fore
256 0 m 1,0,-1
 481.698 1280 l 1,1,-1
 1505.7 1280 l 1,2,-1
 1280 0 l 1,3,-1
 256 0 l 1,0,-1
293.643 32 m 1,4,-1
 1253.64 32 l 1,5,-1
 1468.06 1248 l 1,6,-1
 508.056 1248 l 1,7,-1
 293.643 32 l 1,4,-1
EndSplineSet
EndChar
StartChar: uni0E4D.high
Encoding: 63262 63262 2
Width: 0
VWidth: 2558
Flags: W
HStem: 1725 72<-301.35 -224.65> 1953 74<-305.062 -223.163>
VStem: -412 69<1836.95 1913.32> -183 70<1838.74 1915.28>
AnchorPoint: "AboveMark" 44.957 1739.3 mark 0
Fore
96.415 2027 m 0,0,1
 157.915 2027 157.915 2027 193.48 1982 c 0,2,3
 228.722 1938 228.722 1938 217.437 1874 c 0,4,5
 206.681 1813 206.681 1813 154.923 1769 c 0,6,7
 101.164 1725 101.164 1725 43.1641 1725 c 0,8,9
 -16.8359 1725 -16.8359 1725 -55.0771 1769 c 0,10,11
 -92.6719 1811 -92.6719 1811 -81.5635 1874 c 0,12,13
 -70.6309 1936 -70.6309 1936 -17.5195 1982 c 0,14,15
 33.415 2027 33.415 2027 96.415 2027 c 0,0,1
53.8594 1797 m 0,16,17
 84.8594 1797 84.8594 1797 114.268 1822 c 0,18,19
 142.5 1846 142.5 1846 147.437 1874 c 0,20,21
 153.608 1909 153.608 1909 134.312 1930 c 0,22,23
 113.366 1953 113.366 1953 82.3662 1953 c 0,24,25
 45.3662 1953 45.3662 1953 20.3115 1930 c 0,26,27
 -7.09668 1905 -7.09668 1905 -12.5635 1874 c 0,28,29
 -17.8535 1844 -17.8535 1844 1.91504 1820 c 0,30,31
 23.8594 1797 23.8594 1797 53.8594 1797 c 0,16,17
EndSplineSet
EndChar
StartChar: exclam
Encoding: 33 33 5
Width: 569
Flags: W
HStem: 0 194<206 370> 1430 20G<198 378>
VStem: 198 180<910.471 1450> 206 164<0 194>
Fore
374.15 999 m 1,0,-1
 453.674 1450 l 1,1,-1
 633.674 1450 l 1,2,-1
 554.15 999 l 1,3,-1
 399.359 365 l 1,4,-1
 306.359 365 l 1,5,-1
 374.15 999 l 1,0,-1
240.207 194 m 1,6,-1
 404.207 194 l 1,7,-1
 370 0 l 1,8,-1
 206 0 l 1,9,-1
 240.207 194 l 1,6,-1
EndSplineSet
EndChar
StartChar: quotedbl
Encoding: 34 34 6
Width: 727
Flags: W
HStem: 1430 20G<106 286 439 619>
VStem: 106 180<1183.82 1450> 439 180<1182.44 1450>
Fore
322.981 947 m 1,0,-1
 320.59 1217 l 1,1,-1
 361.674 1450 l 1,2,-1
 541.674 1450 l 1,3,-1
 500.59 1217 l 1,4,-1
 407.981 947 l 1,5,-1
 322.981 947 l 1,0,-1
653.981 947 m 1,6,-1
 653.59 1217 l 1,7,-1
 694.674 1450 l 1,8,-1
 874.674 1450 l 1,9,-1
 833.59 1217 l 1,10,-1
 738.981 947 l 1,11,-1
 653.981 947 l 1,6,-1
EndSplineSet
EndChar
StartChar: numbersign
Encoding: 35 35 7
Width: 1139
Flags: W
HStem: -10 21G<87 267 546 725> 385 180<21 174 384 632 842 1113> 895 180<21 278 488 737 947 1113> 1450 20G<395 575 854 1034>
Fore
85.2363 -10 m 1,0,-1
 241.886 385 l 1,1,-1
 88.8857 385 l 1,2,-1
 120.625 565 l 1,3,-1
 303.625 565 l 1,4,-1
 435.812 895 l 1,5,-1
 178.812 895 l 1,6,-1
 210.552 1075 l 1,7,-1
 497.552 1075 l 1,8,-1
 654.201 1470 l 1,9,-1
 834.201 1470 l 1,10,-1
 677.552 1075 l 1,11,-1
 956.552 1075 l 1,12,-1
 1113.2 1470 l 1,13,-1
 1293.2 1470 l 1,14,-1
 1136.55 1075 l 1,15,-1
 1302.55 1075 l 1,16,-1
 1270.81 895 l 1,17,-1
 1074.81 895 l 1,18,-1
 941.625 565 l 1,19,-1
 1212.62 565 l 1,20,-1
 1180.89 385 l 1,21,-1
 879.886 385 l 1,22,-1
 723.236 -10 l 1,23,-1
 544.236 -10 l 1,24,-1
 699.886 385 l 1,25,-1
 421.886 385 l 1,26,-1
 265.236 -10 l 1,27,-1
 85.2363 -10 l 1,0,-1
483.625 565 m 1,28,-1
 761.625 565 l 1,29,-1
 894.812 895 l 1,30,-1
 615.812 895 l 1,31,-1
 483.625 565 l 1,28,-1
EndSplineSet
EndChar
StartChar: dollar
Encoding: 36 36 8
Width: 1139
Flags: W
VStem: 106 180<969.9 1118.1> 491 143<-118 -17 123 629 810 1269 1409 1488> 858 184<309.693 464>
Fore
488.002 -17 m 1,0,-1
 381.295 -4 381.295 -4 299.053 40 c 0,3,-1
 221.282 81 221.282 81 175.799 169 c 2,6,-1
 171.386 178 l 2,7,-1
 132.845 260 132.845 260 140.712 367 c 2,10,-1
 149.528 417 l 1,11,-1
 328.528 417 l 1,12,-1
 324.782 288 324.782 288 367.969 221 c 0,15,-1
 389.031 193 389.031 193 395.62 185 c 0,18,-1
 442.57 128 442.57 128 512.688 123 c 1,21,-1
 605.789 651 l 1,22,-1
 601.965 652 601.965 652 596.229 653.5 c 0,25,-1
 590.494 655 590.494 655 587.494 655 c 1,28,-1
 517.315 671 517.315 671 412.895 731 c 0,31,-1
 335.065 774.5 335.065 774.5 302.055 851 c 0,34,-1
 269.632 928 269.632 928 287.793 1031 c 0,37,-1
 318.65 1206 318.65 1206 473.399 1318 c 0,40,-1
 474.575 1319 474.575 1319 479.016 1321.5 c 0,43,-1
 483.457 1324 483.457 1324 485.81 1326 c 0,46,-1
 588.8 1394 588.8 1394 739.444 1409 c 1,49,-1
 753.375 1488 l 1,50,-1
 896.375 1488 l 1,51,-1
 882.444 1409 l 1,52,-1
 896.269 1408 l 2,53,-1
 1018.98 1395 1018.98 1395 1097.28 1323 c 0,56,-1
 1116.28 1306 1116.28 1306 1129.46 1290 c 0,59,-1
 1200.95 1202 1200.95 1202 1197.9 1094 c 2,62,-1
 1193.14 1050 l 1,63,-1
 1018.14 1050 l 1,64,-1
 1021.66 1129.5 1021.66 1129.5 966.593 1200 c 2,67,-1
 958.532 1211 l 2,68,-1
 920.643 1257 920.643 1257 857.759 1269 c 1,71,-1
 773.299 790 l 1,72,-1
 774.122 789 l 1,73,-1
 864.361 762 l 2,74,-1
 909.069 749 909.069 749 927.658 741 c 0,77,-1
 1041.02 692 1041.02 692 1087.5 604 c 0,80,-1
 1132.98 516 1132.98 516 1112 397 c 0,83,-1
 1081.32 223 1081.32 223 943.043 108 c 0,86,-1
 928.928 96 928.928 96 914.164 86 c 0,89,-1
 787.942 -6 787.942 -6 631.355 -15 c 1,92,-1
 613.193 -118 l 1,93,-1
 470.193 -118 l 1,94,-1
 488.002 -17 l 1,0,-1
715.111 1271 m 1,95,-1
 698.759 1269 698.759 1269 674.701 1263 c 0,98,-1
 616.703 1246 616.703 1246 557.182 1192 c 0,101,-1
 485.249 1130 485.249 1130 470.085 1044 c 0,104,-1
 455.098 959 455.098 959 496.047 902 c 2,107,-1
 496.694 900 496.694 900 499.165 897 c 0,110,-1
 501.637 894 501.637 894 502.46 893 c 0,113,-1
 546.409 836 546.409 836 633.825 810 c 1,116,-1
 715.111 1271 l 1,95,-1
662.864 124 m 2,117,-1
 688.57 128 688.57 128 740.625 151 c 0,120,-1
 788.328 172 788.328 172 826.5 207 c 0,123,-1
 861.143 239 861.143 239 890.605 287 c 0,126,-1
 916.805 333.5 916.805 333.5 926.062 386 c 0,129,-1
 941.932 476 941.932 476 902.63 531 c 0,132,-1
 860.562 593 860.562 593 744.91 629 c 1,135,-1
 655.688 123 l 1,136,-1
 662.864 124 l 2,117,-1
EndSplineSet
EndChar
StartChar: percent
Encoding: 37 37 9
Width: 1821
Flags: W
HStem: -53 123<1324.1 1441.1> 598 123<1317.6 1438.5> 717 123<376.1 490.5> 1366 125<370.9 490.5>
VStem: 119 157<972.5 1224.7> 590 155<976.1 1232.2> 1067 158<205.1 456.414> 1538 158<206.1 462.2>
Fore
315.429 1114 m 0,0,-1
 343.288 1272 343.288 1272 440.331 1380 c 0,3,-1
 538.903 1491 538.903 1491 688.903 1491 c 0,6,-1
 832.903 1491 832.903 1491 900.447 1392 c 0,9,-1
 972.197 1288.5 972.197 1288.5 939.665 1104 c 0,12,-1
 907.632 928 907.632 928 798.06 817 c 0,15,-1
 695.427 717 695.427 717 554.427 717 c 0,18,-1
 418.427 717 418.427 717 351.706 815 c 0,21,-1
 281.045 919 281.045 919 315.429 1114 c 0,0,-1
672.862 1366 m 0,24,-1
 600.862 1366 600.862 1366 550.636 1308 c 0,27,-1
 495.351 1244 495.351 1244 469.254 1096 c 0,30,-1
 444.04 953 444.04 953 480.165 897 c 0,33,-1
 515.114 840 515.114 840 580.114 840 c 0,36,-1
 648.114 840 648.114 840 703.342 898 c 0,39,-1
 758.568 956 758.568 956 785.723 1110 c 0,42,-1
 810.585 1251 810.585 1251 775.636 1308 c 0,45,-1
 740.862 1366 740.862 1366 672.862 1366 c 0,24,-1
1479.9 1491 m 1,48,-1
 1659.9 1491 l 1,49,-1
 636.236 -10 l 1,50,-1
 456.236 -10 l 1,51,-1
 1479.9 1491 l 1,48,-1
1127.66 344 m 0,52,-1
 1155.52 502 1155.52 502 1252.56 610 c 0,55,-1
 1351.63 721 1351.63 721 1503.13 721 c 0,58,-1
 1645.63 721 1645.63 721 1713.68 622 c 0,61,-1
 1786.98 516 1786.98 516 1754.89 334 c 0,64,-1
 1722.98 153 1722.98 153 1612.29 47 c 0,67,-1
 1506.65 -53 1506.65 -53 1366.65 -53 c 0,70,-1
 1226.65 -53 1226.65 -53 1163.11 46 c 0,73,-1
 1093.8 152 1093.8 152 1127.66 344 c 0,52,-1
1485.44 598 m 0,76,-1
 1413.44 598 1413.44 598 1363.22 540 c 0,79,-1
 1308.93 476 1308.93 476 1282.48 326 c 0,82,-1
 1257.88 186.5 1257.88 186.5 1292.57 128 c 0,85,-1
 1327.34 70 1327.34 70 1392.34 70 c 0,88,-1
 1463.34 70 1463.34 70 1516.57 128 c 0,91,-1
 1570.97 187 1570.97 187 1597.95 340 c 0,94,-1
 1622.64 480 1622.64 480 1588.22 540 c 0,97,-1
 1552.44 598 1552.44 598 1485.44 598 c 0,76,-1
EndSplineSet
EndChar
StartChar: ampersand
Encoding: 38 38 10
Width: 1366
Flags: W
HStem: -25 158<441.9 627.977> 1343 148<564.6 688.1>
VStem: 88 195<336.7 479.878> 272 185<1120.9 1240.5> 793 184<1108.45 1237.7>
Fore
1003.33 172 m 1,0,-1
 792.592 -25 792.592 -25 548.592 -25 c 0,3,-1
 324.592 -25 324.592 -25 217.394 127 c 0,6,-1
 132.435 252 132.435 252 159.06 403 c 0,9,-1
 207.55 678 207.55 678 584.467 842 c 1,12,-1
 549.46 893 549.46 893 522.453 944 c 0,15,-1
 498.563 990 498.563 990 487.088 1027 c 0,18,-1
 473.965 1066 473.965 1066 473.607 1098 c 0,21,-1
 470.544 1126 470.544 1126 477.068 1163 c 0,24,-1
 500.52 1296 500.52 1296 620.623 1393 c 0,27,-1
 741.903 1491 741.903 1491 899.903 1491 c 0,30,-1
 1045.9 1491 1045.9 1491 1126.68 1399 c 0,33,-1
 1207.64 1308 1207.64 1308 1184.71 1178 c 0,36,-1
 1147.86 969 1147.86 969 844.765 821 c 1,39,-1
 1048.52 485 l 1,40,-1
 1108.51 570 1108.51 570 1153.67 690 c 1,43,-1
 1335.44 649 l 1,44,-1
 1253.11 460 1253.11 460 1148.89 334 c 1,47,-1
 1226.79 203 1226.79 203 1338.22 109 c 1,50,-1
 1191.83 -35 l 1,51,-1
 1096.52 37 1096.52 37 1003.33 172 c 1,0,-1
771.395 938 m 1,54,-1
 900.032 1004 900.032 1004 944.378 1057 c 0,57,-1
 988.723 1110 988.723 1110 1000.01 1174 c 0,60,-1
 1012.7 1246 1012.7 1246 974.344 1295 c 0,63,-1
 934.807 1343 934.807 1343 863.807 1343 c 0,66,-1
 792.807 1343 792.807 1343 734.52 1296 c 0,69,-1
 677.408 1250 677.408 1250 665.418 1182 c 0,72,-1
 653.075 1112 653.075 1112 707.617 1030 c 2,75,-1
 771.395 938 l 1,54,-1
657.837 725 m 1,76,-1
 497.32 637 497.32 637 433.096 562 c 0,79,-1
 368.871 487 368.871 487 356.352 416 c 0,82,-1
 340.13 324 340.13 324 392.379 229 c 0,85,-1
 447.451 133 447.451 133 578.451 133 c 0,88,-1
 619.451 133 619.451 133 663.744 146 c 0,91,-1
 710.212 160 710.212 160 755.444 184 c 0,94,-1
 804.381 212 804.381 212 842.671 242 c 0,97,-1
 882.961 272 882.961 272 915.543 315 c 1,100,-1
 657.837 725 l 1,76,-1
EndSplineSet
EndChar
StartChar: quotesingle
Encoding: 39 39 11
Width: 391
Flags: W
HStem: 1446 20G<90 295>
VStem: 90 205<1185.93 1466>
Fore
302.981 947 m 1,0,-1
 305.295 1221 l 1,1,-1
 348.495 1466 l 1,2,-1
 553.495 1466 l 1,3,-1
 510.295 1221 l 1,4,-1
 413.981 947 l 1,5,-1
 302.981 947 l 1,0,-1
EndSplineSet
EndChar
StartChar: parenleft
Encoding: 40 40 12
Width: 682
Flags: W
VStem: 124 185<360.7 835.372>
Fore
403.003 -431 m 1,0,-1
 244.495 -173 244.495 -173 207.804 135 c 0,3,-1
 182.981 334.5 182.981 334.5 217.63 531 c 0,6,-1
 281.637 894 281.637 894 508.18 1209 c 0,9,-1
 601.102 1339 601.102 1339 741.903 1491 c 1,12,-1
 870.903 1491 l 1,13,-1
 693.819 1258 693.819 1258 617.25 1130 c 0,16,-1
 479.871 901 479.871 901 420.676 622 c 0,19,-1
 408.096 562 408.096 562 402.453 530 c 0,22,-1
 317.816 50 317.816 50 532.003 -431 c 1,25,-1
 403.003 -431 l 1,0,-1
EndSplineSet
EndChar
StartChar: parenright
Encoding: 41 41 13
Width: 682
Flags: W
VStem: 423 185<208.6 759.8>
Fore
177.003 -431 m 1,0,-1
 48.0029 -431 l 1,1,-1
 431.816 50 431.816 50 516.453 530 c 0,4,-1
 572.701 849 572.701 849 519.431 1097 c 0,7,-1
 489.469 1239 489.469 1239 393.082 1475 c 2,10,-1
 386.903 1491 l 1,11,-1
 515.903 1491 l 1,12,-1
 661.94 1236 661.94 1236 703.206 1022 c 0,15,-1
 748.532 797 748.532 797 701.63 531 c 0,18,-1
 635.859 158 635.859 158 364.147 -209 c 0,21,-1
 273.812 -330 273.812 -330 177.003 -431 c 1,0,-1
EndSplineSet
EndChar
StartChar: asterisk
Encoding: 42 42 14
Width: 797
Flags: W
HStem: 867 624<321 528>
VStem: 321 145<1365.81 1491>
Fore
275.063 1197 m 1,0,-1
 346.102 1339 l 1,1,-1
 490.58 1285 490.58 1285 559.998 1242 c 1,4,-1
 571.974 1412 571.974 1412 583.903 1491 c 1,7,-1
 728.903 1491 l 1,8,-1
 709.152 1396 709.152 1396 662.175 1243 c 1,11,-1
 776.52 1296 776.52 1296 915.102 1339 c 1,14,-1
 936.063 1197 l 1,15,-1
 798.481 1154 798.481 1154 677.189 1141 c 1,18,-1
 728.196 1090 728.196 1090 815.863 952 c 1,21,-1
 680.875 867 l 1,22,-1
 638.453 944 638.453 944 581.786 1082 c 1,25,-1
 485.453 944 485.453 944 413.875 867 c 1,28,-1
 310.863 952 l 1,29,-1
 447.373 1091 447.373 1091 510.189 1141 c 1,32,-1
 371.126 1169 371.126 1169 275.063 1197 c 1,0,-1
EndSplineSet
EndChar
StartChar: plus
Encoding: 43 43 15
Width: 1196
Flags: W
HStem: 639 168<114 513 683 1082>
VStem: 513 170<237 639 807 1206>
Fore
554.789 237 m 1,0,-1
 625.673 639 l 1,1,-1
 226.673 639 l 1,2,-1
 256.296 807 l 1,3,-1
 655.296 807 l 1,4,-1
 725.65 1206 l 1,5,-1
 895.65 1206 l 1,6,-1
 825.296 807 l 1,7,-1
 1224.3 807 l 1,8,-1
 1194.67 639 l 1,9,-1
 795.673 639 l 1,10,-1
 724.789 237 l 1,11,-1
 554.789 237 l 1,0,-1
EndSplineSet
EndChar
StartChar: comma
Encoding: 44 44 16
Width: 569
Flags: W
HStem: -20 20G<182 284>
VStem: 182 205<0 205> 284 103<-84.1583 0>
Fore
182 0 m 1,0,-1
 218.147 205 l 1,1,-1
 423.147 205 l 1,2,-1
 387 0 l 2,3,-1
 366.898 -114 366.898 -114 314.908 -182 c 0,6,-1
 261.39 -253 261.39 -253 168.865 -290 c 1,9,-1
 132.442 -213 l 1,10,-1
 194.027 -187 194.027 -187 229.314 -140 c 0,13,-1
 265.131 -90 265.131 -90 284 0 c 1,16,-1
 182 0 l 1,0,-1
EndSplineSet
EndChar
StartChar: hyphen
Encoding: 45 45 17
Width: 682
Flags: W
HStem: 440 181<65 618>
Fore
142.584 440 m 1,0,-1
 174.499 621 l 1,1,-1
 727.499 621 l 1,2,-1
 695.584 440 l 1,3,-1
 142.584 440 l 1,0,-1
EndSplineSet
EndChar
StartChar: period
Encoding: 46 46 18
Width: 569
Flags: W
HStem: 0 205<186 391>
VStem: 186 205<0 205>
Fore
186 0 m 1,0,-1
 222.147 205 l 1,1,-1
 427.147 205 l 1,2,-1
 391 0 l 1,3,-1
 186 0 l 1,0,-1
EndSplineSet
EndChar
StartChar: slash
Encoding: 47 47 19
Width: 595
Flags: W
HStem: -10 21G<-81 102> 1450 20G<506 688>
VStem: -81 769<-10 1470>
Fore
-82.7637 -10 m 1,0,-1
 765.201 1470 l 1,1,-1
 947.201 1470 l 1,2,-1
 100.236 -10 l 1,3,-1
 -82.7637 -10 l 1,0,-1
EndSplineSet
EndChar
StartChar: zero
Encoding: 48 48 20
Width: 1139
Flags: W
HStem: -10 150<462.461 769.669> 1309 150<463.5 817.1>
VStem: 86 184<519.464 940.1> 856 184<485.1 1231.3>
Fore
213.484 723 m 0,0,-1
 257.742 974 257.742 974 334.778 1133 c 0,3,-1
 493.261 1459 493.261 1459 820.261 1459 c 0,6,-1
 1297.26 1459 1297.26 1459 1167.48 723 c 0,9,-1
 1118.82 447 1118.82 447 1029.25 285 c 0,12,-1
 873.353 2 873.353 2 561.236 -10 c 0,15,-1
 467.236 -10 467.236 -10 394.351 19 c 0,18,-1
 109.451 133 109.451 133 213.484 723 c 0,0,-1
397.484 723 m 0,21,-1
 380.557 627 380.557 627 375.214 557 c 0,24,-1
 337.686 140 337.686 140 587.686 140 c 0,27,-1
 881.038 142 881.038 142 983.484 723 c 0,30,-1
 1086.81 1309 1086.81 1309 791.812 1309 c 0,33,-1
 678.812 1309 678.812 1309 597.059 1231 c 0,36,-1
 464.136 1101 464.136 1101 397.484 723 c 0,21,-1
EndSplineSet
EndChar
StartChar: one
Encoding: 49 49 21
Width: 1139
Flags: W
HStem: 0 21G<583 763> 1452 20G<583 763>
VStem: 583 180<0 1135>
Fore
763 0 m 1,0,-1
 583 0 l 1,1,-1
 783.131 1135 l 1,2,-1
 701.852 1037 701.852 1037 555.332 966 c 0,5,-1
 469.926 924 469.926 924 382.929 907 c 1,8,-1
 417.665 1104 l 1,9,-1
 586.537 1177 586.537 1177 720.283 1306 c 0,12,-1
 807.271 1391 807.271 1391 842.554 1472 c 1,15,-1
 1022.55 1472 l 1,16,-1
 763 0 l 1,0,-1
EndSplineSet
EndChar
StartChar: two
Encoding: 50 50 22
Width: 1139
Flags: W
HStem: 0 173<312 1031> 1333 149<426.3 662.9>
VStem: 844 185<1040.61 1185.6>
Fore
1061.5 173 m 1,0,-1
 1031 0 l 1,1,-1
 62 0 l 1,2,-1
 118.439 218 118.439 218 409.347 450 c 0,5,-1
 478.869 504 478.869 504 532.569 542 c 0,8,-1
 728.255 682 728.255 682 818.832 759 c 0,11,-1
 988.752 906 988.752 906 1027.97 1049 c 0,14,-1
 1030.73 1059 1030.73 1059 1034.26 1079 c 0,17,-1
 1055.95 1202 1055.95 1202 976.641 1274 c 0,20,-1
 911.044 1333 911.044 1333 803.044 1333 c 0,23,-1
 639.044 1333 639.044 1333 543.59 1217 c 0,26,-1
 483.895 1145 483.895 1145 464.204 1039 c 1,29,-1
 279.204 1039 l 1,30,-1
 313.411 1233 313.411 1233 463.1 1356 c 0,33,-1
 617.316 1482 617.316 1482 833.316 1482 c 0,36,-1
 1043.32 1482 1043.32 1482 1150.33 1363 c 0,39,-1
 1249.76 1252 1249.76 1252 1218.55 1075 c 0,42,-1
 1184.17 880 1184.17 880 997.311 705 c 0,45,-1
 917.086 630 917.086 630 738.34 501 c 2,48,-1
 676.229 455 l 1,49,-1
 485.896 317 l 2,50,-1
 410.669 259 410.669 259 342.505 173 c 1,53,-1
 1061.5 173 l 1,0,-1
EndSplineSet
EndChar
StartChar: three
Encoding: 51 51 23
Width: 1139
Flags: W
HStem: -10 166<465.9 676.5> 713 137<479.201 608.1> 1070 21G<104 284> 1317 165<468.219 632.392>
VStem: 789 185<1016.6 1129.17> 855 191<342.3 549.119>
Fore
161.292 427 m 1,0,-1
 341.292 427 l 1,1,-1
 336.533 383 l 2,2,-1
 335.843 277 335.843 277 414.205 211 c 0,5,-1
 480.507 156 480.507 156 580.507 156 c 0,8,-1
 723.507 156 723.507 156 825.729 248 c 0,11,-1
 912.659 327 912.659 327 933.466 445 c 0,14,-1
 960.443 598 960.443 598 861.963 669 c 0,17,-1
 799.721 713 799.721 713 701.721 713 c 0,20,-1
 635.721 713 635.721 713 563.371 694 c 1,23,-1
 591.23 852 l 1,24,-1
 644.878 850 l 2,25,-1
 776.76 855 776.76 855 875.337 932 c 0,28,-1
 965.68 1002 965.68 1002 983.842 1105 c 0,31,-1
 1005.71 1229 1005.71 1229 914.58 1285 c 0,34,-1
 861.223 1317 861.223 1317 781.223 1317 c 0,37,-1
 568.223 1317 568.223 1317 482.783 1099 c 2,40,-1
 472.67 1070 l 1,41,-1
 292.67 1070 l 1,42,-1
 319.295 1221 319.295 1221 445.749 1337 c 0,45,-1
 576.908 1457 576.908 1457 745.611 1478 c 0,48,-1
 773.316 1482 773.316 1482 806.316 1482 c 0,51,-1
 981.816 1482 981.816 1482 1085.33 1380 c 0,54,-1
 1189.35 1278 1189.35 1278 1171.02 1123 c 0,57,-1
 1170.78 1116 1170.78 1116 1168.14 1101 c 0,60,-1
 1142.04 953 1142.04 953 1011.23 852 c 0,63,-1
 960.53 814 960.53 814 912.004 794 c 1,66,-1
 1123.01 743 1123.01 743 1132.27 546 c 0,69,-1
 1134.69 503 1134.69 503 1125.17 449 c 0,72,-1
 1092.2 262 1092.2 262 943.804 135 c 2,75,-1
 898.633 100 l 2,76,-1
 742.236 -10 742.236 -10 550.236 -10 c 0,79,-1
 367.236 -10 367.236 -10 254.69 106 c 0,82,-1
 150.558 213 150.558 213 155.594 372 c 0,85,-1
 156.002 397 156.002 397 161.292 427 c 1,0,-1
EndSplineSet
EndChar
StartChar: four
Encoding: 52 52 24
Width: 1139
Flags: W
HStem: 0 21G<662 842> 347 175<251 662 842 1040> 1452 20G<662 842>
VStem: 662 180<0 347 522 1117>
Fore
662 0 m 1,0,-1
 723.186 347 l 1,1,-1
 87.1855 347 l 1,2,-1
 118.043 522 l 1,3,-1
 921.554 1472 l 1,4,-1
 1101.55 1472 l 1,5,-1
 934.043 522 l 1,6,-1
 1132.04 522 l 1,7,-1
 1101.19 347 l 1,8,-1
 903.186 347 l 1,9,-1
 842 0 l 1,10,-1
 662 0 l 1,0,-1
754.043 522 m 1,11,-1
 858.957 1117 l 1,12,-1
 343.043 522 l 1,13,-1
 754.043 522 l 1,11,-1
EndSplineSet
EndChar
StartChar: five
Encoding: 53 53 25
Width: 1139
Flags: W
HStem: -10 164<470.383 616.185> 817 170<446.7 651.8> 1292 180<423 988>
VStem: 866 191<375.1 550.391>
Fore
158.176 415 m 1,0,-1
 347.176 415 l 1,1,-1
 342.527 218.5 342.527 218.5 483.799 169 c 0,4,-1
 527.654 154 527.654 154 583.154 154 c 0,7,-1
 737.154 154 737.154 154 841.727 265 c 0,10,-1
 928.949 357 928.949 357 953.458 496 c 0,13,-1
 985.902 680 985.902 680 878.714 764 c 0,16,-1
 811.06 817 811.06 817 697.06 817 c 0,19,-1
 549.06 817 549.06 817 426.96 686 c 1,22,-1
 241.84 708 l 1,23,-1
 518.554 1472 l 1,24,-1
 1247.55 1472 l 1,25,-1
 1215.81 1292 l 1,26,-1
 650.814 1292 l 1,27,-1
 506.221 920 l 1,28,-1
 596.682 985 596.682 985 765.035 987 c 2,31,-1
 775.035 987 l 2,32,-1
 964.035 987 964.035 987 1069.35 864 c 0,35,-1
 1175.48 740 1175.48 740 1151.57 542 c 0,38,-1
 1150.81 532 1150.81 532 1147.28 512 c 0,41,-1
 1109.9 300 1109.9 300 959.331 155 c 0,44,-1
 807.587 9 807.587 9 601.59 -8 c 0,47,-1
 571.236 -10 571.236 -10 554.236 -10 c 0,50,-1
 313.236 -10 313.236 -10 213.097 148 c 0,53,-1
 146.375 254.5 146.375 254.5 158.176 415 c 1,0,-1
EndSplineSet
EndChar
StartChar: six
Encoding: 54 54 26
Width: 1139
Flags: W
HStem: -10 165<482.9 626.931> 807 170<501.803 673.5> 1305 177<482.1 654.784>
VStem: 77 194<701 1191.1> 861 184<366.9 577.999>
Fore
1213.49 1103 m 1,0,-1
 1034.49 1103 l 1,1,-1
 1026.35 1278 1026.35 1278 870.578 1302 c 0,4,-1
 848.106 1305 848.106 1305 822.106 1305 c 0,7,-1
 508.106 1305 508.106 1305 419.468 842 c 1,10,-1
 531.745 957 531.745 957 693.566 973 c 0,13,-1
 725.271 977 725.271 977 766.271 977 c 0,16,-1
 937.271 977 937.271 977 1044.29 858 c 0,19,-1
 1149.13 738 1149.13 738 1139.57 559 c 0,22,-1
 1138.1 528 1138.1 528 1131.58 491 c 0,25,-1
 1095.61 287 1095.61 287 954.92 147 c 0,28,-1
 811.529 3 811.529 3 616.413 -9 c 0,31,-1
 605.236 -10 605.236 -10 584.236 -10 c 0,34,-1
 250.236 -10 250.236 -10 190.014 312 c 0,37,-1
 159.874 470 159.874 470 200.605 701 c 0,40,-1
 300.583 1268 300.583 1268 611.266 1425 c 0,43,-1
 724.816 1482 724.816 1482 864.316 1482 c 0,46,-1
 1038.32 1482 1038.32 1482 1139.27 1374 c 0,49,-1
 1233.64 1274 1233.64 1274 1216.9 1128 c 0,52,-1
 1216.49 1120 1216.49 1120 1213.49 1103 c 1,0,-1
392.4 490 m 0,55,-1
 363.835 328 363.835 328 436.084 233 c 0,58,-1
 495.331 155 495.331 155 610.331 155 c 0,61,-1
 751.331 155 751.331 155 846.374 263 c 0,64,-1
 922.538 349 922.538 349 945.637 480 c 0,67,-1
 975.437 649 975.437 649 892.306 739 c 0,70,-1
 830.296 807 830.296 807 718.296 807 c 0,73,-1
 573.296 807 573.296 807 480.019 692 c 0,76,-1
 413.56 610 413.56 610 392.4 490 c 0,55,-1
EndSplineSet
EndChar
StartChar: seven
Encoding: 55 55 27
Width: 1139
Flags: W
HStem: 0 21G<293 511> 1292 180<97 795>
VStem: 293 218<0 279.5>
Fore
324.814 1292 m 1,0,-1
 356.554 1472 l 1,1,-1
 1305.55 1472 l 1,2,-1
 1273.81 1292 l 1,3,-1
 1002.38 1023 1002.38 1023 797.019 692 c 0,6,-1
 567.777 322 567.777 322 511 0 c 1,9,-1
 293 0 l 1,10,-1
 355.891 351 355.891 351 622.83 776 c 0,13,-1
 813.021 1080.5 813.021 1080.5 1022.81 1292 c 1,16,-1
 324.814 1292 l 1,0,-1
EndSplineSet
EndChar
StartChar: eight
Encoding: 56 56 28
Width: 1139
Flags: W
HStem: -10 157<464 695.4> 699 181<487.042 659.805> 1326 156<462.3 641.7>
VStem: 83 185<319.7 522.5> 142 184<1000.8 1151> 804 185<1028.5 1198.8>
Fore
503.943 805 m 1,0,-1
 298.226 886 298.226 886 336.665 1104 c 0,3,-1
 366.641 1274 366.641 1274 507.508 1381 c 0,6,-1
 643.316 1482 643.316 1482 824.316 1482 c 0,9,-1
 1012.32 1482 1012.32 1482 1113.92 1372 c 0,12,-1
 1212.14 1265.5 1212.14 1265.5 1182.78 1099 c 0,15,-1
 1147.87 901 1147.87 901 942.883 816 c 2,18,-1
 914.943 805 l 1,19,-1
 1109.13 738 1109.13 738 1130.04 556 c 0,22,-1
 1136.99 499 1136.99 499 1125.53 434 c 2,25,-1
 1109.89 368 l 2,26,-1
 1051.68 165.5 1051.68 165.5 870.461 65 c 0,29,-1
 736.236 -10 736.236 -10 564.236 -10 c 0,32,-1
 352.236 -10 352.236 -10 239.925 113 c 0,35,-1
 125.613 236 125.613 236 159.526 434 c 2,38,-1
 160.407 439 l 2,39,-1
 199.904 663 199.904 663 389.361 762 c 0,42,-1
 440.122 789 440.122 789 503.943 805 c 1,0,-1
521.723 1110 m 2,45,-1
 499.506 984 499.506 984 581.397 921 c 0,48,-1
 636.168 880 636.168 880 722.168 880 c 0,51,-1
 842.168 880 842.168 880 924.273 960 c 0,54,-1
 983.501 1018 983.501 1018 997.96 1100 c 0,57,-1
 1018.06 1214 1018.06 1214 943.522 1279 c 0,60,-1
 886.81 1326 886.81 1326 798.81 1326 c 0,63,-1
 680.81 1326 680.81 1326 598.408 1250 c 2,66,-1
 572.472 1222 l 1,67,-1
 549.652 1189 l 1,68,-1
 532.952 1151 l 1,69,-1
 521.723 1110 l 2,45,-1
345.231 438 m 0,70,-1
 320.898 300 320.898 300 403.439 218 c 0,73,-1
 473.92 147 473.92 147 593.92 147 c 0,76,-1
 740.92 147 740.92 147 841.671 242 c 0,79,-1
 921.072 318 921.072 318 941.173 432 c 0,82,-1
 968.416 586.5 968.416 586.5 857.847 657 c 0,85,-1
 791.753 699 791.753 699 685.253 699 c 0,88,-1
 523.253 699 523.253 699 425.973 601 c 0,91,-1
 362.688 537 362.688 537 345.231 438 c 0,70,-1
EndSplineSet
EndChar
StartChar: nine
Encoding: 57 57 29
Width: 1139
Flags: W
HStem: -10 177<503.216 675.9> 495 170<484.5 656.198> 1317 165<531.069 675.1>
VStem: 113 184<894.001 1090.32> 887 194<280.9 771>
Fore
204.064 369 m 1,0,-1
 383.064 369 l 1,1,-1
 391.207 194 391.207 194 546.976 170 c 0,4,-1
 569.446 167 569.446 167 595.446 167 c 0,7,-1
 909.446 167 909.446 167 998.086 630 c 1,10,-1
 885.809 515 885.809 515 723.987 499 c 0,13,-1
 692.282 495 692.282 495 651.282 495 c 0,16,-1
 480.282 495 480.282 495 373.265 614 c 0,19,-1
 268.424 734 268.424 734 277.986 913 c 0,22,-1
 279.453 944 279.453 944 285.977 981 c 0,25,-1
 321.947 1185 321.947 1185 462.633 1325 c 0,28,-1
 606.024 1469 606.024 1469 801.141 1481 c 0,31,-1
 812.316 1482 812.316 1482 833.316 1482 c 0,34,-1
 1167.32 1482 1167.32 1482 1227.54 1160 c 0,37,-1
 1257.68 1002 1257.68 1002 1216.95 771 c 0,40,-1
 1116.97 204 1116.97 204 806.287 47 c 0,43,-1
 692.736 -10 692.736 -10 553.236 -10 c 0,46,-1
 379.236 -10 379.236 -10 278.28 98 c 0,49,-1
 183.913 198 183.913 198 200.656 344 c 0,52,-1
 201.067 352 201.067 352 204.064 369 c 1,0,-1
1025.15 982 m 0,55,-1
 1053.72 1144 1053.72 1144 981.469 1239 c 0,58,-1
 922.223 1317 922.223 1317 807.223 1317 c 0,61,-1
 666.223 1317 666.223 1317 571.18 1209 c 2,64,-1
 541.303 1170 l 2,65,-1
 489.549 1092 489.549 1092 471.916 992 c 0,68,-1
 442.117 823 442.117 823 525.248 733 c 0,71,-1
 587.258 665 587.258 665 699.258 665 c 0,74,-1
 844.258 665 844.258 665 937.535 780 c 0,77,-1
 1003.99 862 1003.99 862 1025.15 982 c 0,55,-1
EndSplineSet
EndChar
StartChar: colon
Encoding: 58 58 30
Width: 569
Flags: W
HStem: 0 205<185 390> 857 205<185 390>
VStem: 185 205<0 205 857 1062>
Fore
336.112 857 m 1,0,-1
 372.259 1062 l 1,1,-1
 577.26 1062 l 1,2,-1
 541.112 857 l 1,3,-1
 336.112 857 l 1,0,-1
185 0 m 1,4,-1
 221.147 205 l 1,5,-1
 426.147 205 l 1,6,-1
 390 0 l 1,7,-1
 185 0 l 1,4,-1
EndSplineSet
EndChar
StartChar: semicolon
Encoding: 59 59 31
Width: 569
Flags: W
HStem: -20 20G<182 284> 857 205<182 387>
VStem: 182 205<0 205 857 1062> 284 103<-81.9457 0>
Fore
333.112 857 m 1,0,-1
 369.259 1062 l 1,1,-1
 574.26 1062 l 1,2,-1
 538.112 857 l 1,3,-1
 333.112 857 l 1,0,-1
182 0 m 1,4,-1
 218.147 205 l 1,5,-1
 423.147 205 l 1,6,-1
 387 0 l 2,7,-1
 355.085 -181 355.085 -181 232.684 -257 c 0,10,-1
 203.157 -277 203.157 -277 168.865 -290 c 1,13,-1
 132.442 -213 l 1,14,-1
 220.79 -177 220.79 -177 257.659 -87 c 0,17,-1
 274.36 -49 274.36 -49 284 0 c 1,20,-1
 182 0 l 1,4,-1
EndSplineSet
EndChar
StartChar: less
Encoding: 60 60 32
Width: 1196
Flags: W
HStem: 226 993<1083 1083>
VStem: 112 971<641 1219>
Fore
225.025 641 m 1,0,-1
 254.648 809 l 1,1,-1
 1297.94 1219 l 1,2,-1
 1266.38 1040 l 1,3,-1
 440.661 724 l 1,4,-1
 1154.41 405 l 1,5,-1
 1122.85 226 l 1,6,-1
 225.025 641 l 1,0,-1
EndSplineSet
EndChar
StartChar: equal
Encoding: 61 61 33
Width: 1196
Flags: W
HStem: 417 168<114 1082> 862 168<114 1082>
Fore
1233.99 862 m 1,0,-1
 265.994 862 l 1,1,-1
 295.617 1030 l 1,2,-1
 1263.62 1030 l 1,3,-1
 1233.99 862 l 1,0,-1
1155.53 417 m 1,4,-1
 187.528 417 l 1,5,-1
 217.151 585 l 1,6,-1
 1185.15 585 l 1,7,-1
 1155.53 417 l 1,4,-1
EndSplineSet
EndChar
StartChar: greater
Encoding: 62 62 34
Width: 1196
Flags: W
HStem: 226 993<112 112>
VStem: 112 971<226 641>
Fore
1196.03 641 m 1,0,-1
 151.85 226 l 1,1,-1
 183.412 405 l 1,2,-1
 1008.66 724 l 1,3,-1
 295.38 1040 l 1,4,-1
 326.942 1219 l 1,5,-1
 1225.65 809 l 1,6,-1
 1196.03 641 l 1,0,-1
EndSplineSet
EndChar
StartChar: question
Encoding: 63 63 35
Width: 1139
Flags: W
HStem: 0 205<461 666> 1341 163<386 655.898>
VStem: 461 205<0 205> 853 183<1022.98 1157.58>
Fore
535.654 361 m 1,0,-1
 550.879 436 l 2,1,-1
 592.325 603 592.325 603 715.779 719 c 0,4,-1
 739.835 742 739.835 742 845.646 826 c 0,7,-1
 947.576 905 947.576 905 994.39 972 c 0,10,-1
 1032.09 1027 1032.09 1027 1044.84 1088 c 0,13,-1
 1055.25 1147 1055.25 1147 1036.42 1199 c 0,16,-1
 1004.34 1295 1004.34 1295 899.162 1328 c 0,19,-1
 856.454 1341 856.454 1341 804.454 1341 c 0,22,-1
 594.102 1339 594.102 1339 490.016 1123 c 0,25,-1
 472.139 1084 472.139 1084 459.438 1046 c 1,28,-1
 274.438 1046 l 1,29,-1
 318.293 1238 318.293 1238 464.039 1367 c 0,32,-1
 620.195 1504 620.195 1504 830.195 1504 c 0,35,-1
 1027.2 1504 1027.2 1504 1141.45 1392 c 0,38,-1
 1247.29 1289 1247.29 1289 1235.66 1138 c 2,41,-1
 1227.14 1084 l 2,42,-1
 1208.33 1000 1208.33 1000 1152.16 914 c 0,45,-1
 1112.76 855 1112.76 855 1015.54 780 c 0,48,-1
 918.663 707 918.663 707 885.197 676 c 0,51,-1
 754.214 557 754.214 557 714.591 389 c 0,54,-1
 712.004 380 712.004 380 708.654 361 c 1,57,-1
 535.654 361 l 1,0,-1
461 0 m 1,58,-1
 497.147 205 l 1,59,-1
 702.147 205 l 1,60,-1
 666 0 l 1,61,-1
 461 0 l 1,58,-1
EndSplineSet
EndChar
StartChar: at
Encoding: 64 64 36
Width: 2079
Flags: W
HStem: -431 157<804.1 1401.2> -3 164<822.1 1013.2> 925 159<912.2 1095.77> 1338 155<942.1 1227.86>
VStem: 111 160<330.734 676.494> 502 181<319.1 557.069> 1799 157<618.969 841.504>
Fore
1182.34 121 m 1,0,-1
 1054.47 -3 1054.47 -3 853.471 -3 c 0,3,-1
 693.471 -3 693.471 -3 619.333 138 c 0,6,-1
 549.256 268 549.256 268 583.287 461 c 0,9,-1
 612.116 624.5 612.116 624.5 708.714 764 c 0,12,-1
 820.632 928 820.632 928 970.972 1015 c 0,15,-1
 1088.14 1084 1088.14 1084 1202.14 1084 c 0,18,-1
 1415.14 1084 1415.14 1084 1478.39 938 c 1,21,-1
 1537.26 1079 l 1,22,-1
 1716.26 1079 l 1,23,-1
 1446.83 379 l 2,24,-1
 1415.37 297 1415.37 297 1392.38 229 c 1,27,-1
 1390.38 212 l 1,28,-1
 1392.56 196 1392.56 196 1404.09 182 c 0,31,-1
 1420.74 163 1420.74 163 1450.74 163 c 0,34,-1
 1555.74 163 1555.74 163 1685.31 291 c 0,37,-1
 1811.35 416 1811.35 416 1882.27 580 c 0,40,-1
 1913.61 650 1913.61 650 1925.25 716 c 0,43,-1
 1969.86 969 1969.86 969 1827.66 1138 c 0,46,-1
 1697.34 1295 1697.34 1295 1454.34 1329 c 0,49,-1
 1393.93 1338 1393.93 1338 1328.93 1338 c 0,52,-1
 1013.93 1338 1013.93 1338 760.129 1152 c 0,55,-1
 704.899 1111 704.899 1111 655.436 1063 c 0,58,-1
 440.583 854 440.583 854 368.509 553 c 0,61,-1
 358.75 509 358.75 509 354.519 485 c 0,64,-1
 284.517 88 284.517 88 515.604 -110 c 0,67,-1
 707.687 -274 707.687 -274 1071.69 -274 c 0,70,-1
 1410.69 -274 1410.69 -274 1654.96 -125 c 0,73,-1
 1755.8 -63.5 1755.8 -63.5 1827.35 19 c 1,76,-1
 2008.35 19 l 1,77,-1
 1877.44 -179 1877.44 -179 1633.1 -300 c 0,80,-1
 1368 -431 1368 -431 1047 -431 c 0,83,-1
 610.003 -431 610.003 -431 378.855 -222 c 0,86,-1
 148.708 -13 148.708 -13 179.654 361 c 0,89,-1
 184.881 419 184.881 419 193.697 469 c 0,92,-1
 256.117 823 256.117 823 482.667 1087 c 0,95,-1
 699.278 1340 699.278 1340 1011.73 1439 c 0,98,-1
 1181.26 1493 1181.26 1493 1365.26 1493 c 0,101,-1
 1678.26 1493 1678.26 1493 1876.87 1332 c 0,104,-1
 2063.24 1181 2063.24 1181 2090.51 933 c 0,107,-1
 2102 828 2102 828 2081.72 713 c 0,110,-1
 2045.4 507 2045.4 507 1897.13 307 c 0,113,-1
 1757.81 118 1757.81 118 1581.94 28 c 0,116,-1
 1462.18 -33 1462.18 -33 1348.18 -33 c 0,119,-1
 1280.18 -33 1280.18 -33 1239.88 -12 c 0,122,-1
 1200.59 9 1200.59 9 1188.46 48 c 0,125,-1
 1179.22 75 1179.22 75 1182.34 121 c 1,0,-1
919.389 161 m 0,128,-1
 1060.39 161 1060.39 161 1185.72 299 c 0,131,-1
 1297.41 422 1297.41 422 1344.56 593 c 0,134,-1
 1352.68 622 1352.68 622 1357.44 649 c 0,137,-1
 1389 828 1389 828 1297.64 894 c 0,140,-1
 1254.1 925 1254.1 925 1187.1 925 c 0,143,-1
 1020.1 925 1020.1 925 885.953 737 c 0,146,-1
 863.311 705 863.311 705 838.376 660 c 0,149,-1
 829.73 645 829.73 645 818.852 623 c 0,152,-1
 777.688 537 777.688 537 762.876 453 c 0,155,-1
 735.722 299 735.722 299 796.439 218 c 0,158,-1
 840.389 161 840.389 161 919.389 161 c 0,128,-1
EndSplineSet
EndChar
StartChar: A
Encoding: 65 65 37
Width: 1366
Flags: W
HStem: 0 21G<-2 203 1149 1368> 471 182<435 903> 1430 20G<559 768>
Back
366 960 m 5,0,-1
 503 960 l 1,1,-1
 896 0 l 1,2,-1
 753 0 l 1,3,-1
 621 312 l 1,4,-1
 257 312 l 1,5,-1
 133 0 l 1,6,-1
 -2 0 l 1,7,-1
 366 960 l 5,0,-1
592 432 m 5,8,-1
 432 819 l 1,9,-1
 285 432 l 1,10,-1
 592 432 l 5,8,-1
EndSplineSet
Fore
814.674 1450 m 1,0,-1
 1023.67 1450 l 1,1,-1
 1368 0 l 1,2,-1
 1149 0 l 1,3,-1
 1031.05 471 l 1,4,-1
 475.05 471 l 1,5,-1
 203 0 l 1,6,-1
 -2 0 l 1,7,-1
 814.674 1450 l 1,0,-1
1018.14 653 m 1,8,-1
 877.116 1237 l 1,9,-1
 550.142 653 l 1,10,-1
 1018.14 653 l 1,8,-1
EndSplineSet
EndChar
StartChar: B
Encoding: 66 66 38
Width: 1366
Flags: W
HStem: 0 173<344 868.494> 669 173<344 788.595> 1277 173<344 821.137>
VStem: 164 180<173 669 842 1277> 995 191<999.537 1158.3> 1056 201<376.171 528.9>
Fore
164 0 m 1,0,-1
 419.674 1450 l 1,1,-1
 955.674 1450 l 2,2,-1
 1122.67 1450 1122.67 1450 1217.92 1406 c 0,5,-1
 1320.28 1357 1320.28 1357 1362.23 1249 c 0,8,-1
 1392.13 1169 1392.13 1169 1376.26 1079 c 0,11,-1
 1360.21 988 1360.21 988 1294.75 906 c 0,14,-1
 1227.94 822 1227.94 822 1117.12 772 c 1,17,-1
 1243.25 733 1243.25 733 1298.67 639 c 0,20,-1
 1352.92 544 1352.92 544 1331.23 421 c 0,23,-1
 1305.84 277 1305.84 277 1200.92 164 c 0,26,-1
 1165.04 125 1165.04 125 1123.1 97 c 0,29,-1
 1050.82 50 1050.82 50 950.231 24 c 0,32,-1
 848.5 0 848.5 0 709 0 c 2,35,-1
 164 0 l 1,0,-1
492.468 842 m 1,36,-1
 809.467 842 l 2,37,-1
 937.467 842 937.467 842 997.465 859 c 0,40,-1
 1154.22 903 1154.22 903 1181.2 1056 c 0,43,-1
 1202.36 1176 1202.36 1176 1127.41 1233 c 0,46,-1
 1107.23 1249 1107.23 1249 1081.47 1256 c 0,49,-1
 1021.17 1277 1021.17 1277 862.17 1277 c 2,52,-1
 569.17 1277 l 1,53,-1
 492.468 842 l 1,36,-1
374.505 173 m 1,54,-1
 739.505 173 l 2,55,-1
 871.505 173 871.505 173 932.031 193 c 0,58,-1
 959.618 202 959.618 202 991.792 220 c 0,61,-1
 1088.49 275 1088.49 275 1122.06 386 c 0,64,-1
 1127.94 408 1127.94 408 1130.23 421 c 0,67,-1
 1153.86 555 1153.86 555 1062.15 619 c 0,70,-1
 1040.97 635 1040.97 635 1011.55 644 c 0,73,-1
 941.963 669 941.963 669 800.963 669 c 2,76,-1
 461.963 669 l 1,77,-1
 374.505 173 l 1,54,-1
EndSplineSet
EndChar
StartChar: C
Encoding: 67 67 39
Width: 1479
Flags: W
HStem: -10 180<680.782 948.3> 1297 180<643.1 904.913>
VStem: 102 197<601.7 930.9>
Fore
1294.64 480 m 1,0,-1
 1482.64 480 l 1,1,-1
 1358.68 191 1358.68 191 1121.99 68 c 0,4,-1
 972.236 -10 972.236 -10 789.236 -10 c 0,7,-1
 552.236 -10 552.236 -10 421.164 86 c 0,10,-1
 288.62 185 288.62 185 244.536 366 c 0,13,-1
 198.804 549 198.804 549 233.363 745 c 0,16,-1
 271.273 960 271.273 960 389.249 1130 c 0,19,-1
 506.049 1299 506.049 1299 682.742 1388 c 0,22,-1
 861.435 1477 861.435 1477 1054.43 1477 c 0,25,-1
 1275.43 1477 1275.43 1477 1404.69 1365 c 0,28,-1
 1535.76 1252 1535.76 1252 1558.14 1050 c 1,31,-1
 1370.14 1050 l 1,32,-1
 1347.06 1231 1347.06 1231 1159.7 1280 c 0,35,-1
 1094.7 1297 1094.7 1297 1018.7 1297 c 0,38,-1
 849.196 1297 849.196 1297 722.414 1216 c 0,41,-1
 487.141 1067 487.141 1067 430.54 746 c 0,44,-1
 401.446 581 401.446 581 440.526 434 c 0,47,-1
 492.965 246.5 492.965 246.5 670.679 191 c 0,50,-1
 737.976 170 737.976 170 817.976 170 c 0,53,-1
 1005.98 170 1005.98 170 1145.96 272 c 0,56,-1
 1260.77 356 1260.77 356 1294.64 480 c 1,0,-1
EndSplineSet
EndChar
StartChar: D
Encoding: 68 68 40
Width: 1479
Flags: W
HStem: 0 173<350 848.059> 1277 173<350 767.277>
VStem: 168 182<173 1277> 1183 197<503.892 983.9>
Fore
168 0 m 1,0,-1
 423.674 1450 l 1,1,-1
 928.674 1450 l 2,2,-1
 1377.67 1450 1377.67 1450 1490.12 1186 c 0,5,-1
 1560.29 1022.5 1560.29 1022.5 1509.25 733 c 0,8,-1
 1399.75 112 1399.75 112 893.998 17 c 0,11,-1
 800 0 800 0 697 0 c 2,14,-1
 168 0 l 1,0,-1
380.505 173 m 1,15,-1
 705.505 173 l 2,16,-1
 1190 173 1190 173 1302.96 686 c 0,19,-1
 1306.78 702 1306.78 702 1312.78 736 c 0,22,-1
 1400.76 1235 1400.76 1235 970.641 1274 c 0,25,-1
 933.17 1277 933.17 1277 895.17 1277 c 2,28,-1
 575.17 1277 l 1,29,-1
 380.505 173 l 1,15,-1
EndSplineSet
EndChar
StartChar: E
Encoding: 69 69 41
Width: 1366
Flags: W
HStem: 0 179<341 1222> 646 180<341 1021> 1268 182<341 1222>
VStem: 162 179<179 646 826 1268>
Fore
162 0 m 1,0,-1
 417.674 1450 l 1,1,-1
 1477.67 1450 l 1,2,-1
 1445.58 1268 l 1,3,-1
 564.583 1268 l 1,4,-1
 486.646 826 l 1,5,-1
 1166.65 826 l 1,6,-1
 1134.91 646 l 1,7,-1
 454.907 646 l 1,8,-1
 372.562 179 l 1,9,-1
 1253.56 179 l 1,10,-1
 1222 0 l 1,11,-1
 162 0 l 1,0,-1
EndSplineSet
EndChar
StartChar: F
Encoding: 70 70 42
Width: 1251
Flags: W
HStem: 0 21G<168 347> 641 179<347 1009> 1271 179<347 1157>
VStem: 168 179<0 641 820 1271>
Fore
168 0 m 1,0,-1
 423.674 1450 l 1,1,-1
 1412.67 1450 l 1,2,-1
 1381.11 1271 l 1,3,-1
 571.111 1271 l 1,4,-1
 491.588 820 l 1,5,-1
 1153.59 820 l 1,6,-1
 1122.03 641 l 1,7,-1
 460.025 641 l 1,8,-1
 347 0 l 1,9,-1
 168 0 l 1,0,-1
EndSplineSet
EndChar
StartChar: G
Encoding: 71 71 43
Width: 1479
Flags: W
HStem: -10 180<589.1 975.9> 504 180<905 1212> 1297 180<643.1 985.1>
VStem: 102 197<601.7 930.9>
Fore
1524.61 684 m 1,0,-1
 1518.61 650 l 2,1,-1
 1476.65 420.5 1476.65 420.5 1418.42 320 c 0,4,-1
 1381.29 254 1381.29 254 1288.92 164 c 0,7,-1
 1283.04 159 1283.04 159 1280.51 156 c 0,10,-1
 1103.24 -10 1103.24 -10 789.236 -10 c 0,13,-1
 552.236 -10 552.236 -10 421.164 86 c 0,16,-1
 288.62 185 288.62 185 244.536 366 c 0,19,-1
 198.804 549 198.804 549 233.363 745 c 0,22,-1
 271.273 960 271.273 960 389.249 1130 c 0,25,-1
 506.049 1299 506.049 1299 682.742 1388 c 0,28,-1
 861.435 1477 861.435 1477 1054.43 1477 c 0,31,-1
 1275.43 1477 1275.43 1477 1404.69 1365 c 0,34,-1
 1535.76 1252 1535.76 1252 1558.14 1050 c 1,37,-1
 1370.14 1050 l 1,38,-1
 1363.31 1102 1363.31 1102 1340.42 1148 c 0,41,-1
 1261.7 1297 1261.7 1297 1018.7 1297 c 0,44,-1
 849.196 1297 849.196 1297 722.414 1216 c 0,47,-1
 487.141 1067 487.141 1067 430.54 746 c 0,50,-1
 401.446 581 401.446 581 440.526 434 c 0,53,-1
 456.77 373 456.77 373 487.659 327 c 0,56,-1
 588.976 170 588.976 170 817.976 170 c 0,59,-1
 836.976 170 836.976 170 846.152 171 c 0,62,-1
 1030.39 178 1030.39 178 1162.08 284 c 2,65,-1
 1178.72 299 l 2,66,-1
 1263.3 376 1263.3 376 1291.99 465 c 2,69,-1
 1300.87 504 l 1,70,-1
 993.869 504 l 1,71,-1
 1025.61 684 l 1,72,-1
 1524.61 684 l 1,0,-1
EndSplineSet
EndChar
StartChar: H
Encoding: 72 72 44
Width: 1479
Flags: W
HStem: 0 21G<164 344 1134 1314> 668 180<344 1134> 1430 20G<164 344 1134 1314>
VStem: 164 180<0 668 848 1450> 1134 180<0 668 848 1450>
Fore
164 0 m 1,0,-1
 419.674 1450 l 1,1,-1
 599.674 1450 l 1,2,-1
 493.525 848 l 1,3,-1
 1283.53 848 l 1,4,-1
 1389.67 1450 l 1,5,-1
 1569.67 1450 l 1,6,-1
 1314 0 l 1,7,-1
 1134 0 l 1,8,-1
 1251.79 668 l 1,9,-1
 461.786 668 l 1,10,-1
 344 0 l 1,11,-1
 164 0 l 1,0,-1
EndSplineSet
EndChar
StartChar: I
Encoding: 73 73 45
Width: 650
Flags: W
HStem: 0 160<25 235 415 625> 1290 160<25 235 415 625>
VStem: 235 180<160 1290>
Fore
653.212 160 m 1,0,-1
 625 0 l 1,1,-1
 25 0 l 1,2,-1
 53.2119 160 l 1,3,-1
 263.212 160 l 1,4,-1
 462.462 1290 l 1,5,-1
 252.462 1290 l 1,6,-1
 280.674 1450 l 1,7,-1
 880.674 1450 l 1,8,-1
 852.462 1290 l 1,9,-1
 642.462 1290 l 1,10,-1
 443.212 160 l 1,11,-1
 653.212 160 l 1,0,-1
EndSplineSet
EndChar
StartChar: J
Encoding: 74 74 46
Width: 1024
Flags: W
HStem: -10 180<363.2 543.218> 1280 170<408 685>
VStem: 66 181<306.5 455> 685 180<333 1280>
Fore
1120.67 1450 m 1,0,-1
 945.405 456 l 2,1,-1
 912.608 270 912.608 270 841.328 172 c 0,4,-1
 825.272 149 825.272 149 805.746 129 c 0,7,-1
 688.882 5 688.882 5 511.59 -8 c 2,10,-1
 461.236 -10 l 2,11,-1
 274.236 -10 274.236 -10 189.222 92 c 0,14,-1
 181.633 100 181.633 100 168.807 118 c 0,17,-1
 109.323 206 109.323 206 133.181 381 c 0,20,-1
 138.586 423 138.586 423 144.229 455 c 1,23,-1
 324.229 455 l 1,24,-1
 313.651 378 l 2,25,-1
 306.84 294 306.84 294 334.376 246 c 0,28,-1
 377.976 170 377.976 170 491.976 170 c 0,31,-1
 578.976 170 578.976 170 636.853 209 c 0,34,-1
 659.497 224 659.497 224 689.435 252 c 0,37,-1
 736.369 297 736.369 297 756.941 408 c 2,40,-1
 768.05 471 l 1,41,-1
 910.698 1280 l 1,42,-1
 633.698 1280 l 1,43,-1
 663.674 1450 l 1,44,-1
 1120.67 1450 l 1,0,-1
EndSplineSet
EndChar
StartChar: K
Encoding: 75 75 47
Width: 1366
Flags: W
HStem: 0 21G<150 330 1113 1346> 1430 20G<150 330 1072 1316>
VStem: 150 180<0 539 785 1450>
Fore
150 0 m 1,0,-1
 405.674 1450 l 1,1,-1
 585.674 1450 l 1,2,-1
 468.417 785 l 1,3,-1
 1327.67 1450 l 1,4,-1
 1571.67 1450 l 1,5,-1
 752.119 806 l 1,6,-1
 1346 0 l 1,7,-1
 1113 0 l 1,8,-1
 597.139 670 l 1,9,-1
 425.04 539 l 1,10,-1
 330 0 l 1,11,-1
 150 0 l 1,0,-1
EndSplineSet
EndChar
StartChar: L
Encoding: 76 76 48
Width: 1139
Flags: W
HStem: 0 170<330 1060> 1430 20G<150 330>
VStem: 150 180<170 1450>
Fore
150 0 m 1,0,-1
 405.674 1450 l 1,1,-1
 585.674 1450 l 1,2,-1
 359.976 170 l 1,3,-1
 1089.98 170 l 1,4,-1
 1060 0 l 1,5,-1
 150 0 l 1,0,-1
EndSplineSet
EndChar
StartChar: M
Encoding: 77 77 49
Width: 1706
Flags: W
HStem: 0 21G<152 332 706 996 1370 1550> 1430 20G<152 332 1370 1550>
VStem: 152 180<0 964> 1370 180<0 964>
Fore
152 0 m 1,0,-1
 407.674 1450 l 1,1,-1
 587.674 1450 l 1,2,-1
 874.451 133 l 1,3,-1
 1625.67 1450 l 1,4,-1
 1805.67 1450 l 1,5,-1
 1550 0 l 1,6,-1
 1370 0 l 1,7,-1
 1539.98 964 l 1,8,-1
 996 0 l 1,9,-1
 706 0 l 1,10,-1
 501.979 964 l 1,11,-1
 332 0 l 1,12,-1
 152 0 l 1,0,-1
EndSplineSet
EndChar
StartChar: N
Encoding: 78 78 50
Width: 1479
Flags: W
HStem: 0 21G<156 336 1131 1311> 1430 20G<156 336 1131 1311>
VStem: 156 180<0 1136> 1131 180<315 1450>
Fore
156 0 m 1,0,-1
 411.674 1450 l 1,1,-1
 591.674 1450 l 1,2,-1
 1186.54 315 l 1,3,-1
 1386.67 1450 l 1,4,-1
 1566.67 1450 l 1,5,-1
 1311 0 l 1,6,-1
 1131 0 l 1,7,-1
 536.308 1136 l 1,8,-1
 336 0 l 1,9,-1
 156 0 l 1,0,-1
EndSplineSet
EndChar
StartChar: O
Encoding: 79 79 51
Width: 1593
Flags: W
HStem: -10 180<617 929.289> 1298 180<521.5 982.7>
VStem: 104 200<577.51 868.3> 1296 200<531.8 851.311>
Fore
229.897 714 m 0,0,-1
 292.317 1068 292.317 1068 512.111 1271 c 0,3,-1
 738.582 1475 738.582 1475 1061.61 1478 c 0,6,-1
 1359.61 1478 1359.61 1478 1514.99 1293 c 0,9,-1
 1662.13 1118 1662.13 1118 1637.47 825 c 0,12,-1
 1634.24 784 1634.24 784 1624.89 731 c 0,15,-1
 1570.23 421 1570.23 421 1367.97 221 c 0,18,-1
 1173.11 29 1173.11 29 900.295 -4 c 0,21,-1
 850.236 -10 850.236 -10 798.236 -10 c 0,24,-1
 512.236 -10 512.236 -10 355.094 165 c 0,27,-1
 210.482 326 210.482 326 216.27 580 c 0,30,-1
 217.378 643 217.378 643 229.897 714 c 0,0,-1
429.368 711 m 0,33,-1
 380.967 436.5 380.967 436.5 511.312 291 c 0,36,-1
 617.976 170 617.976 170 828.976 170 c 0,39,-1
 1095.98 170 1095.98 170 1260.12 358 c 0,42,-1
 1384.16 500 1384.16 500 1425.07 732 c 0,45,-1
 1476.56 1024 1476.56 1024 1346.18 1175 c 0,48,-1
 1240.87 1298 1240.87 1298 1030.87 1298 c 0,51,-1
 695.872 1298 695.872 1298 535.03 1021 c 0,54,-1
 461.637 894 461.637 894 429.368 711 c 0,33,-1
EndSplineSet
EndChar
StartChar: P
Encoding: 80 80 52
Width: 1366
Flags: W
HStem: 0 21G<158 338> 580 173<338 893.5> 1277 173<338 911.758>
VStem: 158 180<0 580 753 1277> 1077 200<909.5 1126.03>
Fore
158 0 m 1,0,-1
 413.674 1450 l 1,1,-1
 966.674 1450 l 2,2,-1
 1167.67 1450 1167.67 1450 1255.56 1421 c 0,5,-1
 1307.56 1404 1307.56 1404 1356.21 1368 c 0,8,-1
 1443.05 1299 1443.05 1299 1460.95 1168 c 0,11,-1
 1471.31 1102 1471.31 1102 1457.91 1026 c 0,14,-1
 1425.11 840 1425.11 840 1283.19 710 c 0,17,-1
 1142.27 580 1142.27 580 830.27 580 c 2,20,-1
 440.27 580 l 1,21,-1
 338 0 l 1,22,-1
 158 0 l 1,0,-1
470.774 753 m 1,23,-1
 863.774 753 l 2,24,-1
 1051.77 753 1051.77 753 1143.12 823 c 0,27,-1
 1234.46 893 1234.46 893 1256.85 1020 c 0,30,-1
 1279.78 1150 1279.78 1150 1205.47 1222 c 2,33,-1
 1178.17 1243 l 2,34,-1
 1156.55 1256.5 1156.55 1256.5 1130.88 1264 c 0,37,-1
 1085.17 1277 1085.17 1277 952.17 1277 c 2,40,-1
 563.17 1277 l 1,41,-1
 470.774 753 l 1,23,-1
EndSplineSet
EndChar
StartChar: Q
Encoding: 81 81 53
Width: 1659
Flags: W
HStem: -14 189<1341.26 1447.53> -10 177<722.705 820> 297 178<867.069 979.5> 1298 180<521.5 982.7>
VStem: 104 200<577.51 868.3> 1294 202<547.867 851.311>
Fore
1256.42 354 m 1,0,-1
 1361.29 461 1361.29 461 1412.67 673 c 0,3,-1
 1421.37 711 1421.37 711 1425.07 732 c 0,6,-1
 1476.56 1024 1476.56 1024 1346.18 1175 c 0,9,-1
 1240.87 1298 1240.87 1298 1030.87 1298 c 0,12,-1
 695.872 1298 695.872 1298 535.03 1021 c 0,15,-1
 461.637 894 461.637 894 429.368 711 c 0,18,-1
 380.879 436 380.879 436 511.135 290 c 0,21,-1
 542.14 256 542.14 256 583.555 230 c 1,24,-1
 638.949 357 638.949 357 773.763 424 c 0,27,-1
 836.405 456 836.405 456 904.521 468 c 0,30,-1
 939.755 475 939.755 475 978.755 475 c 0,33,-1
 1115.4 473 1115.4 473 1211.35 399 c 0,36,-1
 1237 380 1237 380 1256.42 354 c 1,0,-1
1352.97 204 m 1,39,-1
 1373.21 177 1373.21 177 1420.86 175 c 0,42,-1
 1441.86 175 1441.86 175 1466.92 181 c 0,45,-1
 1525.21 194 1525.21 194 1573.2 228 c 1,48,-1
 1674.87 90 l 1,49,-1
 1544.53 -14 1544.53 -14 1396.53 -14 c 0,52,-1
 1312.53 -14 1312.53 -14 1247.53 20 c 0,55,-1
 1198.11 46 1198.11 46 1171.52 88 c 1,58,-1
 1039.26 10 1039.26 10 903.118 -5 c 2,61,-1
 818.236 -10 l 1,62,-1
 798.236 -10 l 2,63,-1
 512.236 -10 512.236 -10 355.094 165 c 0,66,-1
 210.482 326 210.482 326 216.27 580 c 0,69,-1
 217.378 643 217.378 643 229.897 714 c 0,72,-1
 292.317 1068 292.317 1068 512.111 1271 c 0,75,-1
 738.582 1475 738.582 1475 1061.61 1478 c 0,78,-1
 1359.61 1478 1359.61 1478 1514.99 1293 c 0,81,-1
 1662.13 1118 1662.13 1118 1637.47 825 c 0,84,-1
 1634.24 784 1634.24 784 1624.89 731 c 0,87,-1
 1570.59 423 1570.59 423 1424.9 266 c 0,90,-1
 1388.2 228 1388.2 228 1352.97 204 c 1,39,-1
1089.85 226 m 1,93,-1
 1042.37 297 1042.37 297 960.369 297 c 0,96,-1
 944.369 297 944.369 297 927.84 294 c 0,99,-1
 820.313 274 820.313 274 771.915 181 c 1,102,-1
 771.739 180 771.739 180 770.798 177.5 c 0,105,-1
 769.857 175 769.857 175 768.681 174 c 1,108,-1
 791.446 167 791.446 167 832.446 167 c 0,111,-1
 949.799 169 949.799 169 1041.62 202 c 0,114,-1
 1071.56 213 1071.56 213 1089.85 226 c 1,93,-1
EndSplineSet
EndChar
StartChar: R
Encoding: 82 82 54
Width: 1400
Flags: W
HStem: 0 21G<158 338 1107 1387> 580 173<338 698> 1277 173<338 911.758>
VStem: 158 180<0 580 753 1277> 1077 200<909.5 1126.03>
Fore
800.27 580 m 1,0,-1
 440.27 580 l 1,1,-1
 338 0 l 1,2,-1
 158 0 l 1,3,-1
 413.674 1450 l 1,4,-1
 966.674 1450 l 2,5,-1
 1167.67 1450 1167.67 1450 1255.56 1421 c 0,8,-1
 1307.56 1404 1307.56 1404 1356.21 1368 c 0,11,-1
 1443.05 1299 1443.05 1299 1460.95 1168 c 0,14,-1
 1471.31 1102 1471.31 1102 1457.91 1026 c 0,17,-1
 1425.11 840 1425.11 840 1283.19 710 c 0,20,-1
 1191.88 626 1191.88 626 1029.09 596 c 1,23,-1
 1387 0 l 1,24,-1
 1107 0 l 1,25,-1
 800.27 580 l 1,0,-1
470.774 753 m 1,26,-1
 863.774 753 l 2,27,-1
 1051.77 753 1051.77 753 1143.12 823 c 0,30,-1
 1234.46 893 1234.46 893 1256.85 1020 c 0,33,-1
 1279.78 1150 1279.78 1150 1205.47 1222 c 2,36,-1
 1178.17 1243 l 2,37,-1
 1156.55 1256.5 1156.55 1256.5 1130.88 1264 c 0,40,-1
 1085.17 1277 1085.17 1277 952.17 1277 c 2,43,-1
 563.17 1277 l 1,44,-1
 470.774 753 l 1,26,-1
EndSplineSet
EndChar
StartChar: S
Encoding: 83 83 55
Width: 1366
Flags: W
HStem: -10 174<588.347 865.3> 1300 171<488.7 789>
VStem: 148 187<1033.75 1145.38> 1029 186<1019 1118.75> 1072 187<324.6 514.8>
Fore
180.517 502 m 1,0,-1
 363.517 502 l 1,1,-1
 351.079 267 351.079 267 546.207 194 c 0,4,-1
 626.918 164 626.918 164 736.918 164 c 0,7,-1
 917.918 164 917.918 164 1034.2 245 c 0,10,-1
 1126.84 311 1126.84 311 1144.82 413 c 0,13,-1
 1166.51 536 1166.51 536 1050.39 592 c 0,16,-1
 1015.38 609 1015.38 609 964.676 622 c 2,19,-1
 756.434 666 l 2,20,-1
 540.955 720 540.955 720 447.711 781 c 0,23,-1
 311.581 871 311.581 871 332.557 1041 c 0,26,-1
 333.144 1050 333.144 1050 336.141 1067 c 0,29,-1
 369.467 1256 369.467 1256 544.039 1367 c 0,32,-1
 705.377 1471 705.377 1471 923.377 1471 c 0,35,-1
 1164.88 1471 1164.88 1471 1296.63 1342 c 0,38,-1
 1322.22 1317 1322.22 1317 1341.93 1287 c 2,41,-1
 1365.53 1245 l 2,42,-1
 1401.3 1170 1401.3 1170 1399.08 1078 c 2,45,-1
 1394.68 1019 l 1,46,-1
 1208.68 1019 l 1,47,-1
 1217.07 1163 1217.07 1163 1116.65 1240 c 0,50,-1
 1035.22 1300 1035.22 1300 901.225 1300 c 0,53,-1
 690.225 1300 690.225 1300 589.945 1202 c 0,56,-1
 538.129 1152 538.129 1152 525.434 1080 c 0,59,-1
 506.566 973 506.566 973 601.75 923 c 0,62,-1
 648.342 898 648.342 898 793.522 865 c 0,65,-1
 821.289 858 821.289 858 834.936 856 c 0,68,-1
 1065.41 802 1065.41 802 1144.42 768 c 0,71,-1
 1293.66 707 1293.66 707 1329.44 598 c 0,74,-1
 1351.75 526 1351.75 526 1334.64 429 c 0,77,-1
 1301.05 238.5 1301.05 238.5 1129.63 117 c 0,80,-1
 969.765 1.5 969.765 1.5 753.413 -9 c 0,83,-1
 740.236 -10 740.236 -10 715.236 -10 c 0,86,-1
 355.236 -10 355.236 -10 230.797 186 c 0,89,-1
 151.014 312 151.014 312 180.517 502 c 1,0,-1
EndSplineSet
EndChar
StartChar: T
Encoding: 84 84 56
Width: 1251
Flags: W
HStem: 0 21G<538 718> 1280 170<48 538 718 1210>
VStem: 538 180<0 1280>
Fore
538 0 m 1,0,-1
 763.698 1280 l 1,1,-1
 273.698 1280 l 1,2,-1
 303.674 1450 l 1,3,-1
 1465.67 1450 l 1,4,-1
 1435.7 1280 l 1,5,-1
 943.698 1280 l 1,6,-1
 718 0 l 1,7,-1
 538 0 l 1,0,-1
EndSplineSet
EndChar
StartChar: U
Encoding: 85 85 57
Width: 1479
Flags: W
HStem: -10 180<621.314 972.3> 1430 20G<161 341 1134 1314>
VStem: 161 180<429.974 1450> 1134 180<468.068 1450>
Fore
1389.67 1450 m 1,0,-1
 1569.67 1450 l 1,1,-1
 1413.98 567 l 2,2,-1
 1312.24 -10 1312.24 -10 739.236 -10 c 0,5,-1
 214.236 -10 214.236 -10 247.11 460 c 0,8,-1
 252.161 517 252.161 517 260.978 567 c 2,11,-1
 416.674 1450 l 1,12,-1
 596.674 1450 l 1,13,-1
 441.153 568 l 2,14,-1
 383.318 240 383.318 240 646.092 182 c 0,17,-1
 699.476 170 699.476 170 766.976 170 c 0,20,-1
 1038.48 170 1038.48 170 1150.6 338 c 0,23,-1
 1208.59 423 1208.59 423 1234.15 568 c 2,26,-1
 1389.67 1450 l 1,0,-1
EndSplineSet
EndChar
StartChar: V
Encoding: 86 86 58
Width: 1366
Flags: W
HStem: 0 21G<577 776> 1430 20G<9 219 1152 1350>
Fore
577 0 m 1,0,-1
 264.674 1450 l 1,1,-1
 474.674 1450 l 1,2,-1
 726.195 279 l 1,3,-1
 1407.67 1450 l 1,4,-1
 1605.67 1450 l 1,5,-1
 776 0 l 1,6,-1
 577 0 l 1,0,-1
EndSplineSet
EndChar
StartChar: W
Encoding: 87 87 59
Width: 1933
Flags: W
HStem: 0 21G<414 612 1310 1508> 1430 20G<25 224 834 1088 1698 1897>
Fore
414 0 m 1,0,-1
 280.674 1450 l 1,1,-1
 479.674 1450 l 1,2,-1
 581.768 390 l 1,3,-1
 1089.67 1450 l 1,4,-1
 1343.67 1450 l 1,5,-1
 1477.77 390 l 1,6,-1
 1953.67 1450 l 1,7,-1
 2152.67 1450 l 1,8,-1
 1508 0 l 1,9,-1
 1310 0 l 1,10,-1
 1167.3 1170 l 1,11,-1
 612 0 l 1,12,-1
 414 0 l 1,0,-1
EndSplineSet
EndChar
StartChar: X
Encoding: 88 88 60
Width: 1366
Flags: W
HStem: 0 21G<9 239 1123 1353> 1430 20G<76 306 1083 1313>
Fore
9 0 m 1,0,-1
 697.303 756 l 1,1,-1
 331.674 1450 l 1,2,-1
 561.674 1450 l 1,3,-1
 840.047 902 l 1,4,-1
 1338.67 1450 l 1,5,-1
 1568.67 1450 l 1,6,-1
 931.303 756 l 1,7,-1
 1353 0 l 1,8,-1
 1123 0 l 1,9,-1
 789.089 613 l 1,10,-1
 239 0 l 1,11,-1
 9 0 l 1,0,-1
EndSplineSet
EndChar
StartChar: Y
Encoding: 89 89 61
Width: 1366
Flags: W
HStem: 0 21G<571 765> 1431 20G<6 236 1120 1350>
VStem: 571 194<0 621>
Fore
571 0 m 1,0,-1
 680.499 621 l 1,1,-1
 261.851 1451 l 1,2,-1
 491.851 1451 l 1,3,-1
 830.76 855 l 1,4,-1
 1375.85 1451 l 1,5,-1
 1605.85 1451 l 1,6,-1
 874.499 621 l 1,7,-1
 765 0 l 1,8,-1
 571 0 l 1,0,-1
EndSplineSet
EndChar
StartChar: Z
Encoding: 90 90 62
Width: 1251
Flags: W
HStem: 0 180<325 1200> 1270 180<45 945>
Fore
41 0 m 1,0,-1
 73.9727 187 l 1,1,-1
 1168.94 1270 l 1,2,-1
 268.936 1270 l 1,3,-1
 300.674 1450 l 1,4,-1
 1468.67 1450 l 1,5,-1
 1436.94 1270 l 1,6,-1
 356.739 180 l 1,7,-1
 1231.74 180 l 1,8,-1
 1200 0 l 1,9,-1
 41 0 l 1,0,-1
EndSplineSet
EndChar
StartChar: bracketleft
Encoding: 91 91 63
Width: 569
Flags: W
HStem: -407 149<319 536> 1317 149<319 536>
VStem: 139 180<-258 1317> 139 397<-407 -258 1317 1466>
Fore
67.2354 -407 m 1,0,-1
 397.495 1466 l 1,1,-1
 794.495 1466 l 1,2,-1
 768.223 1317 l 1,3,-1
 551.223 1317 l 1,4,-1
 273.508 -258 l 1,5,-1
 490.508 -258 l 1,6,-1
 464.235 -407 l 1,7,-1
 67.2354 -407 l 1,0,-1
EndSplineSet
EndChar
StartChar: backslash
Encoding: 92 92 64
Width: 569
Flags: W
VStem: 0 569<-25 1491>
Fore
420.592 -25 m 1,0,-1
 262.903 1491 l 1,1,-1
 407.903 1491 l 1,2,-1
 564.592 -25 l 1,3,-1
 420.592 -25 l 1,0,-1
EndSplineSet
EndChar
StartChar: bracketright
Encoding: 93 93 65
Width: 569
Flags: W
HStem: -407 149<39 256> 1317 149<39 256>
VStem: 39 397<-407 -258 1317 1466> 256 180<-258 1317>
Fore
364.235 -407 m 1,0,-1
 -32.7646 -407 l 1,1,-1
 -6.49219 -258 l 1,2,-1
 210.508 -258 l 1,3,-1
 488.223 1317 l 1,4,-1
 271.223 1317 l 1,5,-1
 297.495 1466 l 1,6,-1
 694.495 1466 l 1,7,-1
 364.235 -407 l 1,0,-1
EndSplineSet
EndChar
StartChar: asciicircum
Encoding: 94 94 66
Width: 961
Flags: W
HStem: 690 801<239 407>
VStem: 54 853<690 690>
Fore
360.666 690 m 1,0,-1
 175.666 690 l 1,1,-1
 669.903 1491 l 1,2,-1
 814.903 1491 l 1,3,-1
 1028.67 690 l 1,4,-1
 847.666 690 l 1,5,-1
 705.933 1287 l 1,6,-1
 360.666 690 l 1,0,-1
EndSplineSet
EndChar
StartChar: underscore
Encoding: 95 95 67
Width: 1139
Flags: W
HStem: -407 130<-31 1162>
Fore
-102.765 -407 m 1,0,-1
 -79.8428 -277 l 1,1,-1
 1113.16 -277 l 1,2,-1
 1090.23 -407 l 1,3,-1
 -102.765 -407 l 1,0,-1
EndSplineSet
EndChar
StartChar: grave
Encoding: 96 96 68
Width: 682
Flags: W
HStem: 1454 20G<89 330>
VStem: 89 376<1194 1474>
Fore
675.534 1194 m 1,0,-1
 530.534 1194 l 1,1,-1
 348.906 1474 l 1,2,-1
 589.906 1474 l 1,3,-1
 675.534 1194 l 1,0,-1
EndSplineSet
EndChar
StartChar: a
Encoding: 97 97 69
Width: 1139
Flags: W
HStem: -24 141<389 546.359> 937 149<451.473 676.3>
VStem: 74 192<222.6 343.175> 813 182<342.607 533 661.414 815.9>
Fore
851.099 131 m 1,0,-1
 735.522 45.5 735.522 45.5 637.939 11 c 0,3,-1
 537.769 -24 537.769 -24 432.769 -24 c 0,6,-1
 258.769 -24 258.769 -24 178.933 62 c 0,9,-1
 99.9199 147 99.9199 147 123.371 280 c 0,12,-1
 137.125 358 137.125 358 184.41 422 c 0,15,-1
 230.871 487 230.871 487 294.748 526 c 0,18,-1
 361.801 566 361.801 566 435.151 585 c 0,21,-1
 489.443 598 489.443 598 599.912 612 c 0,24,-1
 819.32 637 819.32 637 931.845 674 c 1,27,-1
 937.253 699 937.253 699 941.132 721 c 0,30,-1
 960.527 831 960.527 831 917.463 876 c 0,33,-1
 860.219 937 860.219 937 723.219 937 c 0,36,-1
 597.219 937 597.219 937 527.283 892 c 0,39,-1
 459.525 848 459.525 848 410.601 735 c 1,42,-1
 238.832 759 l 1,43,-1
 282.757 872 282.757 872 350.1 942 c 0,46,-1
 417.09 1010 417.09 1010 527.791 1048 c 0,49,-1
 639.491 1086 639.491 1086 775.491 1086 c 0,52,-1
 909.491 1086 909.491 1086 990.849 1054 c 0,55,-1
 1068.38 1023 1068.38 1023 1101.74 974 c 0,58,-1
 1132.28 926 1132.28 926 1136.05 851 c 0,61,-1
 1136.77 804 1136.77 804 1115.78 685 c 2,64,-1
 1073.47 445 l 2,65,-1
 1029.74 197 1029.74 197 1028.57 128 c 0,68,-1
 1028.76 61 1028.76 61 1052 0 c 1,71,-1
 864 0 l 1,72,-1
 845.698 55 845.698 55 851.099 131 c 1,0,-1
906.982 533 m 1,75,-1
 806.105 494 806.105 494 600.992 465 c 0,78,-1
 488.171 449 488.171 449 437.645 429 c 0,81,-1
 389.294 410 389.294 410 356.241 370 c 0,84,-1
 324.717 333 324.717 333 316.253 285 c 0,87,-1
 303.558 213 303.558 213 349.094 165 c 0,90,-1
 396.63 117 396.63 117 500.63 117 c 0,93,-1
 604.63 117 604.63 117 693.564 162 c 0,96,-1
 783.853 209 783.853 209 834.605 287 c 0,99,-1
 874.715 350 874.715 350 895.345 467 c 2,102,-1
 906.982 533 l 1,75,-1
EndSplineSet
EndChar
StartChar: b
Encoding: 98 98 70
Width: 1139
Flags: W
HStem: -10 159<504.3 717.5> 921 165<495.4 681.3> 1446 20G<134 314>
VStem: 134 180<338.8 689.8 943 1466> 134 167<0 119> 883 172<398.1 725.7>
Fore
301 0 m 1,0,-1
 134 0 l 1,1,-1
 392.495 1466 l 1,2,-1
 572.495 1466 l 1,3,-1
 480.276 943 l 1,4,-1
 619.491 1086 619.491 1086 796.491 1086 c 0,7,-1
 1009.49 1086 1009.49 1086 1104.93 924 c 0,10,-1
 1191.65 775 1191.65 775 1151.45 547 c 0,13,-1
 1105.25 285 1105.25 285 944.099 131 c 0,16,-1
 796.236 -10 796.236 -10 594.236 -10 c 0,19,-1
 435.236 -10 435.236 -10 348.812 84 c 0,22,-1
 331.162 103 331.162 103 321.982 119 c 1,25,-1
 301 0 l 1,0,-1
407.04 539 m 0,26,-1
 366.309 308 366.309 308 463.323 206 c 0,29,-1
 518.272 149 518.272 149 607.272 149 c 0,32,-1
 763.449 150 763.449 150 869.019 278 c 0,35,-1
 949.651 378 949.651 378 976.806 532 c 0,38,-1
 1016.48 757 1016.48 757 919.112 857 c 0,41,-1
 859.397 921 859.397 921 751.397 921 c 0,44,-1
 643.397 921 643.397 921 547.293 824 c 0,47,-1
 437.721 713 437.721 713 407.04 539 c 0,26,-1
EndSplineSet
EndChar
StartChar: c
Encoding: 99 99 71
Width: 1024
Flags: W
HStem: -10 170<472.6 699.5> 916 170<383.3 650.3>
VStem: 81 184<346.555 651.808> 828 177<325.44 403 696 725.472>
Fore
899.06 403 m 1,0,-1
 1076.06 403 l 1,1,-1
 1027.09 165 1027.09 165 839.227 58 c 0,4,-1
 718.236 -10 718.236 -10 561.236 -10 c 0,7,-1
 372.236 -10 372.236 -10 260.925 113 c 0,10,-1
 139.258 251 139.258 251 166.519 485 c 0,13,-1
 167.987 499 167.987 499 172.924 527 c 0,16,-1
 222.648 809 222.648 809 396.921 958 c 0,19,-1
 547.491 1086 547.491 1086 755.491 1086 c 0,22,-1
 1003.49 1086 1003.49 1086 1090.04 936 c 0,25,-1
 1141.53 848 1141.53 848 1128.78 719 c 0,28,-1
 1128.54 712 1128.54 712 1125.72 696 c 1,31,-1
 950.724 696 l 1,32,-1
 958.474 799.5 958.474 799.5 884.347 864 c 0,35,-1
 823.516 916 823.516 916 732.516 916 c 0,38,-1
 447.516 916 447.516 916 368.799 583 c 2,41,-1
 358.806 532 l 2,42,-1
 320.014 312 320.014 312 426.087 216 c 0,45,-1
 487.212 160 487.212 160 589.212 160 c 0,48,-1
 783.564 162 783.564 162 862.898 300 c 0,51,-1
 887.833 345 887.833 345 899.06 403 c 1,0,-1
EndSplineSet
EndChar
StartChar: d
Encoding: 100 100 72
Width: 1139
Flags: W
HStem: -10 154<455.6 620.7> 917 169<386.7 631.1> 1446 20G<812 991>
VStem: 70 185<332.4 654.285> 812 179<350.4 656 958 1466> 824 167<0 122>
Fore
824 0 m 1,0,-1
 845.512 122 l 1,1,-1
 732.236 -10 732.236 -10 525.236 -10 c 0,4,-1
 320.236 -10 320.236 -10 221.038 142 c 0,7,-1
 126.43 286 126.43 286 160.104 511 c 2,10,-1
 163.453 530 l 2,11,-1
 207.711 781 207.711 781 355.513 933 c 0,14,-1
 503.491 1086 503.491 1086 710.491 1086 c 0,17,-1
 904.491 1086 904.491 1086 977.155 965 c 2,20,-1
 980.921 958 l 1,21,-1
 1070.5 1466 l 1,22,-1
 1249.5 1466 l 1,23,-1
 991 0 l 1,24,-1
 824 0 l 1,0,-1
348.453 530 m 0,25,-1
 308.251 302 308.251 302 407.794 203 c 0,28,-1
 468.391 144 468.391 144 569.391 144 c 0,31,-1
 658.391 144 658.391 144 749.497 224 c 0,34,-1
 866.482 326 866.482 326 904.458 496 c 2,37,-1
 907.809 515 l 2,38,-1
 945.014 726 945.014 726 863.762 838 c 0,41,-1
 807.691 917 807.691 917 705.691 917 c 0,44,-1
 525.691 917 525.691 917 425.245 750 c 0,47,-1
 371.199 659 371.199 659 348.453 530 c 0,25,-1
EndSplineSet
EndChar
StartChar: e
Encoding: 101 101 73
Width: 1139
Flags: W
HStem: -10 162<485.401 644.965> 485 164<271 862> 914 172<465.1 668.166>
VStem: 75 192<338.7 522>
Fore
920.717 333 m 1,0,-1
 1106.72 333 l 1,1,-1
 1040.15 154 1040.15 154 873.933 62 c 0,4,-1
 765.177 1 765.177 1 629.59 -8 c 0,7,-1
 595.236 -10 595.236 -10 579.236 -10 c 0,10,-1
 297.236 -10 297.236 -10 200.21 177 c 0,13,-1
 129.661 310 129.661 310 167.043 522 c 0,16,-1
 215.709 798 215.709 798 389.334 949 c 0,19,-1
 544.491 1086 544.491 1086 762.491 1086 c 0,22,-1
 1012.99 1086 1012.99 1086 1108.75 906 c 0,25,-1
 1185.83 759 1185.83 759 1145.69 520 c 0,28,-1
 1141.46 496 1141.46 496 1138.52 485 c 1,31,-1
 352.519 485 l 1,32,-1
 312.85 226 312.85 226 496.446 167 c 0,35,-1
 546.802 152 546.802 152 608.802 152 c 0,38,-1
 818.802 152 818.802 152 908.838 311 c 2,41,-1
 920.717 333 l 1,0,-1
385.437 649 m 1,42,-1
 976.437 649 l 1,43,-1
 993.817 861 993.817 861 824.399 904 c 0,46,-1
 786.163 914 786.163 914 734.163 914 c 0,49,-1
 610.163 914 610.163 914 509.938 839 c 0,52,-1
 412.891 765 412.891 765 385.437 649 c 1,42,-1
EndSplineSet
EndChar
StartChar: f
Encoding: 102 102 74
Width: 569
Flags: W
HStem: 0 21G<178 357> 785 140<19 178 357 536> 1343 172<433.645 577.458>
VStem: 178 179<0 785 925 1254>
Fore
178 0 m 1,0,-1
 316.417 785 l 1,1,-1
 157.417 785 l 1,2,-1
 182.103 925 l 1,3,-1
 341.103 925 l 1,4,-1
 385.185 1175 l 2,5,-1
 423.095 1390 423.095 1390 581.906 1474 c 0,8,-1
 660.136 1515 660.136 1515 754.136 1515 c 0,11,-1
 830.636 1515 830.636 1515 902.375 1488 c 1,14,-1
 872.046 1316 l 1,15,-1
 794.807 1343 794.807 1343 737.807 1343 c 0,18,-1
 703.571 1344.5 703.571 1344.5 676.221 1334 c 0,21,-1
 586.401 1301 586.401 1301 561.539 1160 c 2,24,-1
 520.103 925 l 1,25,-1
 699.103 925 l 1,26,-1
 674.417 785 l 1,27,-1
 495.417 785 l 1,28,-1
 357 0 l 1,29,-1
 178 0 l 1,0,-1
EndSplineSet
EndChar
StartChar: g
Encoding: 103 103 75
Width: 1139
Flags: W
HStem: -435 167<452.248 652.482> 0 175<453.582 677.1> 917 169<394.7 622.576>
VStem: 66 185<340.7 665.7> 819 183<-28.5 139 224.2 761.1> 836 166<974 1062>
Fore
88.9521 -74 m 1,0,-1
 263.952 -74 l 1,1,-1
 259.723 -115 l 2,2,-1
 260.031 -221 260.031 -221 377.86 -256 c 0,5,-1
 420.744 -268 420.744 -268 473.744 -268 c 0,8,-1
 654.744 -268 654.744 -268 742.256 -146 c 0,11,-1
 809.654 -53 809.654 -53 842.628 134 c 2,14,-1
 843.51 139 l 1,15,-1
 701 0 701 0 525 0 c 0,18,-1
 306 0 306 0 208.741 163 c 0,21,-1
 120.661 310 120.661 310 160.688 537 c 0,24,-1
 202.478 774 202.478 774 347.103 925 c 0,27,-1
 500.491 1086 500.491 1086 717.491 1086 c 0,30,-1
 928.491 1086 928.491 1086 1007.74 974 c 1,33,-1
 1023.26 1062 l 1,34,-1
 1189.26 1062 l 1,35,-1
 1027.39 144 l 2,36,-1
 972.024 -170 972.024 -170 844.926 -301 c 0,39,-1
 766.643 -382 766.643 -382 644.177 -413 c 0,42,-1
 562.298 -435 562.298 -435 445.298 -435 c 2,45,-1
 378.003 -431 l 2,46,-1
 192.529 -411 192.529 -411 120.395 -287 c 0,49,-1
 68.499 -198.5 68.499 -198.5 88.9521 -74 c 1,0,-1
347.979 550 m 0,52,-1
 290.585 224.5 290.585 224.5 504.915 181 c 0,55,-1
 535.357 175 535.357 175 572.857 175 c 0,58,-1
 852.857 175 852.857 175 917.922 544 c 0,61,-1
 962.18 795 962.18 795 838.168 880 c 0,64,-1
 785.691 917 785.691 917 700.691 917 c 0,67,-1
 533.691 917 533.691 917 434.478 774 c 0,70,-1
 371.432 683 371.432 683 347.979 550 c 0,52,-1
EndSplineSet
EndChar
StartChar: h
Encoding: 104 104 76
Width: 1139
Flags: W
HStem: 0 21G<135 315 820 1000> 882 213<508.694 789.7> 1446 20G<135 315>
VStem: 135 180<0 624.325 970 1466> 820 180<0 808.2>
Fore
135 0 m 1,0,-1
 393.495 1466 l 1,1,-1
 573.495 1466 l 1,2,-1
 486.037 970 l 1,3,-1
 566.025 1055 566.025 1055 691.962 1083 c 0,6,-1
 742.078 1095 742.078 1095 793.078 1095 c 0,9,-1
 1021.08 1095 1021.08 1095 1095.87 935 c 0,12,-1
 1146 828 1146 828 1118.67 673 c 2,15,-1
 1000 0 l 1,16,-1
 820 0 l 1,17,-1
 930.028 624 l 2,18,-1
 975.521 882 975.521 882 751.521 882 c 0,21,-1
 545.521 882 545.521 882 455.137 687 c 0,24,-1
 424.499 621 424.499 621 408.806 532 c 2,27,-1
 315 0 l 1,28,-1
 135 0 l 1,0,-1
EndSplineSet
EndChar
StartChar: i
Encoding: 105 105 77
Width: 455
Flags: W
HStem: 0 21G<136 316> 1042 20G<136 316> 1259 207<136 316>
VStem: 136 180<0 1062 1259 1466>
Fore
357.996 1259 m 1,0,-1
 394.495 1466 l 1,1,-1
 574.495 1466 l 1,2,-1
 537.996 1259 l 1,3,-1
 357.996 1259 l 1,0,-1
136 0 m 1,4,-1
 323.259 1062 l 1,5,-1
 503.259 1062 l 1,6,-1
 316 0 l 1,7,-1
 136 0 l 1,4,-1
EndSplineSet
EndChar
StartChar: j
Encoding: 106 106 78
Width: 455
Flags: W
HStem: -428 161<-64.9111 69.7> 1042 20G<134 314> 1257 209<134 314>
VStem: 134 180<-170.837 1062 1257 1466>
Fore
355.643 1257 m 1,0,-1
 392.495 1466 l 1,1,-1
 572.495 1466 l 1,2,-1
 535.643 1257 l 1,3,-1
 355.643 1257 l 1,0,-1
-166.646 -412 m 1,4,-1
 -139.669 -259 l 1,5,-1
 -85.0791 -267 -85.0791 -267 -54.0791 -267 c 0,8,-1
 35.9209 -267 35.9209 -267 74.6768 -206 c 0,11,-1
 106.316 -157 106.316 -157 124.479 -54 c 2,14,-1
 321.259 1062 l 1,15,-1
 501.259 1062 l 1,16,-1
 303.773 -58 l 2,17,-1
 254.049 -340 254.049 -340 88.4111 -406 c 0,20,-1
 33.5322 -428 33.5322 -428 -36.4678 -428 c 0,23,-1
 -98.4678 -428 -98.4678 -428 -166.646 -412 c 1,4,-1
EndSplineSet
EndChar
StartChar: k
Encoding: 107 107 79
Width: 1024
Flags: W
HStem: 0 21G<136 316 794 1016> 1042 20G<742 975> 1446 20G<136 316>
VStem: 136 180<0 421 630 1466>
Fore
136 0 m 1,0,-1
 394.495 1466 l 1,1,-1
 574.495 1466 l 1,2,-1
 427.086 630 l 1,3,-1
 929.26 1062 l 1,4,-1
 1162.26 1062 l 1,5,-1
 686.786 668 l 1,6,-1
 1016 0 l 1,7,-1
 794 0 l 1,8,-1
 538.745 543 l 1,9,-1
 390.233 421 l 1,10,-1
 316 0 l 1,11,-1
 136 0 l 1,0,-1
EndSplineSet
EndChar
StartChar: l
Encoding: 108 108 80
Width: 455
Flags: W
HStem: 0 21G<131 311> 1446 20G<131 311>
VStem: 131 180<0 1466>
Fore
131 0 m 1,0,-1
 389.495 1466 l 1,1,-1
 569.495 1466 l 1,2,-1
 311 0 l 1,3,-1
 131 0 l 1,0,-1
EndSplineSet
EndChar
StartChar: m
Encoding: 109 109 81
Width: 1706
Flags: W
HStem: 0 21G<135 315 766 946 1395 1574> 930 156<525.7 665.1 1108.5 1274.45>
VStem: 135 161<913 1062> 135 180<0 668.692> 766 180<0 758.7> 1395 179<0 807.955>
Fore
135 0 m 1,0,-1
 322.259 1062 l 1,1,-1
 483.259 1062 l 1,2,-1
 456.986 913 l 1,3,-1
 519.74 991 519.74 991 612.027 1038 c 0,6,-1
 702.991 1086 702.991 1086 809.491 1086 c 0,9,-1
 927.491 1086 927.491 1086 994.852 1037 c 0,12,-1
 1061.21 988 1061.21 988 1076.69 900 c 1,15,-1
 1235.49 1086 1235.49 1086 1437.49 1086 c 0,18,-1
 1595.49 1086 1595.49 1086 1664.97 998 c 0,21,-1
 1734.81 912 1734.81 912 1702.54 729 c 2,24,-1
 1574 0 l 1,25,-1
 1395 0 l 1,26,-1
 1512.96 669 l 2,27,-1
 1531.83 776 1531.83 776 1523.29 824 c 0,30,-1
 1513.93 873 1513.93 873 1472.87 901 c 0,33,-1
 1430.98 930 1430.98 930 1369.98 930 c 0,36,-1
 1257.98 930 1257.98 930 1170.94 856 c 0,39,-1
 1083.54 780 1083.54 780 1054.79 617 c 2,42,-1
 946 0 l 1,43,-1
 766 0 l 1,44,-1
 887.666 690 l 2,45,-1
 908.648 809 908.648 809 875.404 870 c 0,48,-1
 842.484 930 842.484 930 741.984 930 c 0,51,-1
 665.984 930 665.984 930 594.931 890 c 0,54,-1
 521.701 849 521.701 849 480.301 773 c 0,57,-1
 437.547 695 437.547 695 412.156 551 c 2,60,-1
 315 0 l 1,61,-1
 135 0 l 1,0,-1
EndSplineSet
EndChar
StartChar: n
Encoding: 110 110 82
Width: 1139
Flags: W
HStem: 0 21G<135 315 820 1000> 882 213<508.694 789.7>
VStem: 135 180<0 624.325 970 1064> 820 180<0 808.2>
Fore
135 0 m 1,0,-1
 322.612 1064 l 1,1,-1
 502.612 1064 l 1,2,-1
 486.037 970 l 1,3,-1
 566.025 1055 566.025 1055 691.962 1083 c 0,6,-1
 742.078 1095 742.078 1095 793.078 1095 c 0,9,-1
 1021.08 1095 1021.08 1095 1095.87 935 c 0,12,-1
 1146 828 1146 828 1118.67 673 c 2,15,-1
 1000 0 l 1,16,-1
 820 0 l 1,17,-1
 930.028 624 l 2,18,-1
 975.521 882 975.521 882 751.521 882 c 0,21,-1
 545.521 882 545.521 882 455.137 687 c 0,24,-1
 424.499 621 424.499 621 408.806 532 c 2,27,-1
 315 0 l 1,28,-1
 135 0 l 1,0,-1
EndSplineSet
EndChar
StartChar: o
Encoding: 111 111 83
Width: 1139
Flags: W
HStem: -11 158<474.972 705.1> 928 158<406.1 666.1>
VStem: 68 185<338.6 654.5> 878 185<411.56 730.7>
Fore
161.63 531 m 0,0,-1
 211.706 815 211.706 815 395.979 964 c 0,3,-1
 548.491 1086 548.491 1086 757.491 1086 c 0,6,-1
 991.491 1086 991.491 1086 1099.34 932 c 0,9,-1
 1201.59 786 1201.59 786 1159.27 546 c 0,12,-1
 1095.62 185 1095.62 185 848.521 54 c 0,15,-1
 724.061 -11 724.061 -11 564.061 -11 c 0,18,-1
 295.061 -11 295.061 -11 196.152 171 c 0,21,-1
 122.661 310 122.661 310 161.63 531 c 0,0,-1
346.63 531 m 0,24,-1
 300.608 270 300.608 270 440.444 184 c 0,27,-1
 500.92 147 500.92 147 591.92 147 c 0,30,-1
 795.92 147 795.92 147 902.012 329 c 0,33,-1
 950.823 413 950.823 413 972.688 537 c 0,36,-1
 1012.01 760 1012.01 760 909.994 862 c 0,39,-1
 845.132 928 845.132 928 729.632 928 c 0,42,-1
 544.632 928 544.632 928 436.771 770 c 0,45,-1
 371.845 674 371.845 674 346.63 531 c 0,24,-1
EndSplineSet
EndChar
StartChar: p
Encoding: 112 112 84
Width: 1139
Flags: W
HStem: -10 165<483.4 669.3> 927 159<492.3 705.5>
VStem: 122 180<-390 133 386.2 737.2> 122 167<957 1076> 871 172<350.3 609.264>
Fore
457.745 957 m 1,0,-1
 472.566 973 472.566 973 496.916 992 c 0,3,-1
 616.491 1086 616.491 1086 775.491 1086 c 0,6,-1
 977.491 1086 977.491 1086 1075.63 945 c 0,9,-1
 1182.47 791 1182.47 791 1136.28 529 c 0,12,-1
 1096.07 301 1096.07 301 956.802 152 c 0,15,-1
 804.236 -10 804.236 -10 591.236 -10 c 0,18,-1
 414.236 -10 414.236 -10 325.451 133 c 1,21,-1
 233.232 -390 l 1,22,-1
 53.2324 -390 l 1,23,-1
 311.728 1076 l 1,24,-1
 478.728 1076 l 1,25,-1
 457.745 957 l 1,0,-1
394.688 537 m 0,26,-1
 364.007 363 364.007 363 434.435 252 c 0,29,-1
 496.331 155 496.331 155 604.331 155 c 0,32,-1
 712.331 155 712.331 155 794.615 219 c 0,35,-1
 927.248 319 927.248 319 966.922 544 c 0,38,-1
 969.92 561 969.92 561 973.914 595 c 0,41,-1
 982.137 687 982.137 687 964.127 755 c 2,44,-1
 948.709 798 l 2,45,-1
 888.279 926 888.279 926 732.455 927 c 0,48,-1
 643.455 927 643.455 927 568.404 870 c 0,51,-1
 435.419 768 435.419 768 394.688 537 c 0,26,-1
EndSplineSet
EndChar
StartChar: q
Encoding: 113 113 85
Width: 1139
Flags: W
HStem: -10 165<460.7 646.6> 927 159<424.5 637.7>
VStem: 87 172<350.3 609.264> 828 180<-390 133 386.2 737.2> 841 167<957 1076>
Fore
1030.73 1076 m 1,0,-1
 1197.73 1076 l 1,1,-1
 939.232 -390 l 1,2,-1
 759.232 -390 l 1,3,-1
 851.451 133 l 1,4,-1
 712.236 -10 712.236 -10 535.236 -10 c 0,7,-1
 322.236 -10 322.236 -10 226.802 152 c 0,10,-1
 140.074 301 140.074 301 180.277 529 c 0,13,-1
 226.475 791 226.475 791 387.629 945 c 0,16,-1
 535.491 1086 535.491 1086 737.491 1086 c 0,19,-1
 896.491 1086 896.491 1086 982.916 992 c 0,22,-1
 1000.57 973 1000.57 973 1009.75 957 c 1,25,-1
 1030.73 1076 l 1,0,-1
924.688 537 m 0,26,-1
 965.419 768 965.419 768 868.404 870 c 0,29,-1
 813.455 927 813.455 927 724.455 927 c 0,32,-1
 568.279 926 568.279 926 462.709 798 c 2,35,-1
 432.127 755 l 2,36,-1
 390.137 687 390.137 687 365.914 595 c 0,39,-1
 357.92 561 357.92 561 354.922 544 c 0,42,-1
 315.248 319 315.248 319 412.615 219 c 0,45,-1
 472.331 155 472.331 155 580.331 155 c 0,48,-1
 688.331 155 688.331 155 784.435 252 c 0,51,-1
 894.007 363 894.007 363 924.688 537 c 0,26,-1
EndSplineSet
EndChar
StartChar: r
Encoding: 114 114 86
Width: 682
Flags: W
HStem: 0 21G<133 313> 900 177<455.818 583.585>
VStem: 133 162<947 1062> 133 180<0 713>
Fore
133 0 m 1,0,-1
 320.259 1062 l 1,1,-1
 482.259 1062 l 1,2,-1
 461.981 947 l 1,3,-1
 507.796 1014 507.796 1014 601.496 1052 c 0,6,-1
 604.672 1053 604.672 1053 613.789 1056.5 c 128,-1,-1
 622.906 1060 622.906 1060 628.26 1062 c 0,12,-1
 669.904 1077 669.904 1077 722.904 1077 c 0,15,-1
 820.904 1077 820.904 1077 891.264 1028 c 1,18,-1
 799.817 861 l 1,19,-1
 740.694 900 740.694 900 676.694 900 c 0,22,-1
 643.694 900 643.694 900 610.755 889 c 0,25,-1
 583.991 879 583.991 879 562.347 864 c 0,28,-1
 452.475 791 452.475 791 411.038 556 c 2,31,-1
 313 0 l 1,32,-1
 133 0 l 1,0,-1
EndSplineSet
EndChar
StartChar: s
Encoding: 115 115 87
Width: 1024
Flags: W
HStem: -11 162<416.064 626.5> 925 161<378.7 600.765>
VStem: 63 178<217.317 358> 760 185<259.343 368.035>
Fore
126.125 358 m 1,0,-1
 304.125 358 l 1,1,-1
 297.797 186 297.797 186 465.684 157 c 0,4,-1
 500.625 151 500.625 151 542.625 151 c 0,7,-1
 669.625 151 669.625 151 752.734 214 c 0,10,-1
 804.787 254 804.787 254 813.956 306 c 0,13,-1
 827.473 394 827.473 394 730.997 431 c 0,16,-1
 696.642 446 696.642 446 604.64 463 c 0,19,-1
 426.635 497 426.635 497 370.69 520 c 0,22,-1
 279.038 556 279.038 556 244.497 638 c 0,25,-1
 216.781 702 216.781 702 230.535 780 c 0,28,-1
 258.042 936 258.042 936 409.03 1021 c 0,31,-1
 527.491 1086 527.491 1086 675.491 1086 c 0,34,-1
 923.491 1086 923.491 1086 1006.33 949 c 0,37,-1
 1048.17 880 1048.17 880 1041.36 779 c 0,40,-1
 1041.48 774 1041.48 774 1039.71 764 c 1,43,-1
 863.714 764 l 1,44,-1
 867.811 912 867.811 912 695.926 924 c 2,47,-1
 660.103 925 l 2,48,-1
 523.103 925 523.103 925 454.936 856 c 2,51,-1
 435.881 833 l 1,52,-1
 423.296 807 l 1,53,-1
 416.183 778 l 2,54,-1
 414.009 760 414.009 760 419.129 738 c 0,57,-1
 429.371 694 429.371 694 499.668 673 c 0,60,-1
 532.904 663 532.904 663 630.555 644 c 0,63,-1
 814.207 608 814.207 608 883.388 575 c 0,66,-1
 1002.51 519 1002.51 519 1007.53 400 c 0,69,-1
 1009.01 363 1009.01 363 1002.31 325 c 0,72,-1
 974.623 168 974.623 168 823.872 73 c 0,75,-1
 690.561 -11 690.561 -11 515.061 -11 c 0,78,-1
 259.061 -11 259.061 -11 166.333 138 c 0,81,-1
 111.85 226 111.85 226 126.125 358 c 1,0,-1
EndSplineSet
EndChar
StartChar: t
Encoding: 116 116 88
Width: 569
Flags: W
HStem: -13 166<393.302 526.769> 2 159<446.25 554> 922 140<18 168 347 497>
VStem: 168 179<186.451 922 1062 1433>
Fore
556.389 161 m 1,0,-1
 554.353 2 l 1,1,-1
 479.708 -13 479.708 -13 408.708 -13 c 0,4,-1
 309.708 -13 309.708 -13 268.998 17 c 0,7,-1
 213.227 58 213.227 58 206.923 130 c 0,10,-1
 201.149 188 201.149 188 222.838 311 c 2,13,-1
 330.573 922 l 1,14,-1
 180.573 922 l 1,15,-1
 205.259 1062 l 1,16,-1
 355.259 1062 l 1,17,-1
 420.677 1433 l 1,18,-1
 599.677 1433 l 1,19,-1
 534.26 1062 l 1,20,-1
 684.26 1062 l 1,21,-1
 659.573 922 l 1,22,-1
 509.573 922 l 1,23,-1
 400.074 301 l 2,24,-1
 385.087 216 385.087 216 393.207 194 c 0,27,-1
 399.562 179 399.562 179 417.446 167 c 0,30,-1
 437.979 153 437.979 153 475.979 153 c 0,33,-1
 496.979 153 496.979 153 556.389 161 c 1,0,-1
EndSplineSet
EndChar
StartChar: u
Encoding: 117 117 89
Width: 1139
Flags: W
HStem: -10 211<463.955 701.4> 1065 20G<104 284 789 969>
VStem: 104 180<316.7 1085> 789 180<0 64 286 1085>
Fore
1160.31 1085 m 1,0,-1
 969 0 l 1,1,-1
 789 0 l 1,2,-1
 800.285 64 l 1,3,-1
 724.118 -5 724.118 -5 546.236 -10 c 2,6,-1
 535.236 -10 l 1,7,-1
 465.766 -7 l 2,8,-1
 253.821 16 253.821 16 190.915 181 c 0,11,-1
 153.019 278 153.019 278 176.646 412 c 2,14,-1
 295.314 1085 l 1,15,-1
 475.314 1085 l 1,16,-1
 365.287 461 l 2,17,-1
 335.84 294 335.84 294 441.731 231 c 0,20,-1
 491.441 201 491.441 201 569.441 201 c 0,23,-1
 824.441 201 824.441 201 869.405 456 c 2,26,-1
 980.314 1085 l 1,27,-1
 1160.31 1085 l 1,0,-1
EndSplineSet
EndChar
StartChar: v
Encoding: 118 118 90
Width: 1024
Flags: W
HStem: 0 21G<429 599> 1042 20G<26 216 810 1000>
VStem: 26 974<1062 1062>
Fore
429 0 m 1,0,-1
 213.259 1062 l 1,1,-1
 403.259 1062 l 1,2,-1
 567.432 269 l 1,3,-1
 997.26 1062 l 1,4,-1
 1187.26 1062 l 1,5,-1
 599 0 l 1,6,-1
 429 0 l 1,0,-1
EndSplineSet
EndChar
StartChar: w
Encoding: 119 119 91
Width: 1479
Flags: W
HStem: 0 21G<331 519 975 1163> 1042 20G<6 192 648 832 1288 1463>
Fore
331 0 m 1,0,-1
 193.259 1062 l 1,1,-1
 379.259 1062 l 1,2,-1
 467.376 246 l 1,3,-1
 835.26 1062 l 1,4,-1
 1019.26 1062 l 1,5,-1
 1112.38 246 l 1,6,-1
 1475.26 1062 l 1,7,-1
 1650.26 1062 l 1,8,-1
 1163 0 l 1,9,-1
 975 0 l 1,10,-1
 947.727 265 l 2,11,-1
 888.709 798 888.709 798 884.06 817 c 1,14,-1
 519 0 l 1,15,-1
 331 0 l 1,0,-1
EndSplineSet
EndChar
StartChar: x
Encoding: 120 120 92
Width: 1024
Flags: W
HStem: 0 21G<15 233 788 1009> 1042 20G<44 269 766 981>
VStem: 15 994<0 0>
Fore
15 0 m 1,0,-1
 493.332 552 l 1,1,-1
 231.259 1062 l 1,2,-1
 456.259 1062 l 1,3,-1
 621.371 694 l 1,4,-1
 953.26 1062 l 1,5,-1
 1168.26 1062 l 1,6,-1
 706.096 562 l 1,7,-1
 1009 0 l 1,8,-1
 788 0 l 1,9,-1
 578.881 419 l 1,10,-1
 233 0 l 1,11,-1
 15 0 l 1,0,-1
EndSplineSet
EndChar
StartChar: y
Encoding: 121 121 93
Width: 1024
Flags: W
HStem: -422 168<159.564 296.712> 1042 20G<33 227 826 1006>
VStem: 33 973<1062 1062>
Fore
54.8818 -409 m 1,0,-1
 64.6816 -240 l 1,1,-1
 115.213 -254 115.213 -254 169.213 -254 c 0,4,-1
 239.213 -254 239.213 -254 286.269 -231 c 0,7,-1
 353.264 -197 353.264 -197 384.256 -146 c 0,10,-1
 413.72 -98 413.72 -98 435.647 -2 c 1,13,-1
 220.259 1062 l 1,14,-1
 414.259 1062 l 1,15,-1
 560.441 201 l 1,16,-1
 1013.26 1062 l 1,17,-1
 1193.26 1062 l 1,18,-1
 601.823 -1 l 1,19,-1
 542.09 -215 542.09 -215 457.749 -302 c 0,22,-1
 416.167 -345 416.167 -345 353.877 -375 c 0,25,-1
 265.648 -416 265.648 -416 164.59 -422 c 2,28,-1
 110.767 -421 l 2,29,-1
 78.2949 -418 78.2949 -418 54.8818 -409 c 1,0,-1
EndSplineSet
EndChar
StartChar: z
Encoding: 122 122 94
Width: 1024
Flags: W
HStem: 0 155<262 980> 916 146<60 716>
Fore
40 0 m 1,0,-1
 67.3311 155 l 1,1,-1
 877.516 916 l 1,2,-1
 221.516 916 l 1,3,-1
 247.259 1062 l 1,4,-1
 1135.26 1062 l 1,5,-1
 1109.52 916 l 1,6,-1
 289.331 155 l 1,7,-1
 1007.33 155 l 1,8,-1
 980 0 l 1,9,-1
 40 0 l 1,0,-1
EndSplineSet
EndChar
StartChar: braceleft
Encoding: 123 123 95
Width: 684
Flags: W
HStem: -431 157<507.235 636> 1334 157<534.669 636>
VStem: 264 169<-196.735 265.9 789.693 1250.13>
Fore
164.912 612 m 1,0,-1
 242.265 614 242.265 614 297.317 654 c 0,3,-1
 352.019 692 352.019 692 381.361 762 c 0,6,-1
 407.822 827 407.822 827 439.975 998 c 0,9,-1
 471.598 1166 471.598 1166 484.767 1218 c 0,12,-1
 508.754 1303 508.754 1303 542.57 1353 c 0,15,-1
 575.563 1404 575.563 1404 616.853 1434 c 0,18,-1
 656.143 1464 656.143 1464 717.141 1481 c 0,21,-1
 754.903 1491 754.903 1491 842.903 1491 c 2,24,-1
 898.903 1491 l 1,25,-1
 871.221 1334 l 1,26,-1
 840.221 1334 l 2,27,-1
 737.221 1334 737.221 1334 695.52 1296 c 0,30,-1
 654.996 1259 654.996 1259 632.073 1129 c 0,33,-1
 586.404 870 586.404 870 562.709 798 c 0,36,-1
 525.666 690 525.666 690 471.615 633 c 0,39,-1
 420.564 576 420.564 576 317.453 530 c 1,42,-1
 420.166 483 420.166 483 452.768 390 c 0,45,-1
 485.192 296 485.192 296 447.106 80 c 0,48,-1
 412.018 -119 412.018 -119 410.198 -152 c 0,51,-1
 406.208 -220 406.208 -220 434.447 -247 c 0,54,-1
 461.687 -274 461.687 -274 556.687 -274 c 2,57,-1
 587.687 -274 l 1,58,-1
 560.003 -431 l 1,59,-1
 504.003 -431 l 2,60,-1
 404.003 -431 404.003 -431 364.824 -415 c 0,63,-1
 304.703 -393 304.703 -393 272.049 -340 c 0,66,-1
 239.041 -289 239.041 -289 240.972 -210 c 0,69,-1
 241.843 -137 241.843 -137 272.64 49 c 0,72,-1
 303.084 233 303.084 233 299.546 298 c 0,75,-1
 294.712 367 294.712 367 253.765 407 c 0,78,-1
 212.818 447 212.818 447 136.171 449 c 1,81,-1
 164.912 612 l 1,0,-1
EndSplineSet
EndChar
StartChar: bar
Encoding: 124 124 96
Width: 532
Flags: W
VStem: 188 157<-431 1491>
Fore
112.003 -431 m 1,0,-1
 450.903 1491 l 1,1,-1
 607.903 1491 l 1,2,-1
 269.003 -431 l 1,3,-1
 112.003 -431 l 1,0,-1
EndSplineSet
EndChar
StartChar: braceright
Encoding: 125 125 97
Width: 684
Flags: W
HStem: -431 157<47 148.331> 1334 157<47 175.899>
VStem: 250 169<-189.625 271.056 795.1 1261.39>
Fore
733.912 612 m 1,0,-1
 705.171 449 l 1,1,-1
 628.406 447.5 628.406 447.5 571.765 407 c 0,4,-1
 516.712 367 516.712 367 488.546 298 c 0,7,-1
 462.437 235 462.437 235 430.108 63 c 0,10,-1
 398.485 -105 398.485 -105 385.316 -157 c 0,13,-1
 361.24 -242.5 361.24 -242.5 328.513 -292 c 0,16,-1
 294.52 -343 294.52 -343 253.054 -374 c 0,19,-1
 212.94 -403 212.94 -403 152.942 -420 c 0,22,-1
 112.003 -431 112.003 -431 27.0029 -431 c 2,25,-1
 -28.9971 -431 l 1,26,-1
 -1.31348 -274 l 1,27,-1
 29.6865 -274 l 2,28,-1
 132.687 -274 132.687 -274 174.387 -236 c 0,31,-1
 214.911 -199 214.911 -199 238.01 -68 c 0,34,-1
 282.092 182 282.092 182 302.905 249 c 0,37,-1
 339.654 361 339.654 361 398.115 426 c 0,40,-1
 456.753 492 456.753 492 552.453 530 c 1,43,-1
 446.327 586 446.327 586 416.197 676 c 0,46,-1
 385.243 767 385.243 767 422.977 981 c 0,49,-1
 456.655 1172 456.655 1172 459.061 1214 c 0,52,-1
 463.875 1281 463.875 1281 436.636 1308 c 0,55,-1
 407.22 1334 407.22 1334 313.22 1334 c 2,58,-1
 282.22 1334 l 1,59,-1
 309.903 1491 l 1,60,-1
 365.903 1491 l 2,61,-1
 465.903 1491 465.903 1491 505.082 1475 c 0,64,-1
 566.026 1452 566.026 1452 598.034 1401 c 0,67,-1
 630.865 1349 630.865 1349 629.936 1270 c 0,70,-1
 627.534 1194 627.534 1194 597.267 1011 c 0,73,-1
 566.822 827 566.822 827 570.361 762 c 0,76,-1
 575.371 694 575.371 694 615.318 654 c 0,79,-1
 657.677 613.5 657.677 613.5 733.912 612 c 1,0,-1
EndSplineSet
EndChar
StartChar: asciitilde
Encoding: 126 126 98
Width: 1196
Flags: W
HStem: 559 189<777.939 918.62> 693 189<271.961 421.282>
VStem: 87 1023<673 762 557 885>
Fore
185.214 557 m 1,0,-1
 221.361 762 l 1,1,-1
 349.521 882 349.521 882 520.521 882 c 0,4,-1
 580.521 882 580.521 882 643.347 864 c 0,7,-1
 707.349 847 707.349 847 819.18 795 c 0,10,-1
 886.891 765 886.891 765 915.479 757 c 0,13,-1
 947.893 748 947.893 748 983.893 748 c 0,16,-1
 1048.89 748 1048.89 748 1124.77 787 c 0,19,-1
 1200.47 825 1200.47 825 1266.05 885 c 1,22,-1
 1228.67 673 l 1,23,-1
 1153.09 613 1153.09 613 1083.33 586 c 0,26,-1
 1014.07 559 1014.07 559 931.566 559 c 0,29,-1
 874.566 559 874.566 559 819.035 573 c 0,32,-1
 773.151 585 773.151 585 658.85 640 c 0,35,-1
 548.194 693 548.194 693 470.194 693 c 0,38,-1
 405.694 693 405.694 693 345.434 666 c 0,41,-1
 282.32 637 282.32 637 185.214 557 c 1,0,-1
EndSplineSet
EndChar
StartChar: exclamdown
Encoding: 161 161 100
Width: 680
Flags: W
HStem: 0 21G<228 452> 1059 20G<256 422> 1278 211<238 442>
VStem: 228 224<0 220.979> 238 204<1278 1489> 256 166<858.021 1079>
Fore
667.346 1278 m 1,0,-1
 463.346 1278 l 1,1,-1
 500.551 1489 l 1,2,-1
 704.551 1489 l 1,3,-1
 667.346 1278 l 1,0,-1
452 0 m 1,4,-1
 228 0 l 1,5,-1
 446.257 1079 l 1,6,-1
 612.257 1079 l 1,7,-1
 452 0 l 1,4,-1
EndSplineSet
EndChar
StartChar: cent
Encoding: 162 162 101
Width: 1118
Flags: W
HStem: 1455 20G<557 671>
VStem: 114 193<394.5 716.9> 557 114<-361 1 146 971 1116 1475>
Fore
557.353 2 m 1,0,-1
 346.938 28 346.938 28 258.152 171 c 0,3,-1
 169.543 315 169.543 315 212.214 557 c 0,6,-1
 254.18 795 254.18 795 398.276 943 c 0,9,-1
 542.373 1091 542.373 1091 753.604 1115 c 1,12,-1
 817.082 1475 l 1,13,-1
 931.082 1475 l 1,14,-1
 867.781 1116 l 1,15,-1
 953.252 1113 953.252 1113 1030.2 1090 c 0,18,-1
 1105.96 1066 1105.96 1066 1157.85 1037 c 1,21,-1
 1122.59 837 l 1,22,-1
 1112.59 837 l 1,23,-1
 1058.75 889 1058.75 889 996.279 926 c 0,26,-1
 932.391 963.5 932.391 963.5 843.271 977 c 1,29,-1
 695.862 141 l 1,30,-1
 742.567 145 742.567 145 798.918 164 c 0,33,-1
 849.092 182 849.092 182 888.618 202 c 0,36,-1
 926.145 222 926.145 222 960.023 244 c 0,39,-1
 984.669 259 984.669 259 1014.55 281 c 1,42,-1
 1024.55 281 l 1,43,-1
 989.635 83 l 1,44,-1
 919.346 53 919.346 53 845.29 30 c 0,47,-1
 766.882 5 766.882 5 671.177 1 c 1,50,-1
 607.346 -361 l 1,51,-1
 493.346 -361 l 1,52,-1
 557.353 2 l 1,0,-1
582.744 146 m 1,53,-1
 728.214 971 l 1,54,-1
 609.511 950 609.511 950 523.173 846 c 0,57,-1
 437.835 742 437.835 742 405.214 557 c 0,60,-1
 371.889 368 371.889 368 423.256 268 c 0,63,-1
 473.271 166 473.271 166 582.744 146 c 1,53,-1
EndSplineSet
EndChar
StartChar: sterling
Encoding: 163 163 102
Width: 1118
Flags: W
HStem: 0 171<261 1031> 613 138<130 291 483 847> 1351 167<620.4 812.8>
VStem: 291 192<474 613 751 1149>
Fore
1031 0 m 1,0,-1
 89 0 l 1,1,-1
 125.5 207 l 1,2,-1
 241.318 240 241.318 240 305.069 335 c 0,5,-1
 366.82 430 366.82 430 399.089 613 c 1,8,-1
 238.089 613 l 1,9,-1
 262.422 751 l 1,10,-1
 423.422 751 l 1,11,-1
 479.846 1071 l 2,12,-1
 515.111 1271 515.111 1271 652.977 1395 c 0,15,-1
 789.664 1518 789.664 1518 975.664 1518 c 0,18,-1
 1074.66 1518 1074.66 1518 1138.84 1502 c 0,21,-1
 1195.55 1489 1195.55 1489 1260.2 1470 c 1,24,-1
 1223.88 1264 l 1,25,-1
 1213.88 1264 l 1,26,-1
 1160.28 1306 1160.28 1306 1096.16 1328 c 0,29,-1
 1028.22 1351 1028.22 1351 965.218 1351 c 0,32,-1
 842.218 1351 842.218 1351 768.641 1274 c 0,35,-1
 694.24 1198 694.24 1198 668.496 1052 c 2,38,-1
 615.422 751 l 1,39,-1
 979.422 751 l 1,40,-1
 955.089 613 l 1,41,-1
 591.089 613 l 1,42,-1
 580.332 552 l 2,43,-1
 559.35 433 559.35 433 483.951 340 c 0,46,-1
 410.023 244 410.023 244 293.092 182 c 1,49,-1
 291.152 171 l 1,50,-1
 1061.15 171 l 1,51,-1
 1031 0 l 1,0,-1
EndSplineSet
EndChar
StartChar: currency
Encoding: 164 164 103
Width: 1118
Flags: W
HStem: 326 138<491.1 626.3> 858 138<493.7 628.9>
VStem: 225 143<592.1 732.5> 752 144<589.5 729.9>
Fore
1104.96 272 m 1,0,-1
 980.271 166 l 1,1,-1
 803.651 378 l 1,2,-1
 756.067 352 756.067 352 712.599 338 c 0,5,-1
 671.482 326 671.482 326 617.482 326 c 0,8,-1
 570.482 326 570.482 326 528.128 341 c 0,11,-1
 486.596 355 486.596 355 451.828 379 c 1,14,-1
 198.918 164 l 1,15,-1
 113.138 273 l 1,16,-1
 362.695 486 l 1,17,-1
 346.866 521 346.866 521 338.859 572 c 0,20,-1
 335.028 624 335.028 624 341.552 661 c 0,23,-1
 348.605 701 348.605 701 370.245 750 c 0,26,-1
 394.532 797 394.532 797 425.233 835 c 1,29,-1
 250.319 1051 l 1,30,-1
 376.011 1157 l 1,31,-1
 552.453 944 l 1,32,-1
 596.861 969 596.861 969 642.153 982 c 0,35,-1
 692.622 996 692.622 996 735.622 996 c 0,38,-1
 788.622 996 788.622 996 830.801 980 c 0,41,-1
 871.332 966 871.332 966 902.629 945 c 1,44,-1
 1152.01 1157 l 1,45,-1
 1242.5 1052 l 1,46,-1
 990.409 836 l 1,47,-1
 1009.83 793 1009.83 793 1015.77 753 c 0,50,-1
 1021.9 714 1021.9 714 1012.55 661 c 0,53,-1
 1004.79 617 1004.79 617 982.506 570 c 0,56,-1
 960.571 525 960.571 525 928.695 486 c 1,59,-1
 1104.96 272 l 1,0,-1
868.552 661 m 0,60,-1
 882.306 739 882.306 739 837.062 800 c 0,63,-1
 789.289 858 789.289 858 711.289 858 c 0,66,-1
 634.289 858 634.289 858 567.062 800 c 0,69,-1
 499.011 743 499.011 743 484.552 661 c 0,72,-1
 470.799 583 470.799 583 516.043 522 c 0,75,-1
 563.815 464 563.815 464 641.815 464 c 0,78,-1
 718.815 464 718.815 464 786.043 522 c 0,81,-1
 854.094 579 854.094 579 868.552 661 c 0,60,-1
EndSplineSet
EndChar
StartChar: yen
Encoding: 165 165 104
Width: 1118
Flags: W
HStem: 0 21G<465 653> 440 138<125 465 653 993>
VStem: 467 184<0 440 578 657>
Fore
1321.55 1489 m 1,0,-1
 770.55 678 l 1,1,-1
 752.917 578 l 1,2,-1
 1094.92 578 l 1,3,-1
 1070.58 440 l 1,4,-1
 730.584 440 l 1,5,-1
 653 0 l 1,6,-1
 465 0 l 1,7,-1
 542.584 440 l 1,8,-1
 202.584 440 l 1,9,-1
 226.917 578 l 1,10,-1
 568.917 578 l 1,11,-1
 582.847 657 l 1,12,-1
 318.551 1489 l 1,13,-1
 528.551 1489 l 1,14,-1
 709.878 850 l 1,15,-1
 1120.55 1489 l 1,16,-1
 1321.55 1489 l 1,0,-1
EndSplineSet
EndChar
StartChar: brokenbar
Encoding: 166 166 105
Width: 783
Flags: W
VStem: 308 167<-392 406 758 1556>
Fore
608.656 758 m 1,0,-1
 441.656 758 l 1,1,-1
 582.365 1556 l 1,2,-1
 749.365 1556 l 1,3,-1
 608.656 758 l 1,0,-1
405.88 -392 m 1,4,-1
 238.88 -392 l 1,5,-1
 379.589 406 l 1,6,-1
 546.589 406 l 1,7,-1
 405.88 -392 l 1,4,-1
EndSplineSet
EndChar
StartChar: section
Encoding: 167 167 106
Width: 1118
Flags: W
HStem: -385 165<391.233 609.091> 1355 164<507.927 720.629>
VStem: 119 189<503.28 615.722> 148 192<1103.12 1252.7> 776 193<-90.4251 36.2955> 810 188<507.4 629.787>
Fore
829.707 401 m 0,0,-1
 861.055 437 861.055 437 878.521 468 c 0,3,-1
 897.987 499 897.987 499 907.861 555 c 0,6,-1
 916.325 603 916.325 603 908.85 640 c 0,9,-1
 899.373 677 899.373 677 879.253 699 c 0,12,-1
 860.132 721 860.132 721 830.129 738 c 0,15,-1
 805.422 751 805.422 751 761.066 766 c 0,18,-1
 729.83 776 729.83 776 687.945 788 c 2,21,-1
 594.412 819 l 1,22,-1
 572.796 807 572.796 807 547.122 789 c 0,25,-1
 521.771 770 521.771 770 491.129 738 c 0,28,-1
 469.074 715 469.074 715 441.786 668 c 0,31,-1
 417.676 622 417.676 622 410.094 579 c 0,34,-1
 395.987 499 395.987 499 425.347 450 c 0,37,-1
 453.884 402 453.884 402 557.064 369 c 2,40,-1
 631.009 346 l 1,41,-1
 722.543 315 l 1,42,-1
 740.307 325 740.307 325 772.361 348 c 0,45,-1
 800.889 368 800.889 368 829.707 401 c 0,0,-1
158.549 -133 m 1,48,-1
 166.667 -138 166.667 -138 217.435 -162 c 0,51,-1
 247.967 -176 247.967 -176 287.498 -190 c 0,54,-1
 336.5 -207 336.5 -207 370.619 -212 c 0,57,-1
 405.208 -220 405.208 -220 470.208 -220 c 0,60,-1
 581.208 -220 581.208 -220 669.319 -174 c 0,63,-1
 753.959 -125 753.959 -125 769.652 -36 c 0,66,-1
 779.174 18 779.174 18 767.169 52 c 0,69,-1
 753.164 86 753.164 86 717.572 111 c 0,72,-1
 680.98 136 680.98 136 621.154 154 c 2,75,-1
 493.854 192 l 2,76,-1
 408.439 218 408.439 218 356.848 243 c 0,79,-1
 302.256 268 302.256 268 263.014 312 c 0,82,-1
 225.891 351 225.891 351 212.765 407 c 0,85,-1
 200.11 460 200.11 460 212.982 533 c 0,88,-1
 229.557 627 229.557 627 293.545 712 c 0,91,-1
 358.532 797 358.532 797 469.288 858 c 1,94,-1
 470.522 865 l 1,95,-1
 389.163 914 389.163 914 361.858 986 c 0,98,-1
 334.201 1056 334.201 1056 350.247 1147 c 0,101,-1
 379.87 1315 379.87 1315 525.855 1417 c 0,104,-1
 671.841 1519 671.841 1519 895.841 1519 c 0,107,-1
 983.841 1519 983.841 1519 1050.55 1506 c 0,110,-1
 1126.9 1491 1126.9 1491 1203.79 1462 c 1,113,-1
 1169.58 1268 l 1,114,-1
 1159.58 1268 l 1,115,-1
 1077.52 1313 1077.52 1313 1003.22 1334 c 0,118,-1
 930.923 1355 930.923 1355 845.923 1355 c 0,121,-1
 733.423 1355 733.423 1355 648.988 1310 c 0,124,-1
 562.877 1264 562.877 1264 547.36 1176 c 0,127,-1
 537.486 1120 537.486 1120 550.962 1083 c 0,130,-1
 565.438 1046 565.438 1046 600.559 1024 c 0,133,-1
 634.503 1001 634.503 1001 692.977 981 c 0,136,-1
 747.627 962 747.627 962 823.1 942 c 0,139,-1
 996.46 893 996.46 893 1063.53 814 c 0,142,-1
 1127.51 734.5 1127.51 734.5 1103.97 601 c 0,145,-1
 1084.93 493 1084.93 493 1016.65 412 c 0,148,-1
 946.188 330 946.188 330 847.843 277 c 1,151,-1
 846.608 270 l 1,152,-1
 926.321 223 926.321 223 955.154 154 c 0,155,-1
 983.635 83 983.635 83 967.236 -10 c 0,158,-1
 954.541 -82 954.541 -82 910.669 -155 c 0,161,-1
 863.798 -228 863.798 -228 799.687 -274 c 0,164,-1
 727.165 -328 727.165 -328 637.228 -356 c 0,167,-1
 543.114 -385 543.114 -385 422.114 -385 c 0,170,-1
 346.114 -385 346.114 -385 267.583 -371 c 0,173,-1
 193.875 -358 193.875 -358 114.341 -327 c 1,176,-1
 148.549 -133 l 1,177,-1
 158.549 -133 l 1,48,-1
EndSplineSet
EndChar
StartChar: dieresis
Encoding: 168 168 107
Width: 1118
Flags: W
HStem: 1304 195<253 454 666 867>
VStem: 253 201<1304 1499> 666 201<1304 1499>
Fore
1096.93 1304 m 1,0,-1
 895.931 1304 l 1,1,-1
 930.314 1499 l 1,2,-1
 1131.31 1499 l 1,3,-1
 1096.93 1304 l 1,0,-1
683.931 1304 m 1,4,-1
 482.931 1304 l 1,5,-1
 517.314 1499 l 1,6,-1
 718.314 1499 l 1,7,-1
 683.931 1304 l 1,4,-1
EndSplineSet
EndChar
StartChar: copyright
Encoding: 169 169 108
Width: 1902
Flags: W
HStem: -210 110<682.9 1221.1> 180 147<872.9 1072.79> 996 147<879.4 1066.8> 1409 110<682.9 1221.1>
VStem: 86 117<383.3 926.7> 531 185<519.6 809.5> 1701 115<383.3 926.7>
Fore
1931.49 655 m 0,0,-1
 1868.02 295 1868.02 295 1569.76 44 c 0,3,-1
 1273.97 -210 1273.97 -210 913.972 -210 c 0,6,-1
 553.972 -210 553.972 -210 347.759 44 c 0,9,-1
 138.017 295 138.017 295 201.494 655 c 0,12,-1
 264.619 1013 264.619 1013 563.23 1266 c 0,15,-1
 859.841 1519 859.841 1519 1218.84 1519 c 0,18,-1
 1577.84 1519 1577.84 1519 1785.23 1266 c 0,21,-1
 1994.62 1013 1994.62 1013 1931.49 655 c 0,0,-1
1816.49 655 m 0,24,-1
 1871.86 969 1871.86 969 1691.48 1188 c 0,27,-1
 1510.44 1409 1510.44 1409 1200.44 1409 c 0,30,-1
 890.444 1409 890.444 1409 631.477 1188 c 0,33,-1
 373.861 969 373.861 969 318.494 655 c 0,36,-1
 263.216 341.5 263.216 341.5 443.336 121 c 0,39,-1
 625.367 -100 625.367 -100 934.367 -100 c 0,42,-1
 1243.37 -100 1243.37 -100 1503.34 121 c 0,45,-1
 1761.22 341.5 1761.22 341.5 1816.49 655 c 0,24,-1
1318.96 255 m 1,48,-1
 1254.2 228 1254.2 228 1175.62 202 c 0,51,-1
 1100.74 180 1100.74 180 1013.74 180 c 0,54,-1
 804.739 180 804.739 180 705.604 304 c 0,57,-1
 606.115 426 606.115 426 647.376 660 c 0,60,-1
 687.755 889 687.755 889 835.148 1016 c 0,63,-1
 981.542 1143 981.542 1143 1183.54 1143 c 0,66,-1
 1267.54 1143 1267.54 1143 1338.66 1121 c 0,69,-1
 1409.78 1099 1409.78 1099 1462.67 1070 c 1,72,-1
 1430.75 889 l 1,73,-1
 1414.75 889 l 1,74,-1
 1378.28 926 1378.28 926 1308.63 962 c 0,77,-1
 1235.62 996 1235.62 996 1161.62 996 c 0,80,-1
 1037.62 996 1037.62 996 951.163 914 c 0,83,-1
 862.881 833 862.881 833 832.376 660 c 0,86,-1
 803.811 498 803.811 498 858.646 412 c 0,89,-1
 914.659 327 914.659 327 1043.66 327 c 0,92,-1
 1128.66 327 1128.66 327 1209.18 364 c 0,95,-1
 1292.71 401 1292.71 401 1334.53 434 c 1,98,-1
 1350.53 434 l 1,99,-1
 1318.96 255 l 1,48,-1
EndSplineSet
EndChar
StartChar: ordfeminine
Encoding: 170 170 109
Width: 1010
Flags: W
HStem: 541 155<381.049 518.441> 1030.26 132.744<389.974 751.319> 1365 154<379.788 595.933>
VStem: 114 172<784 913.86> 708 166<566 657 802 1045 1184 1257.94>
Fore
973.801 566 m 1,0,-1
 807.801 566 l 1,1,-1
 823.847 657 l 1,2,-1
 765.97 618 l 2,3,-1
 726.562 593 726.562 593 696.446 581 c 0,6,-1
 650.92 561 650.92 561 611.332 552 c 0,9,-1
 572.393 541 572.393 541 499.393 541 c 0,12,-1
 375.393 541 375.393 541 307.028 624 c 0,15,-1
 239.016 709 239.016 709 261.938 839 c 0,18,-1
 280.453 944 280.453 944 334.737 1008 c 0,21,-1
 390.552 1075 390.552 1075 476.075 1112 c 0,24,-1
 557.424 1148 557.424 1148 674.068 1163 c 0,27,-1
 790.713 1178 790.713 1178 916.771 1184 c 1,30,-1
 920.121 1203 l 2,31,-1
 928.938 1253 928.938 1253 918.933 1287 c 0,34,-1
 905.752 1320 905.752 1320 878.749 1337 c 0,37,-1
 851.747 1354 851.747 1354 810.805 1360 c 0,40,-1
 763.687 1365 763.687 1365 722.687 1365 c 0,43,-1
 645.687 1365 645.687 1365 560.631 1342 c 0,46,-1
 485.928 1321 485.928 1321 433.931 1304 c 1,49,-1
 418.931 1304 l 1,50,-1
 448.906 1474 l 1,51,-1
 484.846 1485 484.846 1485 585.02 1503 c 0,54,-1
 673.841 1519 673.841 1519 750.841 1519 c 0,57,-1
 943.841 1519 943.841 1519 1028.26 1442 c 0,60,-1
 1115.04 1367 1115.04 1367 1084.53 1194 c 2,63,-1
 973.801 566 l 1,0,-1
849.414 802 m 1,64,-1
 892.262 1045 l 1,65,-1
 822.38 1040 822.38 1040 739.146 1033 c 0,68,-1
 653.911 1026 653.911 1026 598.09 1010 c 0,71,-1
 536.27 994 536.27 994 491.216 954 c 0,74,-1
 447.691 917 447.691 917 435.701 849 c 0,77,-1
 422.478 774 422.478 774 459.601 735 c 0,80,-1
 496.724 696 496.724 696 583.724 696 c 0,83,-1
 658.724 696 658.724 696 726.542 729 c 0,86,-1
 795.714 764 795.714 764 849.414 802 c 1,64,-1
EndSplineSet
EndChar
StartChar: guillemotleft
Encoding: 171 171 110
Width: 1174
Flags: W
HStem: 162 980<613 613>
VStem: 103 940<191 608>
Fore
1076.68 191 m 1,0,-1
 662.56 610 l 1,1,-1
 677.547 695 l 1,2,-1
 1239.25 1113 l 1,3,-1
 1206.1 925 l 1,4,-1
 840.965 652 l 1,5,-1
 1109.83 379 l 1,6,-1
 1076.68 191 l 1,0,-1
641.564 162 m 1,7,-1
 210.207 608 l 1,8,-1
 225.9 697 l 1,9,-1
 814.365 1142 l 1,10,-1
 779.806 946 l 1,11,-1
 396.965 652 l 1,12,-1
 676.125 358 l 1,13,-1
 641.564 162 l 1,7,-1
EndSplineSet
EndChar
StartChar: logicalnot
Encoding: 172 172 111
Width: 1490
Flags: W
HStem: 602 160<157 1152>
VStem: 1152 171<57 602>
Fore
1333.05 57 m 1,0,-1
 1162.05 57 l 1,1,-1
 1258.15 602 l 1,2,-1
 263.148 602 l 1,3,-1
 291.361 762 l 1,4,-1
 1457.36 762 l 1,5,-1
 1333.05 57 l 1,0,-1
EndSplineSet
EndChar
StartChar: registered
Encoding: 174 174 113
Width: 1902
Flags: W
HStem: -210 110<682.9 1221.1> 570 126<815 938> 1005 125<815 1032.72> 1409 110<682.9 1221.1>
VStem: 86 117<383.3 926.7> 650 165<215 570 696 1005> 1120 182<793.085 929.294> 1701 115<383.3 926.7>
Fore
1931.49 655 m 0,0,-1
 1868.02 295 1868.02 295 1569.76 44 c 0,3,-1
 1273.97 -210 1273.97 -210 913.972 -210 c 0,6,-1
 553.972 -210 553.972 -210 347.759 44 c 0,9,-1
 138.017 295 138.017 295 201.494 655 c 0,12,-1
 264.619 1013 264.619 1013 563.23 1266 c 0,15,-1
 859.841 1519 859.841 1519 1218.84 1519 c 0,18,-1
 1577.84 1519 1577.84 1519 1785.23 1266 c 0,21,-1
 1994.62 1013 1994.62 1013 1931.49 655 c 0,0,-1
1816.49 655 m 0,24,-1
 1871.86 969 1871.86 969 1691.48 1188 c 0,27,-1
 1510.44 1409 1510.44 1409 1200.44 1409 c 0,30,-1
 890.444 1409 890.444 1409 631.477 1188 c 0,33,-1
 373.861 969 373.861 969 318.494 655 c 0,36,-1
 263.216 341.5 263.216 341.5 443.336 121 c 0,39,-1
 625.367 -100 625.367 -100 934.367 -100 c 0,42,-1
 1243.37 -100 1243.37 -100 1503.34 121 c 0,45,-1
 1761.22 341.5 1761.22 341.5 1816.49 655 c 0,24,-1
1485.91 215 m 1,48,-1
 1258.91 215 l 1,49,-1
 1038.51 570 l 1,50,-1
 915.506 570 l 1,51,-1
 852.91 215 l 1,52,-1
 687.91 215 l 1,53,-1
 849.25 1130 l 1,54,-1
 1128.25 1130 l 2,55,-1
 1225.25 1130 1225.25 1130 1276.02 1123 c 0,58,-1
 1329.6 1115 1329.6 1115 1379.14 1084 c 0,61,-1
 1432.97 1049 1432.97 1049 1451.68 1002 c 0,64,-1
 1470.22 954 1470.22 954 1456.99 879 c 0,67,-1
 1439.18 778 1439.18 778 1372.07 715 c 0,70,-1
 1307.96 652 1307.96 652 1210.44 615 c 1,73,-1
 1485.91 215 l 1,48,-1
1273.05 868 m 0,74,-1
 1279.58 905 1279.58 905 1272.34 932 c 0,77,-1
 1264.92 958 1264.92 958 1238.45 978 c 0,80,-1
 1216.27 994 1216.27 994 1186.33 1000 c 0,83,-1
 1152.21 1005 1152.21 1005 1107.21 1005 c 2,86,-1
 992.209 1005 l 1,87,-1
 937.724 696 l 1,88,-1
 1035.72 696 l 2,89,-1
 1085.72 696 1085.72 696 1127.49 706 c 0,92,-1
 1171.07 715 1171.07 715 1201.13 738 c 0,95,-1
 1232.36 762 1232.36 762 1247.47 791 c 0,98,-1
 1264.76 821 1264.76 821 1273.05 868 c 0,74,-1
EndSplineSet
EndChar
StartChar: macron
Encoding: 175 175 114
Width: 1118
Flags: W
HStem: 1659 130<-16 1134>
Fore
1426.53 1659 m 1,0,-1
 276.526 1659 l 1,1,-1
 299.449 1789 l 1,2,-1
 1449.45 1789 l 1,3,-1
 1426.53 1659 l 1,0,-1
EndSplineSet
EndChar
StartChar: degree
Encoding: 176 176 115
Width: 964
Flags: W
HStem: 755 152<401.4 565.2> 1363 152<398.8 565.2>
VStem: 101 157<1050.5 1218.2> 706 157<1053.1 1218.2>
Fore
1063.13 1135 m 0,0,-1
 1034.92 975 1034.92 975 905.522 865 c 0,3,-1
 776.127 755 776.127 755 615.127 755 c 0,6,-1
 455.127 755 455.127 755 364.347 864 c 0,9,-1
 272.742 974 272.742 974 301.131 1135 c 0,12,-1
 329.344 1295 329.344 1295 458.739 1405 c 0,15,-1
 588.136 1515 588.136 1515 749.136 1515 c 0,18,-1
 910.136 1515 910.136 1515 1000.74 1405 c 0,21,-1
 1091.34 1295 1091.34 1295 1063.13 1135 c 0,0,-1
906.131 1135 m 0,24,-1
 923.234 1232 923.234 1232 870.696 1297 c 0,27,-1
 818.334 1363 818.334 1363 722.334 1363 c 0,30,-1
 626.334 1363 626.334 1363 550.696 1297 c 0,33,-1
 475.234 1232 475.234 1232 458.131 1135 c 0,36,-1
 440.675 1036 440.675 1036 495.39 972 c 0,39,-1
 548.929 907 548.929 907 641.929 907 c 0,42,-1
 737.929 907 737.929 907 813.742 974 c 0,45,-1
 889.204 1039 889.204 1039 906.131 1135 c 0,24,-1
EndSplineSet
EndChar
StartChar: plusminus
Encoding: 177 177 116
Width: 1490
Flags: W
HStem: 159 158<162 662 828 1328> 739 158<162 662 828 1328>
VStem: 662 166<317 739 897 1402>
Fore
1356.04 159 m 1,0,-1
 190.036 159 l 1,1,-1
 217.896 317 l 1,2,-1
 717.896 317 l 1,3,-1
 792.306 739 l 1,4,-1
 292.306 739 l 1,5,-1
 320.165 897 l 1,6,-1
 820.165 897 l 1,7,-1
 909.211 1402 l 1,8,-1
 1075.21 1402 l 1,9,-1
 986.165 897 l 1,10,-1
 1486.17 897 l 1,11,-1
 1458.31 739 l 1,12,-1
 958.306 739 l 1,13,-1
 883.896 317 l 1,14,-1
 1383.9 317 l 1,15,-1
 1356.04 159 l 1,0,-1
EndSplineSet
EndChar
StartChar: uni00B2
Encoding: 178 178 117
Width: 1010
Flags: W
HStem: 566 144<373 866> 1371 148<377.984 527.709>
VStem: 619 185<1153.87 1288.38>
Fore
965.801 566 m 1,0,-1
 284.801 566 l 1,1,-1
 311.603 718 l 1,2,-1
 478.704 832 l 2,3,-1
 560.226 886 560.226 886 610.808 929 c 0,6,-1
 733.617 1030 733.617 1030 777.844 1088 c 0,9,-1
 821.07 1146 821.07 1146 835.354 1227 c 0,12,-1
 847.344 1295 847.344 1295 811.221 1334 c 0,15,-1
 772.744 1371 772.744 1371 698.744 1371 c 0,18,-1
 628.744 1371 628.744 1371 554.454 1341 c 0,21,-1
 479.341 1312 479.341 1312 431.522 1279 c 1,24,-1
 416.522 1279 l 1,25,-1
 448.085 1458 l 1,26,-1
 517.021 1486 517.021 1486 594.843 1502 c 0,29,-1
 677.841 1519 677.841 1519 748.841 1519 c 0,32,-1
 905.841 1519 905.841 1519 973.911 1440 c 0,35,-1
 1044.16 1362 1044.16 1362 1022.47 1239 c 0,38,-1
 1007.3 1153 1007.3 1153 953.728 1076 c 0,41,-1
 901.975 998 901.975 998 775.694 900 c 0,44,-1
 720.289 858 720.289 858 637.414 802 c 2,47,-1
 498.192 710 l 1,48,-1
 991.192 710 l 1,49,-1
 965.801 566 l 1,0,-1
EndSplineSet
EndChar
StartChar: uni00B3
Encoding: 179 179 118
Width: 1010
Flags: W
HStem: 542 139<378.14 553.376> 968 139<334 521.018> 1380 139<394.157 554.152>
VStem: 641 173<1205.6 1303.04> 665 172<763.6 888.4>
Fore
982.999 828 m 0,0,-1
 970.479 757 970.479 757 930.429 700 c 0,3,-1
 890.555 644 890.555 644 836.735 611 c 0,6,-1
 779.388 575 779.388 575 712.391 558 c 0,9,-1
 651.569 542 651.569 542 569.569 542 c 0,12,-1
 487.569 542 487.569 542 418.214 557 c 0,15,-1
 346.035 573 346.035 573 289.796 600 c 1,18,-1
 320.653 775 l 1,19,-1
 337.653 775 l 1,20,-1
 369.482 740 369.482 740 440.192 710 c 0,23,-1
 513.079 681 513.079 681 591.079 681 c 0,26,-1
 675.079 681 675.079 681 736.603 718 c 0,29,-1
 797.95 754 797.95 754 810.646 826 c 0,32,-1
 823.342 898 823.342 898 786.513 933 c 0,35,-1
 746.685 968 746.685 968 644.685 968 c 2,38,-1
 504.685 968 l 1,39,-1
 529.194 1107 l 1,40,-1
 654.194 1107 l 2,41,-1
 740.194 1107 740.194 1107 795.895 1145 c 0,44,-1
 849.595 1183 849.595 1183 861.232 1249 c 0,47,-1
 871.812 1309 871.812 1309 836.983 1344 c 0,50,-1
 803.331 1380 803.331 1380 715.331 1380 c 0,53,-1
 647.331 1380 647.331 1380 567.865 1349 c 0,56,-1
 487.575 1319 487.575 1319 442.228 1283 c 1,59,-1
 425.228 1283 l 1,60,-1
 456.085 1458 l 1,61,-1
 529.021 1486 529.021 1486 602.843 1502 c 0,64,-1
 682.841 1519 682.841 1519 759.841 1519 c 0,67,-1
 911.841 1519 911.841 1519 984.498 1449 c 0,70,-1
 1057.16 1379 1057.16 1379 1039.88 1281 c 0,73,-1
 1024.53 1194 1024.53 1194 966.66 1138 c 0,76,-1
 906.434 1080 906.434 1080 826.025 1055 c 1,79,-1
 824.614 1047 l 1,80,-1
 904.617 1030 904.617 1030 950.095 976 c 0,83,-1
 999.75 923 999.75 923 982.999 828 c 0,0,-1
EndSplineSet
EndChar
StartChar: acute
Encoding: 180 180 119
Width: 1118
Flags: W
HStem: 1302 374<598 871>
VStem: 449 422<1302 1676>
Fore
1166.52 1676 m 1,0,-1
 827.578 1302 l 1,1,-1
 678.578 1302 l 1,2,-1
 923.524 1676 l 1,3,-1
 1166.52 1676 l 1,0,-1
EndSplineSet
EndChar
StartChar: mu
Encoding: 181 181 120
Width: 1163
Flags: W
HStem: -17 181<489.251 666.626>
VStem: 136 188<-412 115 275 1117> 839 188<275 1117> 855 172<0 116>
Fore
1027 0 m 1,0,-1
 855 0 l 1,1,-1
 875.454 116 l 1,2,-1
 869.454 116 l 1,3,-1
 795.992 51 795.992 51 731.174 18 c 0,6,-1
 664.002 -17 664.002 -17 575.002 -17 c 0,9,-1
 483.002 -17 483.002 -17 436.174 18 c 0,12,-1
 389.346 53 389.346 53 344.277 115 c 1,15,-1
 251.354 -412 l 1,16,-1
 63.3535 -412 l 1,17,-1
 332.957 1117 l 1,18,-1
 520.957 1117 l 1,19,-1
 372.49 275 l 1,20,-1
 405.762 225.5 405.762 225.5 463.207 194 c 0,23,-1
 520.918 164 520.918 164 606.918 164 c 0,26,-1
 694.918 164 694.918 164 764.031 193 c 0,29,-1
 829.145 222 829.145 222 887.49 275 c 1,32,-1
 1035.96 1117 l 1,33,-1
 1223.96 1117 l 1,34,-1
 1027 0 l 1,0,-1
EndSplineSet
EndChar
StartChar: paragraph
Encoding: 182 182 121
Width: 1118
Flags: W
HStem: 1359 130<655 842>
VStem: 515 140<-363 593> 842 140<-363 1359>
Fore
917.993 -363 m 1,0,-1
 777.993 -363 l 1,1,-1
 1081.63 1359 l 1,2,-1
 894.628 1359 l 1,3,-1
 590.993 -363 l 1,4,-1
 450.993 -363 l 1,5,-1
 619.562 593 l 1,6,-1
 414.443 598 414.443 598 310.308 722 c 0,9,-1
 206.173 846 206.173 846 242.144 1050 c 0,12,-1
 278.819 1258 278.819 1258 429.097 1373 c 0,15,-1
 580.551 1489 580.551 1489 822.551 1489 c 2,18,-1
 1244.55 1489 l 1,19,-1
 917.993 -363 l 1,0,-1
EndSplineSet
EndChar
StartChar: periodcentered
Encoding: 183 183 122
Width: 724
Flags: W
HStem: 832 285<243 482>
VStem: 243 239<832 1117>
Fore
628.704 832 m 1,0,-1
 389.704 832 l 1,1,-1
 439.957 1117 l 1,2,-1
 678.957 1117 l 1,3,-1
 628.704 832 l 1,0,-1
EndSplineSet
EndChar
StartChar: cedilla
Encoding: 184 184 123
Width: 1118
Flags: W
HStem: -423 150<364.259 524.825>
VStem: 614 159<-185.915 -8.19973>
Fore
770.526 20 m 1,0,-1
 769.177 1 769.177 1 765.416 -26 c 0,3,-1
 763.654 -53 763.654 -53 757.307 -89 c 0,6,-1
 728.565 -252 728.565 -252 626.578 -337 c 0,9,-1
 523.414 -423 523.414 -423 391.414 -423 c 0,12,-1
 353.914 -423 353.914 -423 305.472 -417 c 0,15,-1
 257.029 -411 257.029 -411 218.646 -399 c 1,18,-1
 246.857 -239 l 1,19,-1
 255.857 -239 l 1,20,-1
 281.742 -251 281.742 -251 314.803 -262 c 0,23,-1
 353.862 -273 353.862 -273 391.862 -273 c 0,26,-1
 485.862 -273 485.862 -273 532.739 -234 c 0,29,-1
 579.793 -194 579.793 -194 595.133 -107 c 0,32,-1
 601.48 -71 601.48 -71 604.184 -50 c 0,35,-1
 608.179 -16 608.179 -16 613.526 20 c 1,38,-1
 770.526 20 l 1,0,-1
EndSplineSet
EndChar
StartChar: uni0E01
Encoding: 3585 3585 124
Width: 1376
VWidth: 2045
Flags: MW
HStem: 0 21G<241 421 998 1178> 744 178<422 512> 1101 178<603.282 712.464 566.036 714>
VStem: 241 181<0 744> 998 180<0 933.371>
Fore
232.188 744 m 1,0,-1
 372.188 744 l 1,1,-1
490.573 922 m 9,2,-1
 674.573 922 l 1,3,-1
 643.188 744 l 1,4,-1
 553.188 744 l 1,5,-1
 421 0 l 1,6,-1
 241 0 l 1,7,-1
 372.188 744 l 1,8,-1
 232.188 744 l 1,9,10
 258.099 890.948 258.099 890.948 350.835 1012.13 c 128,-1,11
 443.568 1133.3 443.568 1133.3 581.082 1206.15 c 128,-1,12
 718.594 1279 718.594 1279 864.522 1279 c 0,13,14
 1011.45 1279 1011.45 1279 1122.41 1206.71 c 128,-1,15
 1233.38 1134.42 1233.38 1134.42 1284.12 1012.05 c 128,-1,16
 1334.87 889.67 1334.87 889.67 1309.19 744 c 2,17,-1
 1178 0 l 1,18,-1
 998 0 l 1,19,-1
 1129.19 744 l 2,20,21
 1155.28 892 1155.28 892 1069.21 996.5 c 128,-1,22
 983.136 1101 983.136 1101 833.136 1101 c 0,23,24
 761.699 1101 761.699 1101 696.422 1078.1 c 128,-1,25
 631.144 1055.19 631.144 1055.19 578.207 1009.53 c 128,-1,26
 525.269 963.858 525.269 963.858 490.573 922 c 9,2,-1
EndSplineSet
EndChar
StartChar: uni0E02
Encoding: 3586 3586 125
Width: 1352
VWidth: 2045
Flags: W
HStem: 0 178<382 470 651 973> 689 133<264.6 363.4> 1091 178<449 545.2>
VStem: 89 134<863.9 958.8> 403 136<865.2 958.8> 470 180<178 625.5> 629 180<780.3 1009.1> 973 180<178 1254>
Fore
641.373 1091 m 5,0,-1
 661.493 1069 l 6,1,2
 715.855 1003 715.855 1003 699.634 911 c 4,3,4
 683.235 818 683.235 818 604.95 754 c 4,5,6
 528.489 689 528.489 689 434.489 689 c 132,-1,7
 340.489 689 340.489 689 286.95 754 c 132,-1,8
 233.412 819 233.412 819 254.571 939 c 132,-1,9
 275.73 1059 275.73 1059 399.244 1164 c 132,-1,10
 522.759 1269 522.759 1269 672.759 1269 c 4,11,12
 821.759 1269 821.759 1269 908.656 1163.5 c 132,-1,13
 995.554 1058 995.554 1058 968.399 904 c 4,14,15
 941.069 749 941.069 749 847.903 671.5 c 132,-1,16
 754.738 594 754.738 594 736.224 489 c 6,17,-1
 682.387 178 l 5,18,-1
 1004.39 178 l 5,19,-1
 1194.11 1254 l 5,20,-1
 1374.11 1254 l 5,21,-1
 1153 0 l 5,22,-1
 382 0 l 5,23,-1
 413.386 178 l 5,24,-1
 501.386 178 l 5,25,-1
 556.224 489 l 6,26,27
 584.789 651 584.789 651 678.042 729 c 132,-1,28
 771.296 807 771.296 807 786.989 896 c 4,29,30
 802.329 983 802.329 983 758.852 1037 c 132,-1,31
 715.373 1091 715.373 1091 641.373 1091 c 5,0,-1
383.811 912 m 4,32,33
 377.286 875 377.286 875 399.525 848 c 4,34,35
 420.94 822 420.94 822 458.94 822 c 132,-1,36
 496.94 822 496.94 822 526.525 848 c 4,37,38
 557.463 876 557.463 876 563.811 912 c 132,-1,39
 570.158 948 570.158 948 548.742 974 c 132,-1,40
 527.327 1000 527.327 1000 490.327 1000 c 4,41,42
 454.327 1000 454.327 1000 421.742 974 c 4,43,44
 390.158 948 390.158 948 383.811 912 c 4,32,33
EndSplineSet
EndChar
StartChar: uni0E03
Encoding: 3587 3587 126
Width: 1376
VWidth: 2045
Flags: W
HStem: 0 178<433 524 704 1026> 586 133<225.5 317.8>
VStem: 29 152<760.9 867> 361 136<762.2 854.5> 524 180<178 568.8> 681 180<806.4 991> 1026 180<178 1254>
Fore
402.972 1015 m 1,0,1
 434.911 1026 434.911 1026 462.44 1029 c 0,2,3
 533.146 1033 533.146 1033 595.654 973.5 c 128,-1,4
 658.163 914 658.163 914 640.706 815 c 128,-1,5
 623.25 716 623.25 716 544.789 651 c 128,-1,6
 466.327 586 466.327 586 374.327 586 c 0,7,8
 277.327 586 277.327 586 219.229 662 c 128,-1,9
 161.129 738 161.129 738 181.875 867 c 0,10,11
 209.206 1022 209.206 1022 301.396 1128 c 128,-1,12
 393.588 1234 393.588 1234 532.819 1258 c 1,13,-1
 660.185 1175 l 1,14,-1
 822.643 1257 l 1,15,16
 912.234 1232 912.234 1232 981.247 1147 c 128,-1,17
 1050.26 1062 1050.26 1062 1020.22 903 c 0,18,19
 993.714 764 993.714 764 895.965 652 c 128,-1,20
 798.217 540 798.217 540 782.289 444 c 2,21,-1
 735.387 178 l 1,22,-1
 1057.39 178 l 1,23,-1
 1247.11 1254 l 1,24,-1
 1427.11 1254 l 1,25,-1
 1206 0 l 1,26,-1
 433 0 l 1,27,-1
 464.386 178 l 1,28,-1
 555.387 178 l 1,29,-1
 602.289 444 l 2,30,31
 628.738 594 628.738 594 727.868 711 c 128,-1,32
 826.999 828 826.999 828 839.694 900 c 0,33,34
 852.037 970 852.037 970 824.618 1021.5 c 128,-1,35
 797.199 1073 797.199 1073 746.96 1100 c 1,36,-1
 634.732 1042 l 1,37,-1
 539.488 1103 l 1,38,39
 447.431 1097 447.431 1097 402.972 1015 c 1,0,1
323.648 809 m 0,40,41
 317.124 772 317.124 772 339.952 745.5 c 128,-1,42
 362.779 719 362.779 719 397.779 719 c 0,43,44
 433.779 719 433.779 719 465.54 746 c 128,-1,45
 497.301 773 497.301 773 503.648 809 c 0,46,47
 509.82 844 509.82 844 488.492 870.5 c 128,-1,48
 467.165 897 467.165 897 429.165 897 c 0,49,50
 392.165 897 392.165 897 361.081 871 c 128,-1,51
 329.996 845 329.996 845 323.648 809 c 0,40,41
EndSplineSet
EndChar
StartChar: uni0E04
Encoding: 3588 3588 127
Width: 1407
VWidth: 2045
Flags: MW
HStem: 0 21G<161 341 1040 1220> 463 133<640.5 734.1> 774 133<637.9 735.4> 1101 178<617.5 764 617.5 765>
VStem: 161 180<332 940.556> 776 136<636.25 733.1> 1040 180<0 933.15>
Fore
341 0 m 1,0,-1
 161 0 l 1,1,-1
 292.188 744 l 2,2,3
 320.808 906.315 320.808 906.315 408.97 1020.66 c 128,-1,4
 497.131 1135 497.131 1135 633.326 1207 c 128,-1,5
 769.522 1279 769.522 1279 916.522 1279 c 4,6,7
 1062.52 1279 1062.52 1279 1174.24 1206.5 c 128,-1,8
 1285.96 1134 1285.96 1134 1331.4 1011.75 c 128,-1,9
 1376.84 889.5 1376.84 889.5 1351.19 744 c 2,10,-1
 1220 0 l 1,11,-1
 1040 0 l 1,12,-1
 1171.01 743 l 2,13,14
 1198.86 900.953 1198.86 900.953 1116 1000.98 c 128,-1,15
 1033.14 1101 1033.14 1101 885.136 1101 c 4,16,17
 733.136 1101 733.136 1101 615.992 998.099 c 128,-1,18
 498.848 895.197 498.848 895.197 472.188 744 c 2,19,-1
 399.541 332 l 1,20,-1
 619.358 779 l 2,21,22
 630.784 802.234 630.784 802.234 694.112 857 c 0,23,24
 751.929 907 751.929 907 845.929 907 c 128,-1,25
 939.929 907 939.929 907 994.556 842.5 c 128,-1,26
 1049.18 778 1049.18 778 1032.78 685 c 0,27,28
 1016.74 594 1016.74 594 937.101 528 c 128,-1,29
 857.463 462 857.463 462 767.64 463 c 0,30,31
 673.64 463 673.64 463 625.101 528 c 1,32,-1
 341 0 l 1,0,-1
716.784 685 m 0,33,34
 710.172 647.5 710.172 647.5 733.131 621.75 c 128,-1,35
 756.091 596 756.091 596 791.091 596 c 0,36,37
 828.091 596 828.091 596 859.131 621.75 c 128,-1,38
 890.172 647.5 890.172 647.5 896.784 685 c 0,39,40
 903.309 722 903.309 722 881.893 748 c 128,-1,41
 860.477 774 860.477 774 822.477 774 c 0,42,43
 785.477 774 785.477 774 754.393 748 c 128,-1,44
 723.309 722 723.309 722 716.784 685 c 0,33,34
EndSplineSet
EndChar
StartChar: uni0E05
Encoding: 3589 3589 128
Width: 1426
VWidth: 2045
Flags: W
HStem: 0 21G<166 346 1066 1246> 429 134<654.2 749.1> 742 134<654.2 749.1>
VStem: 166 178<314 983.6> 791 136<605.2 700.1> 1066 180<0 970>
Fore
1160.11 1254 m 1,0,1
 1289.88 1230 1289.88 1230 1355.58 1112 c 128,-1,2
 1421.27 994 1421.27 994 1391.47 825 c 6,3,-1
 1246 0 l 1,4,-1
 1066 0 l 1,5,-1
 1211.12 823 l 6,6,7
 1237.04 970 1237.04 970 1205.68 1010.5 c 128,-1,8
 1174.32 1051 1174.32 1051 1128.55 1075 c 1,9,-1
 870.455 927 l 1,10,-1
 674.022 1072 l 1,11,12
 630.317 1068 630.317 1068 570.649 1007.5 c 128,-1,13
 510.981 947 510.981 947 489.47 825 c 2,14,-1
 399.366 314 l 1,15,-1
 628.54 746 l 2,16,17
 649.593 786 649.593 786 709.027 831 c 128,-1,18
 768.463 876 768.463 876 858.463 876 c 128,-1,19
 948.463 876 948.463 876 1003.5 811 c 128,-1,20
 1058.54 746 1058.54 746 1041.96 652 c 0,21,22
 1025.57 559 1025.57 559 946.855 494 c 128,-1,23
 868.145 429 868.145 429 776.645 429 c 0,24,25
 682.82 430 682.82 430 634.282 495 c 1,26,-1
 346 0 l 1,27,-1
 166 0 l 1,28,-1
 311.47 825 l 2,29,30
 342.327 1000 342.327 1000 445.84 1113.5 c 128,-1,31
 549.354 1227 549.354 1227 694.114 1254 c 1,32,-1
 901.665 1104 l 1,33,-1
 1160.11 1254 l 1,0,1
725.965 652 m 0,34,35
 719.617 616 719.617 616 741.944 589.5 c 128,-1,36
 764.272 563 764.272 563 800.272 563 c 0,37,38
 837.272 563 837.272 563 868.444 589.5 c 128,-1,39
 899.617 616 899.617 616 905.965 652 c 0,40,41
 912.489 689 912.489 689 890.662 715.5 c 128,-1,42
 868.835 742 868.835 742 831.835 742 c 0,43,44
 795.835 742 795.835 742 764.206 715.75 c 128,-1,45
 732.577 689.5 732.577 689.5 725.965 652 c 0,34,35
EndSplineSet
EndChar
StartChar: uni0E06
Encoding: 3590 3590 129
Width: 1576
VWidth: 2045
Flags: W
HStem: -8 177<476.6 575.4> 347 177<475.3 576.7> 586 133<301.2 393.5>
VStem: 98 160<762.2 867> 258 178<209.9 307.4> 438 136<760.9 855.8> 758 180<805.1 992.3> 1218 180<178 1254>
Fore
835.789 237 m 17,0,1
 812.038 142 812.038 142 723.813 67 c 128,-1,2
 635.59 -8 635.59 -8 524.59 -8 c 0,3,4
 414.59 -8 414.59 -8 349.343 70 c 128,-1,5
 284.097 148 284.097 148 303.492 258 c 128,-1,6
 322.889 368 322.889 368 415.642 446 c 128,-1,7
 508.396 524 508.396 524 618.396 524 c 0,8,9
 670.396 524 670.396 524 709.574 508 c 1,10,11
 758.61 667 758.61 667 831.216 747 c 128,-1,12
 903.822 827 903.822 827 916.694 900 c 0,13,14
 929.214 971 929.214 971 902.618 1021.5 c 128,-1,15
 876.022 1072 876.022 1072 823.96 1100 c 1,16,-1
 710.732 1042 l 1,17,-1
 615.488 1103 l 1,18,19
 525.431 1097 525.431 1097 478.972 1015 c 1,20,21
 513.911 1026 513.911 1026 538.44 1029 c 0,22,23
 610.146 1033 610.146 1033 672.654 973.5 c 128,-1,24
 735.163 914 735.163 914 717.706 815 c 128,-1,25
 700.25 716 700.25 716 621.789 651 c 128,-1,26
 543.328 586 543.328 586 451.327 586 c 0,27,28
 356.327 586 356.327 586 293.169 664.5 c 128,-1,29
 230.011 743 230.011 743 250.875 867 c 0,30,31
 276.619 1013 276.619 1013 373.604 1123.5 c 128,-1,32
 470.588 1234 470.588 1234 608.819 1258 c 1,33,-1
 736.185 1175 l 1,34,-1
 898.643 1257 l 1,35,36
 988.234 1232 988.234 1232 1057.75 1147 c 128,-1,37
 1127.26 1062 1127.26 1062 1099.52 916 c 128,-1,38
 1071.77 770 1071.77 770 983.11 667 c 128,-1,39
 894.448 564 894.448 564 867.176 415 c 1,40,-1
 1249.39 178 l 1,41,-1
 1439.11 1254 l 1,42,-1
 1619.11 1254 l 1,43,-1
 1398 0 l 1,44,-1
 1218 0 l 1,45,-1
 835.789 237 l 17,0,1
481.492 258 m 0,46,47
 474.969 221 474.969 221 496.384 195 c 128,-1,48
 517.799 169 517.799 169 555.799 169 c 128,-1,49
 593.799 169 593.799 169 624.384 195 c 128,-1,50
 654.969 221 654.969 221 661.492 258 c 0,51,52
 668.192 296 668.192 296 647.189 321.5 c 128,-1,53
 626.186 347 626.186 347 587.186 347 c 128,-1,54
 548.186 347 548.186 347 518.189 321.5 c 128,-1,55
 488.192 296 488.192 296 481.492 258 c 0,46,47
400.648 809 m 0,56,57
 394.301 773 394.301 773 416.54 746 c 128,-1,58
 438.779 719 438.779 719 474.779 719 c 0,59,60
 509.779 719 509.779 719 541.952 745.5 c 128,-1,61
 574.124 772 574.124 772 580.648 809 c 0,62,63
 586.996 845 586.996 845 565.081 871 c 128,-1,64
 543.165 897 543.165 897 506.165 897 c 0,65,66
 468.165 897 468.165 897 437.492 870.5 c 128,-1,67
 406.82 844 406.82 844 400.648 809 c 0,56,57
EndSplineSet
EndChar
StartChar: uni0E07
Encoding: 3591 3591 130
Width: 1031
VWidth: 2045
Flags: W
HStem: 0 21G<665 845> 814 134<570.6 668.1> 1127 133<570.6 669.4>
VStem: 395 134<988.25 1085.75> 665 180<219 819> 709 136<988.9 1085.1>
Fore
665 0 m 5,0,-1
 187.683 571 l 5,1,-1
 316.079 681 l 5,2,-1
 703.615 219 l 5,3,-1
 809.412 819 l 5,4,5
 783.53 814 783.53 814 763.53 814 c 4,6,7
 669.53 814 669.53 814 615.756 880.5 c 132,-1,8
 561.981 947 561.981 947 578.027 1038 c 4,9,10
 593.896 1128 593.896 1128 671.534 1194 c 132,-1,11
 749.172 1260 749.172 1260 841.172 1260 c 132,-1,12
 933.172 1260 933.172 1260 988.534 1194 c 132,-1,13
 1043.9 1128 1043.9 1128 1027.67 1036 c 6,14,-1
 845 0 l 5,15,-1
 665 0 l 5,0,-1
711.852 1037 m 132,-1,17
 705.239 999.5 705.239 999.5 727.198 973.75 c 132,-1,18
 749.158 948 749.158 948 787.158 948 c 4,19,20
 824.158 948 824.158 948 854.742 974 c 132,-1,21
 885.327 1000 885.327 1000 891.852 1037 c 132,-1,22
 898.375 1074 898.375 1074 877.548 1100.5 c 132,-1,23
 856.721 1127 856.721 1127 818.721 1127 c 132,-1,24
 780.721 1127 780.721 1127 749.592 1100.75 c 132,-1,16
 718.463 1074.5 718.463 1074.5 711.852 1037 c 132,-1,17
EndSplineSet
EndChar
StartChar: uni0E08
Encoding: 3592 3592 131
Width: 1288
VWidth: 2045
Flags: MW
HStem: 0 21G<758 944> 431 134<522.9 619.1> 744 133<524.2 617.8> 1098 178<541 670.5>
VStem: 112 180<786 955> 346 134<607.2 702.1> 920 180<720.335 952.4>
Fore
250.593 786 m 17,0,1
 274.133 919.5 274.133 919.5 359.926 1031.75 c 128,-1,2
 445.718 1144 445.718 1144 571.355 1210 c 128,-1,3
 696.993 1276 696.993 1276 830.993 1276 c 132,-1,4
 964.993 1276 964.993 1276 1066.86 1210 c 128,-1,5
 1168.72 1144 1168.72 1144 1215.29 1031 c 128,-1,6
 1261.87 918 1261.87 918 1238.59 786 c 0,7,8
 1230.17 738.254 1230.17 738.254 1204.49 672 c 2,9,-1
 944 0 l 1,10,-1
 758 0 l 1,11,-1
 744.523 451 l 1,12,13
 697.997 431 697.997 431 647.997 431 c 0,14,15
 553.997 431 553.997 431 499.635 497 c 128,-1,16
 445.272 563 445.272 563 461.494 655 c 0,17,18
 477.893 748 477.893 748 555.766 812.5 c 128,-1,19
 633.639 877 633.639 877 724.639 877 c 0,20,21
 817.639 877 817.639 877 866.5 819.5 c 0,22,23
 914.926 762.513 914.926 762.513 914.486 706 c 2,24,-1
 911.772 356 l 1,25,-1
 1035.54 712 l 2,26,27
 1055.84 770.361 1055.84 770.361 1058.59 786 c 0,28,29
 1082.16 914 1082.16 914 1005.38 1006 c 128,-1,30
 928.607 1098 928.607 1098 799.607 1098 c 4,31,32
 669.607 1098 669.607 1098 561.562 1007 c 128,-1,33
 453.516 916 453.516 916 430.593 786 c 1,34,-1
 250.593 786 l 17,0,1
595.318 654 m 0,35,36
 588.97 618 588.97 618 611.298 591.5 c 128,-1,37
 633.625 565 633.625 565 670.625 565 c 128,-1,38
 707.625 565 707.625 565 738.209 591 c 128,-1,39
 768.794 617 768.794 617 775.318 654 c 0,40,41
 782.019 692 782.019 692 760.103 718 c 128,-1,42
 738.188 744 738.188 744 702.188 744 c 128,-1,43
 666.188 744 666.188 744 634.015 717.5 c 128,-1,44
 601.842 691 601.842 691 595.318 654 c 0,35,36
EndSplineSet
EndChar
StartChar: uni0E09
Encoding: 3593 3593 132
Width: 1466
VWidth: 2045
Flags: MW
HStem: -8 134<1069.9 1166.1> 350 134<329.5 423.1> 662 133<326.9 424.4> 1101 178<594.5 742 594.5 742.5>
VStem: 149 136<524.25 619.8> 421 180<178 354> 465 136<524.25 619.8> 1028 180<420 931.5> 1208 135<168.2 261.8>
Fore
311.399 904 m 17,0,1
 340.627 962 340.627 962 379.267 1011 c 0,2,3
 472.955 1134 472.955 1134 609.738 1206.5 c 128,-1,4
 746.522 1279 746.522 1279 893.522 1279 c 4,5,6
 1041.52 1279 1041.52 1279 1152.24 1206.5 c 128,-1,7
 1262.96 1134 1262.96 1134 1313.77 1011 c 128,-1,8
 1364.58 888 1364.58 888 1339.01 743 c 2,9,-1
 1282.06 420 l 1,10,11
 1315.59 406 1315.59 406 1343.77 373 c 0,12,13
 1397.31 308 1397.31 308 1381.09 216 c 128,-1,14
 1364.86 124 1364.86 124 1287.23 58 c 128,-1,15
 1209.59 -8 1209.59 -8 1116.59 -8 c 0,16,17
 1021.29 -8 1021.29 -8 969.051 57 c 0,18,19
 928.867 107 928.867 107 928.328 172 c 1,20,-1
 601 0 l 1,21,-1
 421 0 l 1,22,-1
 483.42 354 l 1,23,24
 463.715 350 463.715 350 436.715 350 c 0,25,26
 333.562 350 333.562 350 287.001 405.5 c 0,27,28
 232.05 471 232.05 471 250.035 573 c 0,29,30
 266.258 665 266.258 665 343.719 730 c 128,-1,31
 421.18 795 421.18 795 515.18 795 c 128,-1,32
 609.18 795 609.18 795 663.131 729.5 c 0,33,34
 718.081 664 718.081 664 701.859 572 c 2,35,-1
 632.387 178 l 1,36,-1
 1087 414 l 2,37,38
 1091.2 416.182 1091.2 416.182 1102.06 420 c 1,39,-1
 1159.01 743 l 2,40,41
 1184.93 890 1184.93 890 1098.03 995.5 c 128,-1,42
 1011.14 1101 1011.14 1101 862.136 1101 c 132,-1,43
 713.136 1101 713.136 1101 588.445 995 c 0,44,45
 511.984 930 511.984 930 473.055 851 c 1,46,-1
 311.399 904 l 17,0,1
1065.91 215 m 0,47,48
 1059.39 178 1059.39 178 1081.3 152 c 128,-1,49
 1103.22 126 1103.22 126 1140.22 126 c 128,-1,50
 1177.22 126 1177.22 126 1208.39 152.5 c 128,-1,51
 1239.56 179 1239.56 179 1245.91 215 c 128,-1,52
 1252.26 251 1252.26 251 1230.02 278 c 128,-1,53
 1207.78 305 1207.78 305 1171.78 305 c 128,-1,54
 1135.78 305 1135.78 305 1104.2 279 c 128,-1,55
 1072.61 253 1072.61 253 1065.91 215 c 0,47,48
386.035 573 m 0,56,57
 379.423 535.5 379.423 535.5 402.383 509.75 c 128,-1,58
 425.342 484 425.342 484 460.342 484 c 0,59,60
 497.342 484 497.342 484 528.383 509.75 c 128,-1,61
 559.423 535.5 559.423 535.5 566.035 573 c 0,62,63
 572.383 609 572.383 609 551.056 635.5 c 128,-1,64
 529.729 662 529.729 662 491.729 662 c 0,65,66
 454.729 662 454.729 662 423.556 635.5 c 128,-1,67
 392.383 609 392.383 609 386.035 573 c 0,56,57
EndSplineSet
EndChar
StartChar: uni0E0A
Encoding: 3594 3594 133
Width: 1355
VWidth: 2045
Flags: W
HStem: 0 178<372 460 641 963> 689 133<254.6 353.4> 1091 178<439 535.2>
VStem: 79 134<863.9 958.8> 393 136<865.2 958.8> 460 181<178 594> 619 180<780.3 1009.1> 963 180<178 804> 1073 180<1206 1362>
Fore
1066.17 846 m 1,0,-1
 1097.56 1024 l 1,1,2
 1160.67 1070 1160.67 1070 1226.33 1156 c 128,-1,3
 1292 1242 1292 1242 1313.16 1362 c 1,4,-1
 1493.16 1362 l 1,5,6
 1463.53 1194 1463.53 1194 1386.43 1092.75 c 128,-1,7
 1309.33 991.5 1309.33 991.5 1257.1 942 c 1,8,9
 1298.34 881 1298.34 881 1284.77 804 c 2,10,-1
 1143 0 l 1,11,-1
 372 0 l 1,12,-1
 403.386 178 l 1,13,-1
 491.386 178 l 1,14,-1
 546.224 489 l 2,15,16
 574.789 651 574.789 651 668.042 729 c 128,-1,17
 761.296 807 761.296 807 776.989 896 c 0,18,19
 792.329 983 792.329 983 748.852 1037 c 128,-1,20
 705.373 1091 705.373 1091 631.373 1091 c 5,21,-1
 651.493 1069 l 2,22,23
 705.855 1003 705.855 1003 689.634 911 c 0,24,25
 673.235 818 673.235 818 595.862 753.5 c 128,-1,26
 518.489 689 518.489 689 424.489 689 c 128,-1,27
 330.489 689 330.489 689 276.95 754 c 128,-1,28
 223.412 819 223.412 819 244.571 939 c 128,-1,29
 265.73 1059 265.73 1059 389.244 1164 c 128,-1,30
 512.759 1269 512.759 1269 662.759 1269 c 4,31,32
 811.759 1269 811.759 1269 898.656 1163.5 c 128,-1,33
 985.554 1058 985.554 1058 958.399 904 c 0,34,35
 931.069 749 931.069 749 837.903 671.5 c 128,-1,36
 744.738 594 744.738 594 726.224 489 c 2,37,-1
 672.387 178 l 1,38,-1
 994.387 178 l 1,39,-1
 1104.77 804 l 2,40,41
 1110.59 837 1110.59 837 1066.17 846 c 1,0,-1
373.811 912 m 0,42,43
 367.286 875 367.286 875 389.113 848.5 c 128,-1,44
 410.94 822 410.94 822 448.94 822 c 128,-1,45
 486.94 822 486.94 822 517.201 849 c 128,-1,46
 547.463 876 547.463 876 553.811 912 c 128,-1,47
 560.158 948 560.158 948 538.742 974 c 128,-1,48
 517.327 1000 517.327 1000 480.327 1000 c 0,49,50
 444.327 1000 444.327 1000 412.242 974 c 128,-1,51
 380.158 948 380.158 948 373.811 912 c 0,42,43
EndSplineSet
EndChar
StartChar: uni0E0B
Encoding: 3595 3595 134
Width: 1440
VWidth: 2045
Flags: W
HStem: 0 178<477 565 747 1068> 586 133<264.6 363.4>
VStem: 71 152<760.9 867> 404 134<762.2 854.5> 565 180<178 567.5> 724 180<809 992.3> 1068 180<178 804> 1178 180<1203.4 1362>
Fore
365.648 809 m 4,0,1
 359.124 772 359.124 772 381.363 745 c 4,2,3
 402.779 719 402.779 719 440.779 719 c 132,-1,4
 478.779 719 478.779 719 509.363 745 c 4,5,6
 540.301 773 540.301 773 546.648 809 c 4,7,8
 552.82 844 552.82 844 531.757 872 c 4,9,10
 511.165 897 511.165 897 472.165 897 c 132,-1,11
 433.165 897 433.165 897 403.757 872 c 4,12,13
 371.996 845 371.996 845 365.648 809 c 4,0,1
643.289 444 m 6,14,15
 669.914 595 669.914 595 770.133 712.5 c 132,-1,16
 870.352 830 870.352 830 882.694 900 c 4,17,18
 895.214 971 895.214 971 868.618 1021.5 c 132,-1,19
 842.022 1072 842.022 1072 789.96 1100 c 5,20,-1
 677.732 1042 l 5,21,-1
 582.488 1103 l 5,22,23
 491.431 1097 491.431 1097 444.972 1015 c 5,24,25
 478.911 1026 478.911 1026 505.44 1029 c 4,26,27
 575.146 1033 575.146 1033 637.154 973.5 c 132,-1,28
 699.163 914 699.163 914 681.706 815 c 132,-1,29
 664.25 716 664.25 716 587.289 651 c 132,-1,30
 510.327 586 510.327 586 417.327 586 c 4,31,32
 318.327 586 318.327 586 260.316 662.5 c 132,-1,33
 202.306 739 202.306 739 223.875 867 c 4,34,35
 251.206 1022 251.206 1022 344.396 1128 c 132,-1,36
 437.588 1234 437.588 1234 574.819 1258 c 5,37,-1
 702.185 1175 l 5,38,-1
 864.643 1257 l 5,39,40
 956.059 1231 956.059 1231 1024.16 1146.5 c 132,-1,41
 1092.26 1062 1092.26 1062 1063.22 903 c 4,42,43
 1038.07 766 1038.07 766 939.054 652.5 c 132,-1,44
 840.04 539 840.04 539 823.289 444 c 6,45,-1
 778.387 178 l 5,46,-1
 1099.39 178 l 5,47,-1
 1209.77 804 l 6,48,49
 1215.59 837 1215.59 837 1172.17 846 c 5,50,-1
 1203.56 1024 l 5,51,52
 1268.2 1073 1268.2 1073 1332.42 1156.5 c 132,-1,53
 1396.65 1240 1396.65 1240 1418.16 1362 c 5,54,-1
 1598.16 1362 l 5,55,56
 1568.71 1195 1568.71 1195 1490.64 1092.5 c 132,-1,57
 1412.56 990 1412.56 990 1362.1 942 c 5,58,59
 1403.34 881 1403.34 881 1389.77 804 c 6,60,-1
 1248 0 l 5,61,-1
 477 0 l 5,62,-1
 508.386 178 l 5,63,-1
 596.387 178 l 5,64,-1
 643.289 444 l 6,14,15
EndSplineSet
EndChar
StartChar: uni0E0C
Encoding: 3596 3596 135
Width: 1924
VWidth: 2045
Flags: MW
HStem: -8 134<412.9 507.8 947.2 1042.1> 305 133<412.9 506.5> 744 178<416 507> 1101 178<561.5 708 561.5 709.5>
VStem: 235 181<433 744> 237 134<166.9 214 214 263.1> 551 136<166.9 263.1> 769 136<166.9 264.4> 994 180<438 889> 1557 180<177 1254>
Fore
1071.23 438 m 9,0,-1
 1125.19 744 l 2,1,2
 1151.11 891 1151.11 891 1064.62 996 c 128,-1,3
 978.136 1101 978.136 1101 829.136 1101 c 132,-1,4
 680.136 1101 680.136 1101 555.445 995 c 0,5,6
 515.45 961 515.45 961 484.573 922 c 1,7,-1
 669.573 922 l 1,8,-1
 638.188 744 l 1,9,-1
 547.188 744 l 1,10,-1
 492.35 433 l 1,11,12
 511.231 438 511.231 438 538.231 438 c 0,13,14
 630.231 438 630.231 438 685.77 373 c 128,-1,15
 741.309 308 741.309 308 725.087 216 c 0,16,17
 709.041 125 709.041 125 630.815 58.5 c 128,-1,18
 552.59 -8 552.59 -8 459.59 -8 c 0,19,20
 367.59 -8 367.59 -8 312.815 58.5 c 128,-1,21
 258.041 125 258.041 125 274.734 214 c 1,22,-1
 272.734 214 l 1,23,-1
 366.188 744 l 1,24,-1
 226.188 744 l 1,25,26
 251.843 889.5 251.843 889.5 346.487 1012.25 c 128,-1,27
 441.131 1135 441.131 1135 577.326 1207 c 128,-1,28
 713.522 1279 713.522 1279 860.522 1279 c 4,29,30
 1006.52 1279 1006.52 1279 1117.74 1206.5 c 128,-1,31
 1228.96 1134 1228.96 1134 1279.85 1011.5 c 128,-1,32
 1330.75 889 1330.75 889 1305.19 744 c 2,33,-1
 1240.3 376 l 1,34,-1
 1588.21 177 l 1,35,-1
 1778.11 1254 l 1,36,-1
 1958.11 1254 l 1,37,-1
 1737 0 l 1,38,-1
 1557 0 l 1,39,-1
 1247.86 175 l 1,40,41
 1224.22 109 1224.22 109 1163.05 57 c 0,42,43
 1084.59 -8 1084.59 -8 992.59 -8 c 0,44,45
 899.59 -8 899.59 -8 845.227 58 c 128,-1,46
 790.864 124 790.864 124 807.087 216 c 128,-1,47
 823.309 308 823.309 308 901.27 373 c 128,-1,48
 979.231 438 979.231 438 1071.23 438 c 9,0,-1
942.91 215 m 0,49,50
 936.387 178 936.387 178 958.302 152 c 128,-1,51
 980.217 126 980.217 126 1016.22 126 c 0,52,53
 1053.22 126 1053.22 126 1084.3 152 c 128,-1,54
 1115.39 178 1115.39 178 1121.91 215 c 0,55,56
 1128.61 253 1128.61 253 1106.2 279 c 128,-1,57
 1083.78 305 1083.78 305 1047.78 305 c 0,58,59
 1012.78 305 1012.78 305 981.195 279 c 128,-1,60
 949.61 253 949.61 253 942.91 215 c 0,49,50
408.91 215 m 128,-1,62
 402.386 178 402.386 178 424.302 152 c 128,-1,63
 446.217 126 446.217 126 483.217 126 c 0,64,65
 519.217 126 519.217 126 550.802 152 c 128,-1,66
 582.387 178 582.387 178 588.91 215 c 128,-1,67
 595.435 252 595.435 252 572.607 278.5 c 128,-1,68
 549.779 305 549.779 305 514.779 305 c 0,69,70
 477.779 305 477.779 305 446.607 278.5 c 128,-1,61
 415.435 252 415.435 252 408.91 215 c 128,-1,62
226.188 744 m 1,71,-1
 366.188 744 l 1,72,-1
EndSplineSet
EndChar
StartChar: uni0E0D
Encoding: 3597 3597 136
Width: 1924
VWidth: 2045
Flags: MW
HStem: -577 192<1095.9 1271> -207 134<1095.9 1190.8> -8 134<402.9 497.8> 0 178<1164 1547> 305 133<402.9 496.5> 744 178<405 497> 1101 178<552.106 697.75 551.5 699.5>
VStem: 225 136<166.9 263.1> 225 180<433 744> 541 136<166.9 263.1> 921 133<-342.8 -249.2> 984 180<178 933.8> 1547 180<178 1254>
Fore
1730.09 -249 m 1,0,1
 1609.12 -436 1609.12 -436 1464.6 -507 c 128,-1,2
 1320.08 -578 1320.08 -578 1169.26 -577 c 0,3,4
 986.436 -576 986.436 -576 918.364 -488.5 c 128,-1,5
 850.293 -401 850.293 -401 867.926 -301 c 0,6,7
 887.734 -200 887.734 -200 962.932 -136.5 c 128,-1,8
 1038.13 -73 1038.13 -73 1132.13 -73 c 0,9,10
 1225.13 -73 1225.13 -73 1281.55 -141.5 c 128,-1,11
 1337.97 -210 1337.97 -210 1317.16 -294 c 0,12,13
 1296.52 -377 1296.52 -377 1238 -414 c 1,14,15
 1328.29 -418 1328.29 -418 1419.23 -364.5 c 128,-1,16
 1510.16 -311 1510.16 -311 1603.85 -154 c 1,17,-1
 1730.09 -249 l 1,0,1
1001.81 -296 m 128,-1,19
 995.459 -332 995.459 -332 1017.29 -358.5 c 128,-1,20
 1039.11 -385 1039.11 -385 1076.11 -385 c 0,21,22
 1112.11 -385 1112.11 -385 1144.29 -358.5 c 128,-1,23
 1176.46 -332 1176.46 -332 1182.81 -296 c 128,-1,24
 1189.16 -260 1189.16 -260 1166.33 -233.5 c 128,-1,25
 1143.5 -207 1143.5 -207 1107.5 -207 c 0,26,27
 1070.5 -207 1070.5 -207 1039.33 -233.5 c 128,-1,18
 1008.16 -260 1008.16 -260 1001.81 -296 c 128,-1,19
984 0 m 25,28,-1
 1115.19 744 l 2,29,30
 1141.11 891 1141.11 891 1054.62 996 c 128,-1,31
 968.136 1101 968.136 1101 819.136 1101 c 4,32,33
 673.348 1101 673.348 1101 545.445 995 c 0,34,35
 505.627 962 505.627 962 476.573 922 c 1,36,-1
 659.573 922 l 1,37,-1
 628.188 744 l 1,38,-1
 536.188 744 l 1,39,-1
 481.35 433 l 1,40,41
 499.231 438 499.231 438 528.231 438 c 0,42,43
 620.231 438 620.231 438 675.77 373 c 128,-1,44
 731.309 308 731.309 308 715.087 216 c 0,45,46
 699.041 125 699.041 125 620.815 58.5 c 128,-1,47
 542.59 -8 542.59 -8 449.59 -8 c 128,-1,48
 356.59 -8 356.59 -8 301.727 58 c 128,-1,49
 246.864 124 246.864 124 262.734 214 c 2,50,-1
 356.188 744 l 1,51,-1
 216.188 744 l 1,52,53
 241.843 889.5 241.843 889.5 336.487 1012.25 c 128,-1,54
 431.131 1135 431.131 1135 567.326 1207 c 128,-1,55
 703.522 1279 703.522 1279 850.522 1279 c 4,56,57
 996.022 1279 996.022 1279 1106.58 1207 c 128,-1,58
 1217.13 1135 1217.13 1135 1269.03 1012.5 c 128,-1,59
 1320.93 890 1320.93 890 1295.19 744 c 2,60,-1
 1195.39 178 l 1,61,-1
 1578.39 178 l 1,62,-1
 1768.11 1254 l 1,63,-1
 1948.11 1254 l 1,64,-1
 1727 0 l 1,65,-1
 984 0 l 25,28,-1
398.91 215 m 128,-1,67
 392.386 178 392.386 178 414.302 152 c 128,-1,68
 436.217 126 436.217 126 473.217 126 c 0,69,70
 509.217 126 509.217 126 540.802 152 c 128,-1,71
 572.387 178 572.387 178 578.91 215 c 128,-1,72
 585.435 252 585.435 252 562.607 278.5 c 128,-1,73
 539.779 305 539.779 305 504.779 305 c 0,74,75
 467.779 305 467.779 305 436.607 278.5 c 128,-1,66
 405.435 252 405.435 252 398.91 215 c 128,-1,67
216.188 744 m 1,76,-1
 356.188 744 l 1,77,-1
EndSplineSet
Substitution2: "Single Substitution lookup 9" uni0E0D.descless
Substitution2: "Single Substitution lookup 8" uni0E0D.descless
EndChar
StartChar: uni0E0E
Encoding: 3598 3598 137
Width: 1473
VWidth: 2045
Flags: MW
HStem: -526 133<558.9 653.8> -214 133<558.9 653.8> -8 134<285.2 378.8> 305 133<286.5 377.5> 1101 178<680 827 679.5 829>
VStem: 106 136<166.9 263.1> 378 180<433 744> 382 136<-352.1 -254.6> 422 136<166.9 263.1> 1113 180<-260 886>
AnchorPoint: "BelowBase" 993.446 -625.338 basechar 0
Fore
892.086 -595 m 1,0,-1
 741.001 -414 l 1,1,-1
 684.537 -462 l 2,2,3
 609.252 -526 609.252 -526 513.252 -526 c 0,4,5
 423.252 -526 423.252 -526 367.802 -460.5 c 128,-1,6
 312.351 -395 312.351 -395 328.396 -304 c 0,7,8
 344.795 -211 344.795 -211 422.756 -146 c 128,-1,9
 500.718 -81 500.718 -81 593.718 -81 c 0,10,11
 682.848 -81 682.848 -81 740.08 -147 c 2,12,-1
 779.969 -193 l 1,13,-1
 904.307 -89 l 1,14,-1
 997.087 -198 l 1,15,-1
 871.396 -304 l 1,16,-1
 930.877 -375 l 1,17,-1
 1067.16 -260 l 1,18,-1
 1244.19 744 l 2,19,20
 1269.58 888 1269.58 888 1183.86 994.5 c 128,-1,21
 1098.14 1101 1098.14 1101 948.136 1101 c 4,22,23
 800.136 1101 800.136 1101 670.445 995 c 0,24,25
 634.155 965 634.155 965 604.573 922 c 1,26,-1
 808.573 922 l 1,27,-1
 777.188 744 l 1,28,-1
 689.188 744 l 1,29,-1
 596.087 216 l 2,30,31
 579.688 123 579.688 123 501.139 57.5 c 128,-1,32
 422.59 -8 422.59 -8 330.59 -8 c 0,33,34
 237.59 -8 237.59 -8 182.727 58 c 128,-1,35
 127.864 124 127.864 124 144.087 216 c 0,36,37
 160.485 309 160.485 309 238.858 373.5 c 128,-1,38
 317.231 438 317.231 438 409.231 438 c 0,39,40
 436.231 438 436.231 438 454.35 433 c 1,41,-1
 509.188 744 l 1,42,-1
 344.188 744 l 1,43,44
 369.843 889.5 369.843 889.5 464.487 1012.25 c 128,-1,45
 559.131 1135 559.131 1135 695.326 1207 c 128,-1,46
 831.522 1279 831.522 1279 978.522 1279 c 4,47,48
 1126.52 1279 1126.52 1279 1237.24 1206.5 c 128,-1,49
 1347.96 1134 1347.96 1134 1398.59 1010 c 128,-1,50
 1449.23 886 1449.23 886 1424.19 744 c 2,51,-1
 1239.75 -302 l 1,52,-1
 892.086 -595 l 1,0,-1
464.396 -304 m 0,53,54
 457.872 -341 457.872 -341 479.288 -367 c 128,-1,55
 500.703 -393 500.703 -393 537.703 -393 c 0,56,57
 573.703 -393 573.703 -393 605.744 -367.25 c 128,-1,58
 637.784 -341.5 637.784 -341.5 644.396 -304 c 0,59,60
 651.097 -266 651.097 -266 628.182 -240 c 128,-1,61
 605.266 -214 605.266 -214 569.266 -214 c 0,62,63
 532.266 -214 532.266 -214 501.682 -240 c 128,-1,64
 471.097 -266 471.097 -266 464.396 -304 c 0,53,54
279.91 215 m 128,-1,66
 273.386 178 273.386 178 295.802 152 c 128,-1,67
 318.217 126 318.217 126 354.217 126 c 128,-1,68
 390.217 126 390.217 126 421.802 152 c 128,-1,69
 453.386 178 453.386 178 459.91 215 c 128,-1,70
 466.435 252 466.435 252 443.607 278.5 c 128,-1,71
 420.779 305 420.779 305 385.779 305 c 128,-1,72
 350.779 305 350.779 305 318.607 278.5 c 128,-1,65
 286.435 252 286.435 252 279.91 215 c 128,-1,66
344.188 744 m 1,73,-1
 509.188 744 l 1,74,-1
EndSplineSet
EndChar
StartChar: uni0E0F
Encoding: 3599 3599 138
Width: 1486
VWidth: 2045
Flags: MW
HStem: -526 133<329.6 428.4> -214 133<329.6 428.4> -8 134<285.2 378.8> 305 133<286.5 377.5> 1101 178<679.5 827 679.5 829>
VStem: 106 136<166.9 263.1> 155 134<-352.1 -254.6> 378 180<433 744> 422 136<166.9 263.1> 1113 180<-260 928.6>
AnchorPoint: "BelowBase" 948.312 -660.698 basechar 0
Fore
604.573 922 m 9,0,-1
 808.573 922 l 1,1,-1
 777.188 744 l 1,2,-1
 689.188 744 l 1,3,-1
 596.087 216 l 2,4,5
 579.688 123 579.688 123 501.139 57.5 c 128,-1,6
 422.59 -8 422.59 -8 330.59 -8 c 0,7,8
 237.59 -8 237.59 -8 182.727 58 c 128,-1,9
 127.864 124 127.864 124 144.087 216 c 0,10,11
 160.485 309 160.485 309 238.858 373.5 c 128,-1,12
 317.231 438 317.231 438 409.231 438 c 0,13,14
 436.231 438 436.231 438 454.35 433 c 1,15,-1
 509.188 744 l 1,16,-1
 344.188 744 l 1,17,18
 369.843 889.5 369.843 889.5 464.487 1012.25 c 128,-1,19
 559.131 1135 559.131 1135 695.326 1207 c 128,-1,20
 831.522 1279 831.522 1279 978.522 1279 c 4,21,22
 1126.52 1279 1126.52 1279 1237.24 1206.5 c 128,-1,23
 1347.96 1134 1347.96 1134 1398.59 1010 c 128,-1,24
 1449.23 886 1449.23 886 1424.19 744 c 2,25,-1
 1239.75 -302 l 1,26,-1
 892.086 -595 l 1,27,-1
 796.363 -480 l 1,28,-1
 663.086 -595 l 1,29,-1
 512.001 -414 l 1,30,-1
 457.537 -462 l 2,31,32
 384.919 -526 384.919 -526 286.252 -526 c 0,33,34
 193.252 -526 193.252 -526 139.302 -460.5 c 128,-1,35
 85.3506 -395 85.3506 -395 101.396 -304 c 0,36,37
 117.619 -212 117.619 -212 194.668 -146.5 c 128,-1,38
 271.718 -81 271.718 -81 364.718 -81 c 0,39,40
 456.282 -81 456.282 -81 512.08 -147 c 2,41,-1
 550.969 -193 l 1,42,-1
 676.483 -88 l 1,43,-1
 767.911 -199 l 1,44,-1
 642.221 -305 l 1,45,-1
 701.877 -375 l 1,46,-1
 835.155 -260 l 1,47,-1
 930.877 -375 l 1,48,-1
 1067.16 -260 l 1,49,-1
 1244.19 744 l 2,50,51
 1269.58 888 1269.58 888 1183.86 994.5 c 128,-1,52
 1098.14 1101 1098.14 1101 948.136 1101 c 4,53,54
 797.136 1101 797.136 1101 672.445 995 c 0,55,56
 641.861 969 641.861 969 604.573 922 c 9,0,-1
235.396 -304 m 0,57,58
 228.872 -341 228.872 -341 250.288 -367 c 128,-1,59
 271.703 -393 271.703 -393 309.703 -393 c 128,-1,60
 347.703 -393 347.703 -393 378.2 -367.5 c 128,-1,61
 408.696 -342 408.696 -342 415.396 -304 c 0,62,63
 422.273 -265 422.273 -265 400.77 -239.5 c 128,-1,64
 379.266 -214 379.266 -214 341.266 -214 c 128,-1,65
 303.266 -214 303.266 -214 272.682 -240 c 128,-1,66
 242.097 -266 242.097 -266 235.396 -304 c 0,57,58
279.91 215 m 128,-1,68
 273.386 178 273.386 178 295.802 152 c 128,-1,69
 318.217 126 318.217 126 354.217 126 c 128,-1,70
 390.217 126 390.217 126 421.802 152 c 128,-1,71
 453.386 178 453.386 178 459.91 215 c 128,-1,72
 466.435 252 466.435 252 443.607 278.5 c 128,-1,73
 420.779 305 420.779 305 385.779 305 c 128,-1,74
 350.779 305 350.779 305 318.607 278.5 c 128,-1,67
 286.435 252 286.435 252 279.91 215 c 128,-1,68
344.188 744 m 1,75,-1
 509.188 744 l 1,76,-1
EndSplineSet
EndChar
StartChar: uni0E10
Encoding: 3600 3600 139
Width: 1245
VWidth: 2045
Flags: MW
HStem: -807 134<79.2 172.8> -521 133<745.9 842.1> -494 134<77.9 174.1> -210 134<745.9 842.1> 0 21G<683 903> 244 134<489.05 583.95> 557 133<487.825 584.675> 744 178<363 821.6> 1101 178<602 748.5>
VStem: -98 134<-629.8 -536.2> 311 134<418.25 515.75> 569 134<-344.8 -251.2> 883 136<-344.8 -251.2>
Fore
912.675 -603 m 25,0,-1
 589.714 -875 l 1,1,-1
 493.991 -760 l 1,2,-1
 361.066 -873 l 1,3,-1
 209.453 -695 l 1,4,-1
 156.518 -740 l 2,5,6
 75.7041 -807 75.7041 -807 -15.2959 -807 c 0,7,8
 -108.296 -807 -108.296 -807 -162.658 -741 c 128,-1,9
 -217.021 -675 -217.021 -675 -200.799 -583 c 128,-1,10
 -184.576 -491 -184.576 -491 -107.527 -425.5 c 128,-1,11
 -30.4775 -360 -30.4775 -360 63.5225 -360 c 0,12,13
 155.522 -360 155.522 -360 209.885 -426 c 2,14,-1
 248.421 -474 l 1,15,-1
 373.936 -369 l 1,16,-1
 465.892 -477 l 1,17,-1
 341.201 -583 l 1,18,-1
 399.683 -654 l 1,19,-1
 532.607 -541 l 1,20,-1
 628.329 -656 l 1,21,-1
 739.904 -562 l 1,22,-1
 747.662 -518 l 1,23,24
 724.134 -521 724.134 -521 701.134 -521 c 0,25,26
 609.134 -521 609.134 -521 554.595 -456 c 128,-1,27
 500.057 -391 500.057 -391 516.278 -299 c 0,28,29
 532.324 -208 532.324 -208 608.962 -142 c 128,-1,30
 685.6 -76 685.6 -76 779.6 -76 c 128,-1,31
 873.6 -76 873.6 -76 927.962 -142 c 128,-1,32
 982.324 -208 982.324 -208 966.278 -299 c 2,33,-1
 912.675 -603 l 25,0,-1
650.455 -298 m 128,-1,35
 644.106 -334 644.106 -334 666.346 -361 c 128,-1,36
 688.585 -388 688.585 -388 725.585 -388 c 128,-1,37
 762.585 -388 762.585 -388 793.346 -361 c 128,-1,38
 824.106 -334 824.106 -334 830.455 -298 c 128,-1,39
 836.803 -262 836.803 -262 815.387 -236 c 128,-1,40
 793.972 -210 793.972 -210 756.972 -210 c 128,-1,41
 719.972 -210 719.972 -210 688.387 -236 c 128,-1,34
 656.803 -262 656.803 -262 650.455 -298 c 128,-1,35
-66.7988 -583 m 128,-1,43
 -73.1465 -619 -73.1465 -619 -50.9072 -646 c 128,-1,44
 -28.668 -673 -28.668 -673 7.33203 -673 c 128,-1,45
 43.332 -673 43.332 -673 75.0049 -646.5 c 128,-1,46
 106.678 -620 106.678 -620 113.201 -583 c 128,-1,47
 119.726 -546 119.726 -546 97.8096 -520 c 128,-1,48
 75.8945 -494 75.8945 -494 38.8945 -494 c 128,-1,49
 1.89453 -494 1.89453 -494 -29.2783 -520.5 c 128,-1,42
 -60.4512 -547 -60.4512 -547 -66.7988 -583 c 128,-1,43
683 0 m 25,50,-1
 676.551 264 l 1,51,52
 628.023 244 628.023 244 578.023 244 c 0,53,54
 485.023 244 485.023 244 431.161 310 c 128,-1,55
 377.299 376 377.299 376 393.521 468 c 0,56,57
 409.566 559 409.566 559 486.616 624.5 c 128,-1,58
 563.666 690 563.666 690 656.666 690 c 0,59,60
 748.666 690 748.666 690 798.026 632.5 c 0,61,62
 847.059 575.384 847.059 575.384 846.514 519 c 2,63,-1
 844.253 285 l 1,64,-1
 972.494 655 l 2,65,66
 985.255 691.818 985.255 691.818 961.779 719 c 0,67,68
 940.188 744 940.188 744 898.188 744 c 2,69,-1
 267.188 744 l 1,70,71
 292.843 889.5 292.843 889.5 386.398 1011.75 c 128,-1,72
 479.955 1134 479.955 1134 617.238 1206.5 c 128,-1,73
 754.522 1279 754.522 1279 900.522 1279 c 4,74,75
 1048.52 1279 1048.52 1279 1159 1208 c 128,-1,76
 1269.48 1137 1269.48 1137 1320.62 1013 c 1,77,-1
 1148.93 924 l 1,78,79
 1133.63 962 1133.63 962 1105.45 995 c 0,80,81
 1016.14 1101 1016.14 1101 869.136 1101 c 4,82,83
 723.136 1101 723.136 1101 596.445 995 c 0,84,85
 557.803 963 557.803 963 525.573 922 c 1,86,-1
 924.573 922 l 2,87,88
 1032.07 922 1032.07 922 1112.29 841 c 0,89,90
 1190.31 762.219 1190.31 762.219 1149.14 653 c 2,91,-1
 903 0 l 1,92,-1
 683 0 l 25,50,-1
527.345 467 m 128,-1,94
 520.732 429.5 520.732 429.5 543.692 403.75 c 128,-1,95
 566.651 378 566.651 378 603.151 378 c 128,-1,96
 639.651 378 639.651 378 670.236 404 c 128,-1,97
 700.82 430 700.82 430 707.345 467 c 128,-1,98
 713.869 504 713.869 504 692.791 530.5 c 128,-1,99
 671.714 557 671.714 557 634.464 557 c 128,-1,100
 597.214 557 597.214 557 565.586 530.75 c 128,-1,93
 533.957 504.5 533.957 504.5 527.345 467 c 128,-1,94
EndSplineSet
Substitution2: "Single Substitution lookup 9" uni0E10.descless
Substitution2: "Single Substitution lookup 8" uni0E10.descless
EndChar
StartChar: uni0E11
Encoding: 3601 3601 140
Width: 1689
VWidth: 2045
Flags: MW
HStem: 0 21G<566 837 1334 1514> 586 133<264.6 363.4> 1087 177<1235 1269>
VStem: 72 152<762.35 867> 404 134<759.75 857.25> 566 180<187 570.1> 724 180<806.4 991> 1334 180<0 1044.4>
Fore
837 0 m 1,0,-1
 566 0 l 1,1,-1
 644.289 444 l 2,2,3
 671.268 597 671.268 597 770.633 712.5 c 128,-1,4
 869.999 828 869.999 828 882.694 900 c 0,5,6
 895.037 970 895.037 970 867.618 1021.5 c 128,-1,7
 840.199 1073 840.199 1073 789.96 1100 c 1,8,-1
 677.732 1042 l 1,9,-1
 583.488 1103 l 1,10,11
 490.431 1097 490.431 1097 445.972 1015 c 1,12,13
 482.66 1027.64 482.66 1027.64 506.44 1029 c 0,14,15
 576.146 1033 576.146 1033 638.566 973 c 0,16,17
 699.163 914 699.163 914 681.706 815 c 128,-1,18
 664.25 716 664.25 716 586.789 651 c 128,-1,19
 509.327 586 509.327 586 417.327 586 c 0,20,21
 320.327 586 320.327 586 261.779 662.588 c 128,-1,23
 203.23 739.176 203.23 739.176 224.875 867 c 0,24,25
 251.198 1022.45 251.198 1022.45 343.893 1128.22 c 128,-1,27
 436.588 1234 436.588 1234 575.819 1258 c 1,28,-1
 703.185 1175 l 1,29,-1
 865.643 1257 l 1,30,31
 955.234 1232 955.234 1232 1024.25 1147 c 128,-1,32
 1093.26 1062 1093.26 1062 1063.22 903 c 0,33,34
 1036.71 764 1036.71 764 939.054 652.5 c 128,-1,36
 841.393 541 841.393 541 824.289 444 c 2,37,-1
 778.973 187 l 1,38,-1
 1265.01 1140 l 2,39,40
 1285.75 1180.66 1285.75 1180.66 1345.13 1221.33 c 128,-1,42
 1404.52 1262 1404.52 1262 1491.88 1264 c 0,43,44
 1579.05 1265 1579.05 1265 1645.71 1195 c 128,-1,45
 1712.37 1125 1712.37 1125 1689.45 995 c 2,46,-1
 1514 0 l 1,47,-1
 1334 0 l 1,48,-1
 1509.45 995 l 2,49,50
 1516.15 1033 1516.15 1033 1493 1060.5 c 128,-1,51
 1469.84 1088 1469.84 1088 1426.67 1087 c 0,52,53
 1381.07 1087 1381.07 1087 1366.55 1058 c 2,54,-1
 837 0 l 1,0,-1
366.561 808.5 m 128,-1,56
 360.301 773 360.301 773 381.54 746 c 128,-1,57
 402.779 719 402.779 719 440.779 719 c 128,-1,58
 478.779 719 478.779 719 509.363 745 c 128,-1,59
 539.948 771 539.948 771 546.561 808.5 c 128,-1,60
 553.173 846 553.173 846 532.169 871.5 c 128,-1,61
 511.165 897 511.165 897 472.165 897 c 128,-1,62
 433.165 897 433.165 897 402.992 870.5 c 128,-1,55
 372.82 844 372.82 844 366.561 808.5 c 128,-1,56
EndSplineSet
EndChar
StartChar: uni0E12
Encoding: 3602 3602 141
Width: 1957
VWidth: 2045
Flags: W
HStem: -8 134<1016.75 1114.25> 749 133<659.6 758.4>
VStem: 166 178<208 983.6> 485 134<612.2 705.8> 799 137<612.2 705.8> 842 134<166.75 264.25> 1066 180<438 970> 1587 180<180 1254>
Fore
1143.23 438 m 1,0,-1
 1211.12 823 l 2,1,2
 1237.04 970 1237.04 970 1205.68 1010.5 c 132,-1,3
 1174.32 1051 1174.32 1051 1128.55 1075 c 1,4,-1
 870.455 927 l 1,5,-1
 674.022 1072 l 1,6,7
 630.317 1068 630.317 1068 570.649 1007.5 c 132,-1,8
 510.981 947 510.981 947 489.47 825 c 2,9,-1
 380.676 208 l 1,10,-1
 679.992 465 l 1,11,12
 661.108 477 661.108 477 623.219 523 c 132,-1,13
 585.33 569 585.33 569 601.376 660 c 0,14,15
 617.598 752 617.598 752 695.06 817 c 132,-1,16
 772.521 882 772.521 882 864.521 882 c 0,17,18
 957.521 882 957.521 882 1011.65 817.5 c 132,-1,19
 1065.77 753 1065.77 753 1052.2 659 c 0,20,21
 1036.15 568 1036.15 568 955.34 501 c 2,22,-1
 349 0 l 1,23,-1
 166 0 l 1,24,-1
 311.47 825 l 2,25,26
 342.327 1000 342.327 1000 445.84 1113.5 c 132,-1,27
 549.354 1227 549.354 1227 694.114 1254 c 1,28,-1
 901.665 1104 l 1,29,-1
 1160.11 1254 l 1,30,31
 1289.88 1230 1289.88 1230 1355.58 1112 c 132,-1,32
 1421.27 994 1421.27 994 1391.47 825 c 2,33,-1
 1311.59 372 l 1,34,-1
 1618.74 180 l 1,35,-1
 1808.11 1254 l 1,36,-1
 1988.11 1254 l 1,37,-1
 1767 0 l 1,38,-1
 1587 0 l 1,39,-1
 1316.27 166 l 1,40,41
 1290.87 107 1290.87 107 1224.23 49.5 c 132,-1,42
 1157.59 -8 1157.59 -8 1064.59 -8 c 128,-1,43
 971.59 -8 971.59 -8 917.639 57.5 c 132,-1,44
 863.688 123 863.688 123 880.087 216 c 128,-1,45
 896.485 309 896.485 309 973.858 373.5 c 132,-1,46
 1051.23 438 1051.23 438 1143.23 438 c 1,0,-1
1014 215.5 m 132,-1,48
 1007.39 178 1007.39 178 1028.8 152 c 132,-1,49
 1050.22 126 1050.22 126 1087.72 126 c 132,-1,50
 1125.22 126 1125.22 126 1156.39 152.5 c 132,-1,51
 1187.56 179 1187.56 179 1193.91 215 c 132,-1,52
 1200.26 251 1200.26 251 1178.02 278 c 132,-1,53
 1155.78 305 1155.78 305 1118.78 305 c 132,-1,54
 1081.78 305 1081.78 305 1051.2 279 c 132,-1,47
 1020.61 253 1020.61 253 1014 215.5 c 132,-1,48
735.199 659 m 132,-1,56
 728.852 623 728.852 623 749.768 597 c 132,-1,57
 770.683 571 770.683 571 809.683 571 c 132,-1,58
 848.683 571 848.683 571 878.768 597 c 132,-1,59
 908.852 623 908.852 623 915.199 659 c 132,-1,60
 921.547 695 921.547 695 900.309 722 c 132,-1,61
 879.069 749 879.069 749 841.069 749 c 132,-1,62
 803.069 749 803.069 749 772.309 722 c 132,-1,55
 741.547 695 741.547 695 735.199 659 c 132,-1,56
EndSplineSet
EndChar
StartChar: uni0E13
Encoding: 3603 3603 142
Width: 1948
VWidth: 2045
Flags: MW
HStem: -8 134<402.3 503.7 1552.47 1648.03> 305 133<403.6 502.4> 1101 178<553.5 700 553.5 701>
VStem: 229 134<166.75 264.25> 229 180<433 744> 543 134<168.2 261.8> 986 180<177 932.5> 1511 180<420 1254> 1691 136<166.9 263.1>
Fore
1585.06 420 m 9,0,-1
 1732.11 1254 l 1,1,-1
 1912.11 1254 l 1,2,-1
 1765.06 420 l 1,3,4
 1799.24 404 1799.24 404 1840.27 356 c 128,-1,5
 1881.31 308 1881.31 308 1865.09 216 c 0,6,7
 1849.04 125 1849.04 125 1770.82 58.5 c 128,-1,8
 1692.59 -8 1692.59 -8 1599.59 -8 c 0,9,10
 1507.59 -8 1507.59 -8 1462.2 46.5 c 128,-1,11
 1416.81 101 1416.81 101 1412.62 151 c 1,12,-1
 1166 0 l 1,13,-1
 986 0 l 1,14,-1
 1117.19 744 l 2,15,16
 1143.11 891 1143.11 891 1056.12 996 c 128,-1,17
 969.136 1101 969.136 1101 821.136 1101 c 4,18,19
 672.136 1101 672.136 1101 547.445 995 c 0,20,21
 507.45 961 507.45 961 476.573 922 c 1,22,-1
 659.573 922 l 1,23,-1
 628.188 744 l 1,24,-1
 540.188 744 l 1,25,-1
 485.35 433 l 1,26,27
 503.231 438 503.231 438 530.231 438 c 0,28,29
 623.231 438 623.231 438 677.27 373 c 128,-1,30
 731.309 308 731.309 308 715.087 216 c 128,-1,31
 698.864 124 698.864 124 621.727 58 c 128,-1,32
 544.59 -8 544.59 -8 451.59 -8 c 0,33,34
 359.59 -8 359.59 -8 304.815 58.5 c 0,35,36
 251.041 125 251.041 125 266.734 214 c 2,37,-1
 360.188 744 l 1,38,-1
 218.188 744 l 1,39,40
 243.843 889.5 243.843 889.5 338.487 1012.25 c 128,-1,41
 433.131 1135 433.131 1135 569.326 1207 c 128,-1,42
 705.522 1279 705.522 1279 852.522 1279 c 4,43,44
 998.522 1279 998.522 1279 1109.99 1206.5 c 128,-1,45
 1221.46 1134 1221.46 1134 1272.1 1011.5 c 128,-1,46
 1322.75 889 1322.75 889 1297.19 744 c 2,47,-1
 1197.21 177 l 1,48,-1
 1541 397 l 2,49,50
 1565.56 412.714 1565.56 412.714 1585.06 420 c 9,0,-1
1548.91 215 m 128,-1,52
 1542.39 178 1542.39 178 1564.05 152 c 128,-1,53
 1585.72 126 1585.72 126 1622.47 126 c 128,-1,54
 1659.22 126 1659.22 126 1690.8 152 c 128,-1,55
 1722.39 178 1722.39 178 1728.91 215 c 128,-1,56
 1735.43 252 1735.43 252 1712.61 278.5 c 128,-1,57
 1689.78 305 1689.78 305 1653.78 305 c 128,-1,58
 1617.78 305 1617.78 305 1586.61 278.5 c 128,-1,51
 1555.43 252 1555.43 252 1548.91 215 c 128,-1,52
400.998 215.5 m 128,-1,60
 394.386 178 394.386 178 415.302 152 c 128,-1,61
 436.217 126 436.217 126 475.217 126 c 128,-1,62
 514.217 126 514.217 126 544.39 152.5 c 128,-1,63
 574.562 179 574.562 179 580.91 215 c 128,-1,64
 587.258 251 587.258 251 566.019 278 c 128,-1,65
 544.779 305 544.779 305 506.779 305 c 128,-1,66
 468.779 305 468.779 305 438.195 279 c 128,-1,59
 407.61 253 407.61 253 400.998 215.5 c 128,-1,60
218.188 744 m 1,67,-1
 358.188 744 l 1,68,-1
EndSplineSet
EndChar
StartChar: uni0E14
Encoding: 3604 3604 143
Width: 1410
VWidth: 2045
Flags: MW
HStem: 0 21G<161 341 1040 1220> 744 133<641.9 738.1> 1101 178<617.5 764 617.5 765>
VStem: 161 180<210 941.891> 467 134<605.75 703.25> 781 136<607.2 700.8> 1040 180<0 933.15>
Fore
716.406 654.5 m 128,-1,1
 709.794 617 709.794 617 730.798 591.5 c 128,-1,2
 751.801 566 751.801 566 790.301 566 c 128,-1,3
 828.801 566 828.801 566 859.386 592 c 128,-1,4
 889.97 618 889.97 618 896.318 654 c 128,-1,5
 902.666 690 902.666 690 880.427 717 c 128,-1,6
 858.188 744 858.188 744 821.188 744 c 128,-1,7
 784.188 744 784.188 744 753.603 718 c 128,-1,0
 723.019 692 723.019 692 716.406 654.5 c 128,-1,1
341 0 m 17,8,-1
 161 0 l 1,9,-1
 292.188 744 l 2,10,11
 320.808 906.315 320.808 906.315 408.97 1020.66 c 128,-1,12
 497.131 1135 497.131 1135 633.326 1207 c 128,-1,13
 769.522 1279 769.522 1279 916.522 1279 c 4,14,15
 1062.52 1279 1062.52 1279 1174.24 1206.5 c 128,-1,16
 1285.96 1134 1285.96 1134 1331.4 1011.75 c 128,-1,17
 1376.84 889.5 1376.84 889.5 1351.19 744 c 2,18,-1
 1220 0 l 1,19,-1
 1040 0 l 1,20,-1
 1171.01 743 l 2,21,22
 1198.86 900.953 1198.86 900.953 1116 1000.98 c 128,-1,23
 1033.14 1101 1033.14 1101 885.136 1101 c 4,24,25
 731.136 1101 731.136 1101 615.082 998.612 c 128,-1,26
 499.028 896.224 499.028 896.224 472.188 744 c 2,27,-1
 378.028 210 l 1,28,-1
 660.11 460 l 1,29,30
 635.932 476 635.932 476 601.014 519 c 128,-1,31
 566.096 562 566.096 562 582.494 655 c 128,-1,32
 598.893 748 598.893 748 676.266 812.5 c 128,-1,33
 753.639 877 753.639 877 845.639 877 c 0,34,35
 936.639 877 936.639 877 992.178 812 c 128,-1,36
 1047.72 747 1047.72 747 1032.14 653 c 0,37,38
 1017.32 563.356 1017.32 563.356 936.458 496 c 2,39,-1
 341 0 l 17,8,-1
EndSplineSet
EndChar
StartChar: uni0E15
Encoding: 3605 3605 144
Width: 1400
VWidth: 2045
Flags: W
HStem: 0 21G<156 339 1036 1216> 734 133<639.6 738.4>
VStem: 156 178<208 953.875> 465 134<597.2 690.8> 779 136<597.2 690.8> 1036 180<0 980.52>
Fore
712.555 644 m 128,-1,1
 706.207 608 706.207 608 727.122 582 c 128,-1,2
 748.038 556 748.038 556 787.038 556 c 128,-1,3
 826.038 556 826.038 556 856.122 582 c 128,-1,4
 886.207 608 886.207 608 892.555 644 c 128,-1,5
 898.902 680 898.902 680 877.663 707 c 128,-1,6
 856.424 734 856.424 734 818.424 734 c 128,-1,7
 780.424 734 780.424 734 749.663 707 c 128,-1,0
 718.902 680 718.902 680 712.555 644 c 128,-1,1
370.676 208 m 25,8,-1
 657.348 450 l 1,9,10
 636.64 463 636.64 463 599.662 508.5 c 128,-1,11
 562.686 554 562.686 554 578.73 645 c 0,12,13
 594.953 737 594.953 737 672.414 802 c 128,-1,14
 749.875 867 749.875 867 841.875 867 c 0,15,16
 934.875 867 934.875 867 989.414 802 c 128,-1,17
 1043.95 737 1043.95 737 1028.38 643 c 0,18,19
 1013.33 552.012 1013.33 552.012 932.695 486 c 2,20,-1
 339 0 l 1,21,-1
 156 0 l 1,22,-1
 301.47 825 l 2,23,24
 334.724 1013.59 334.724 1013.59 432.039 1120.3 c 128,-1,25
 529.354 1227 529.354 1227 674.114 1254 c 1,26,-1
 881.665 1104 l 1,27,-1
 1140.11 1254 l 1,28,29
 1269.88 1230 1269.88 1230 1330.58 1112 c 128,-1,30
 1391.27 994 1391.27 994 1361.47 825 c 2,31,-1
 1216 0 l 1,32,-1
 1036 0 l 1,33,-1
 1181.12 823 l 2,34,35
 1208.89 980.52 1208.89 980.52 1181.61 1015.76 c 128,-1,36
 1154.32 1051 1154.32 1051 1108.55 1075 c 1,37,-1
 850.455 927 l 1,38,-1
 654.022 1072 l 1,39,40
 604.866 1067.5 604.866 1067.5 553.53 1010.69 c 128,-1,41
 502.194 953.875 502.194 953.875 479.47 825 c 2,42,-1
 370.676 208 l 25,8,-1
1024.79 668 m 0,43,-1
EndSplineSet
EndChar
StartChar: uni0E16
Encoding: 3606 3606 145
Width: 1370
VWidth: 2045
Flags: MW
HStem: -8 134<423.05 517.95> 305 133<423.2 516.8> 744 178<425 517> 1101 178<572.106 717.75 571.5 719.5>
VStem: 245 136<166.9 263.1> 245 180<433 744> 561 136<166.9 263.1> 1004 180<0 890>
Fore
418.91 215 m 128,-1,1
 412.386 178 412.386 178 434.302 152 c 128,-1,2
 456.217 126 456.217 126 492.717 126 c 128,-1,3
 529.217 126 529.217 126 560.802 152 c 128,-1,4
 592.387 178 592.387 178 598.91 215 c 128,-1,5
 605.435 252 605.435 252 582.607 278.5 c 128,-1,6
 559.779 305 559.779 305 523.779 305 c 128,-1,7
 487.779 305 487.779 305 456.607 278.5 c 128,-1,0
 425.435 252 425.435 252 418.91 215 c 128,-1,1
236.188 744 m 1,8,-1
 376.188 744 l 1,9,-1
1184 0 m 1,10,-1
 1004 0 l 1,11,-1
 1135.19 744 l 2,12,13
 1161.11 891 1161.11 891 1074.62 996 c 128,-1,14
 988.136 1101 988.136 1101 839.136 1101 c 4,15,16
 693.348 1101 693.348 1101 565.445 995 c 0,17,18
 525.627 962 525.627 962 496.573 922 c 1,19,-1
 679.573 922 l 1,20,-1
 648.188 744 l 1,21,-1
 556.188 744 l 1,22,-1
 501.35 433 l 1,23,24
 519.231 438 519.231 438 548.231 438 c 0,25,26
 640.231 438 640.231 438 695.77 373 c 128,-1,27
 751.309 308 751.309 308 735.087 216 c 0,28,29
 719.041 125 719.041 125 640.815 58.5 c 128,-1,30
 562.59 -8 562.59 -8 469.59 -8 c 128,-1,31
 376.59 -8 376.59 -8 321.727 58 c 128,-1,32
 266.864 124 266.864 124 282.734 214 c 2,33,-1
 376.188 744 l 1,34,-1
 236.188 744 l 1,35,36
 261.843 889.5 261.843 889.5 356.487 1012.25 c 128,-1,37
 451.131 1135 451.131 1135 587.326 1207 c 128,-1,38
 723.522 1279 723.522 1279 870.522 1279 c 4,39,40
 1016.02 1279 1016.02 1279 1126.58 1207 c 128,-1,41
 1237.13 1135 1237.13 1135 1289.03 1012.5 c 128,-1,42
 1340.93 890 1340.93 890 1315.19 744 c 2,43,-1
 1184 0 l 1,10,-1
EndSplineSet
EndChar
StartChar: uni0E17
Encoding: 3607 3607 146
Width: 1487
VWidth: 2045
Flags: MW
HStem: 0 21G<366 546 1118 1298> 814 134<274.2 367.8> 1087 177<999 1037> 1127 133<272.975 368.525>
VStem: 95 136<987.6 1086.4> 366 180<353 819> 410 136<988.25 1085.75> 1118 180<0 1044.4>
Fore
608.243 353 m 17,0,-1
 1000.37 1125 l 2,1,2
 1022.14 1167.87 1022.14 1167.87 1089.28 1215.25 c 0,3,4
 1155.52 1262 1155.52 1262 1259.88 1264 c 4,5,6
 1362.05 1265 1362.05 1265 1429.12 1194.5 c 128,-1,7
 1496.19 1124 1496.19 1124 1473.45 995 c 2,8,-1
 1298 0 l 1,9,-1
 1118 0 l 1,10,-1
 1293.45 995 l 2,11,12
 1300.15 1033 1300.15 1033 1276.29 1060.75 c 0,13,14
 1253.72 1087 1253.72 1087 1190.67 1087 c 4,15,16
 1125.36 1087 1125.36 1087 1101.91 1043 c 2,17,-1
 546 0 l 1,18,-1
 366 0 l 1,19,-1
 510.412 819 l 1,20,21
 484.53 814 484.53 814 463.53 814 c 0,22,23
 370.53 814 370.53 814 316.168 880 c 128,-1,24
 261.806 946 261.806 946 278.027 1038 c 0,25,26
 294.073 1129 294.073 1129 372.123 1194.5 c 128,-1,27
 450.172 1260 450.172 1260 542.172 1260 c 128,-1,28
 634.172 1260 634.172 1260 689.623 1194.5 c 128,-1,29
 745.073 1129 745.073 1129 728.675 1036 c 2,30,-1
 608.243 353 l 17,0,-1
413.852 1037 m 128,-1,32
 407.15 999 407.15 999 429.654 973.5 c 128,-1,33
 452.158 948 452.158 948 488.158 948 c 128,-1,34
 524.158 948 524.158 948 555.198 973.75 c 128,-1,35
 586.239 999.5 586.239 999.5 592.852 1037 c 128,-1,36
 599.463 1074.5 599.463 1074.5 577.842 1100.75 c 128,-1,37
 556.221 1127 556.221 1127 519.471 1127 c 128,-1,38
 482.721 1127 482.721 1127 451.636 1101 c 128,-1,31
 420.552 1075 420.552 1075 413.852 1037 c 128,-1,32
EndSplineSet
EndChar
StartChar: uni0E18
Encoding: 3608 3608 147
Width: 1228
VWidth: 2045
Flags: MW
HStem: 0 178<219 309 489 814> 744 178<489 798.5> 1111 168<636 636> 1111.05 167.946<476.1 798.5>
VStem: 309 180<178 744> 814 180<178 698.192>
Fore
440.188 744 m 25,0,-1
 227.188 744 l 1,1,2
 252.843 889.5 252.843 889.5 346.398 1011.75 c 128,-1,3
 439.955 1134 439.955 1134 577.238 1206.5 c 128,-1,4
 714.522 1279 714.522 1279 860.522 1279 c 4,5,6
 1007.52 1279 1007.52 1279 1118.42 1207.5 c 128,-1,7
 1229.31 1136 1229.31 1136 1280.62 1013 c 1,8,-1
 1108.93 924 l 1,9,10
 1096.04 970 1096.04 970 1026.64 1041.5 c 128,-1,11
 957.252 1113 957.252 1113 831.899 1111 c 4,12,13
 708.723 1110 708.723 1110 622.701 1056 c 128,-1,14
 536.68 1002 536.68 1002 485.573 922 c 1,15,-1
 884.573 922 l 2,16,17
 996.573 922 996.573 922 1061.76 842.25 c 0,18,19
 1128.45 762.5 1128.45 762.5 1109.14 653 c 2,20,-1
 994 0 l 1,21,-1
 219 0 l 1,22,-1
 250.386 178 l 1,23,-1
 340.386 178 l 1,24,-1
 440.188 744 l 25,0,-1
620.188 744 m 25,25,-1
 520.387 178 l 1,26,-1
 845.387 178 l 1,27,-1
 929.142 653 l 2,28,29
 933.902 680 933.902 680 923.545 712 c 128,-1,30
 913.188 744 913.188 744 858.188 744 c 2,31,-1
 620.188 744 l 25,25,-1
EndSplineSet
EndChar
StartChar: uni0E19
Encoding: 3609 3609 148
Width: 1451
VWidth: 2045
Flags: W
HStem: -8 134<1052.05 1146.95> 814 134<264.2 357.8> 1127 133<262.975 358.525>
VStem: 85 136<987.6 1086.4> 356 180<178 819> 400 136<988.25 1085.75> 1011 180<419.96 1254> 1189 136<168.2 261.8>
Fore
1046.91 215 m 132,-1,1
 1040.39 178 1040.39 178 1062.8 152 c 132,-1,2
 1085.22 126 1085.22 126 1121.72 126 c 132,-1,3
 1158.22 126 1158.22 126 1189.39 152.5 c 132,-1,4
 1220.56 179 1220.56 179 1226.91 215 c 132,-1,5
 1233.26 251 1233.26 251 1211.02 278 c 132,-1,6
 1188.78 305 1188.78 305 1153.28 305 c 132,-1,7
 1117.78 305 1117.78 305 1085.61 278.5 c 132,-1,0
 1053.43 252 1053.43 252 1046.91 215 c 132,-1,1
536 0 m 5,8,-1
 356 0 l 5,9,-1
 500.412 819 l 5,10,11
 474.53 814 474.53 814 453.53 814 c 4,12,13
 360.53 814 360.53 814 306.168 880 c 132,-1,14
 251.806 946 251.806 946 268.027 1038 c 4,15,16
 284.073 1129 284.073 1129 362.123 1194.5 c 132,-1,17
 440.172 1260 440.172 1260 532.172 1260 c 132,-1,18
 624.172 1260 624.172 1260 679.623 1194.5 c 132,-1,19
 735.073 1129 735.073 1129 718.675 1036 c 6,20,-1
 567.387 178 l 5,21,-1
 1059.47 411 l 6,22,23
 1083.29 421.837 1083.29 421.837 1085.59 423 c 5,24,-1
 1232.11 1254 l 5,25,-1
 1412.11 1254 l 5,26,-1
 1264.71 418 l 5,27,28
 1299.88 402 1299.88 402 1339.68 355.5 c 132,-1,29
 1379.49 309 1379.49 309 1363.09 216 c 4,30,31
 1346.86 124 1346.86 124 1268.73 58 c 132,-1,32
 1190.59 -8 1190.59 -8 1097.59 -8 c 132,-1,33
 1004.59 -8 1004.59 -8 951.051 57 c 4,34,35
 910.69 106 910.69 106 909.623 168 c 5,36,-1
 536 0 l 5,8,-1
403.852 1037 m 132,-1,38
 397.15 999 397.15 999 419.654 973.5 c 132,-1,39
 442.158 948 442.158 948 478.158 948 c 132,-1,40
 514.158 948 514.158 948 545.198 973.75 c 132,-1,41
 576.239 999.5 576.239 999.5 582.852 1037 c 132,-1,42
 589.463 1074.5 589.463 1074.5 567.842 1100.75 c 132,-1,43
 546.221 1127 546.221 1127 509.471 1127 c 132,-1,44
 472.721 1127 472.721 1127 441.636 1101 c 132,-1,37
 410.552 1075 410.552 1075 403.852 1037 c 132,-1,38
EndSplineSet
EndChar
StartChar: uni0E1A
Encoding: 3610 3610 149
Width: 1420
VWidth: 2045
Flags: W
HStem: 0 178<270 361 539 1041> 814 134<269.35 361.65> 1127 133<268.05 362.95>
VStem: 90 136<987.6 1086.4> 361 178<178 819> 405 135<988.9 1085.1> 1041 180<178 1254>
Fore
392.386 178 m 25,0,-1
 505.412 819 l 1,1,2
 479.53 814 479.53 814 458.53 814 c 0,3,4
 365.53 814 365.53 814 311.168 880 c 128,-1,5
 256.806 946 256.806 946 273.027 1038 c 0,6,7
 289.073 1129 289.073 1129 367.123 1194.5 c 128,-1,8
 445.172 1260 445.172 1260 537.172 1260 c 0,9,10
 630.172 1260 630.172 1260 684.757 1194.95 c 128,-1,11
 739.341 1129.9 739.341 1129.9 722.675 1036 c 2,12,-1
 570.387 178 l 1,13,-1
 1072.39 178 l 1,14,-1
 1262.11 1254 l 1,15,-1
 1442.11 1254 l 1,16,-1
 1221 0 l 1,17,-1
 270 0 l 1,18,-1
 301.386 178 l 1,19,-1
 392.386 178 l 25,0,-1
408.852 1037 m 128,-1,21
 402.15 999 402.15 999 424.654 973.5 c 128,-1,22
 447.158 948 447.158 948 482.658 948 c 128,-1,23
 518.158 948 518.158 948 549.742 974 c 128,-1,24
 581.327 1000 581.327 1000 587.852 1037 c 128,-1,25
 594.375 1074 594.375 1074 572.548 1100.5 c 128,-1,26
 550.721 1127 550.721 1127 514.221 1127 c 128,-1,27
 477.721 1127 477.721 1127 446.636 1101 c 128,-1,20
 415.552 1075 415.552 1075 408.852 1037 c 128,-1,21
EndSplineSet
EndChar
StartChar: uni0E1B
Encoding: 3611 3611 150
Width: 1420
VWidth: 2045
Flags: W
HStem: 0 178<270 361 540 1041> 814 134<269.35 361.65> 1127 133<268.05 362.95>
VStem: 90 136<987.6 1086.4> 361 179<178 819> 405 135<988.9 1085.1> 1041 180<178 1832>
AnchorPoint: "AboveBase" 1163.53 1339.4 basechar 0
Fore
392.386 178 m 25,0,-1
 505.412 819 l 1,1,2
 481.53 814 481.53 814 458.53 814 c 0,3,4
 365.53 814 365.53 814 311.168 880 c 128,-1,5
 256.806 946 256.806 946 273.027 1038 c 0,6,7
 289.073 1129 289.073 1129 367.123 1194.5 c 128,-1,8
 445.172 1260 445.172 1260 537.172 1260 c 0,9,10
 630.172 1260 630.172 1260 684.613 1194.45 c 128,-1,11
 739.056 1128.9 739.056 1128.9 722.675 1036 c 2,12,-1
 571.387 178 l 1,13,-1
 1072.39 178 l 1,14,-1
 1364.03 1832 l 1,15,-1
 1544.03 1832 l 1,16,-1
 1221 0 l 1,17,-1
 270 0 l 1,18,-1
 301.386 178 l 1,19,-1
 392.386 178 l 25,0,-1
408.852 1037 m 128,-1,21
 402.15 999 402.15 999 424.654 973.5 c 128,-1,22
 447.158 948 447.158 948 482.658 948 c 128,-1,23
 518.158 948 518.158 948 549.742 974 c 128,-1,24
 581.327 1000 581.327 1000 587.852 1037 c 128,-1,25
 594.375 1074 594.375 1074 572.548 1100.5 c 128,-1,26
 550.721 1127 550.721 1127 514.221 1127 c 128,-1,27
 477.721 1127 477.721 1127 446.636 1101 c 128,-1,20
 415.552 1075 415.552 1075 408.852 1037 c 128,-1,21
EndSplineSet
EndChar
StartChar: uni0E1C
Encoding: 3612 3612 151
Width: 1373
VWidth: 2045
Flags: W
HStem: 0 21G<186 366 1012 1192> 814 134<365.35 457.65> 1127 133<367.05 461.95>
VStem: 186 180<264 819> 186 136<988.9 1085.1> 502 136<988.25 1085.75> 1012 180<264 1254>
Fore
186 0 m 25,0,-1
 368.675 1036 l 2,1,2
 385.073 1129 385.073 1129 463.623 1194.5 c 128,-1,3
 542.172 1260 542.172 1260 624.172 1260 c 4,4,5
 726.172 1260 726.172 1260 781.534 1194 c 128,-1,6
 836.896 1128 836.896 1128 821.027 1038 c 0,7,8
 804.981 947 804.981 947 726.756 880.5 c 128,-1,9
 648.53 814 648.53 814 555.53 814 c 0,10,11
 532.53 814 532.53 814 510.412 819 c 1,12,-1
 412.551 264 l 1,13,-1
 805.729 662 l 1,14,-1
 1058.55 264 l 1,15,-1
 1233.11 1254 l 1,16,-1
 1413.11 1254 l 1,17,-1
 1192 0 l 1,18,-1
 1012 0 l 1,19,-1
 758.825 396 l 1,20,-1
 366 0 l 1,21,-1
 186 0 l 25,0,-1
684.852 1037 m 128,-1,23
 691.463 1074.5 691.463 1074.5 669.092 1100.75 c 128,-1,24
 646.721 1127 646.721 1127 600.221 1127 c 4,25,26
 573.721 1127 573.721 1127 542.548 1100.5 c 128,-1,27
 511.375 1074 511.375 1074 504.852 1037 c 128,-1,28
 498.327 1000 498.327 1000 520.742 974 c 128,-1,29
 543.158 948 543.158 948 578.658 948 c 128,-1,30
 614.158 948 614.158 948 646.198 973.75 c 128,-1,22
 678.239 999.5 678.239 999.5 684.852 1037 c 128,-1,23
EndSplineSet
EndChar
StartChar: uni0E1D
Encoding: 3613 3613 152
Width: 1373
VWidth: 2045
Flags: W
HStem: 0 21G<186 366 1012 1192> 814 134<365.35 457.65> 1127 133<364.05 458.95>
VStem: 186 180<264 819> 186 136<988.9 1085.1> 502 136<988.25 1085.75> 1012 180<264 1832>
AnchorPoint: "AboveBase" 1136.76 1327.48 basechar 0
Fore
186 0 m 25,0,-1
 368.675 1036 l 2,1,2
 385.073 1129 385.073 1129 463.623 1194.5 c 128,-1,3
 542.172 1260 542.172 1260 634.172 1260 c 132,-1,4
 726.172 1260 726.172 1260 781.534 1194 c 128,-1,5
 836.896 1128 836.896 1128 821.027 1038 c 0,6,7
 804.981 947 804.981 947 726.756 880.5 c 128,-1,8
 648.53 814 648.53 814 555.53 814 c 0,9,10
 532.53 814 532.53 814 510.412 819 c 1,11,-1
 412.551 264 l 1,12,-1
 805.729 662 l 1,13,-1
 1058.55 264 l 1,14,-1
 1335.03 1832 l 1,15,-1
 1515.03 1832 l 1,16,-1
 1192 0 l 1,17,-1
 1012 0 l 1,18,-1
 758.825 396 l 1,19,-1
 366 0 l 1,20,-1
 186 0 l 25,0,-1
684.852 1037 m 128,-1,22
 691.463 1074.5 691.463 1074.5 669.092 1100.75 c 128,-1,23
 646.721 1127 646.721 1127 610.221 1127 c 132,-1,24
 573.721 1127 573.721 1127 542.548 1100.5 c 128,-1,25
 511.375 1074 511.375 1074 504.852 1037 c 128,-1,26
 498.327 1000 498.327 1000 520.742 974 c 128,-1,27
 543.158 948 543.158 948 578.658 948 c 128,-1,28
 614.158 948 614.158 948 646.198 973.75 c 128,-1,21
 678.239 999.5 678.239 999.5 684.852 1037 c 128,-1,22
EndSplineSet
EndChar
StartChar: uni0E1E
Encoding: 3614 3614 153
Width: 1552
VWidth: 2045
Flags: W
HStem: 0 21G<356 536 1190 1370> 814 134<264.2 357.8> 1127 133<262.975 358.525>
VStem: 85 136<987.6 1086.4> 356 180<453 819> 400 136<988.25 1085.75> 1190 180<454 1254>
Fore
536 0 m 1,0,-1
 356 0 l 1,1,-1
 500.412 819 l 1,2,3
 476.53 814 476.53 814 453.53 814 c 0,4,5
 360.53 814 360.53 814 306.168 880 c 128,-1,6
 251.806 946 251.806 946 268.027 1038 c 0,7,8
 284.073 1129 284.073 1129 362.123 1194.5 c 128,-1,9
 440.172 1260 440.172 1260 532.172 1260 c 128,-1,10
 624.172 1260 624.172 1260 679.753 1194.34 c 128,-1,11
 735.335 1128.68 735.335 1128.68 718.675 1036 c 2,12,-1
 613.876 453 l 1,13,-1
 1025.11 1254 l 1,14,-1
 1141.11 1254 l 1,15,-1
 1270.05 454 l 1,16,-1
 1411.11 1254 l 1,17,-1
 1591.11 1254 l 1,18,-1
 1370 0 l 1,19,-1
 1190 0 l 1,20,-1
 1031.04 953 l 1,21,-1
 536 0 l 1,0,-1
403.852 1037 m 128,-1,23
 397.15 999 397.15 999 419.654 973.5 c 128,-1,24
 442.158 948 442.158 948 478.158 948 c 128,-1,25
 514.158 948 514.158 948 545.198 973.75 c 128,-1,26
 576.239 999.5 576.239 999.5 582.852 1037 c 128,-1,27
 589.463 1074.5 589.463 1074.5 567.842 1100.75 c 128,-1,28
 546.221 1127 546.221 1127 509.471 1127 c 128,-1,29
 472.721 1127 472.721 1127 441.636 1101 c 128,-1,22
 410.552 1075 410.552 1075 403.852 1037 c 128,-1,23
EndSplineSet
EndChar
StartChar: uni0E1F
Encoding: 3615 3615 154
Width: 1552
VWidth: 2045
Flags: W
HStem: 0 21G<356 536 1190 1370> 814 134<264.2 357.8> 1127 133<262.975 358.525>
VStem: 85 136<987.6 1086.4> 356 180<453 819> 400 136<988.25 1085.75> 1190 180<454 1832>
AnchorPoint: "AboveBase" 1261.65 1400.47 basechar 0
Fore
536 0 m 1,0,-1
 356 0 l 1,1,-1
 500.412 819 l 1,2,3
 476.53 814 476.53 814 453.53 814 c 0,4,5
 360.53 814 360.53 814 306.168 880 c 128,-1,6
 251.806 946 251.806 946 268.027 1038 c 0,7,8
 284.073 1129 284.073 1129 362.123 1194.5 c 128,-1,9
 440.172 1260 440.172 1260 532.172 1260 c 128,-1,10
 624.172 1260 624.172 1260 679.623 1194.5 c 0,11,12
 735.335 1128.68 735.335 1128.68 718.675 1036 c 2,13,-1
 613.876 453 l 1,14,-1
 1025.11 1254 l 1,15,-1
 1141.11 1254 l 1,16,-1
 1270.05 454 l 1,17,-1
 1513.03 1832 l 1,18,-1
 1693.03 1832 l 1,19,-1
 1370 0 l 1,20,-1
 1190 0 l 1,21,-1
 1031.04 953 l 1,22,-1
 536 0 l 1,0,-1
403.852 1037 m 128,-1,24
 397.15 999 397.15 999 419.654 973.5 c 128,-1,25
 442.158 948 442.158 948 478.158 948 c 128,-1,26
 514.158 948 514.158 948 545.198 973.75 c 128,-1,27
 576.239 999.5 576.239 999.5 582.852 1037 c 128,-1,28
 589.463 1074.5 589.463 1074.5 567.842 1100.75 c 128,-1,29
 546.221 1127 546.221 1127 509.471 1127 c 128,-1,30
 472.721 1127 472.721 1127 441.636 1101 c 128,-1,23
 410.552 1075 410.552 1075 403.852 1037 c 128,-1,24
EndSplineSet
EndChar
StartChar: uni0E20
Encoding: 3616 3616 155
Width: 1465
VWidth: 2045
Flags: MW
HStem: -8 134<264.05 358.95> 305 133<265.35 357.65> 744 178<537 626> 1101 178<662.533 805.5 659 807.25>
VStem: 86 136<166.75 264.25> 357 180<433 744> 401 136<166.75 264.25> 1092 180<0 932.5>
Fore
324.188 744 m 1,0,1
 349.931 890 349.931 890 444.943 1012 c 128,-1,2
 539.955 1134 539.955 1134 675.738 1206.5 c 128,-1,3
 811.522 1279 811.522 1279 957.522 1279 c 4,4,5
 1104.52 1279 1104.52 1279 1214.83 1207 c 128,-1,6
 1325.13 1135 1325.13 1135 1377.44 1012 c 0,7,8
 1428.75 889 1428.75 889 1403.19 744 c 2,9,-1
 1272 0 l 1,10,-1
 1092 0 l 1,11,-1
 1223.19 744 l 2,12,13
 1249.28 891.993 1249.28 891.993 1162.87 996 c 0,14,15
 1075.64 1101 1075.64 1101 927.136 1101 c 4,16,17
 786.203 1101 786.203 1101 654.445 995 c 0,18,19
 617.155 965 617.155 965 583.573 922 c 1,20,-1
 788.573 922 l 1,21,-1
 757.188 744 l 1,22,-1
 668.188 744 l 1,23,-1
 575.087 216 l 2,24,25
 558.688 123 558.688 123 480.639 57.5 c 128,-1,26
 402.59 -8 402.59 -8 310.59 -8 c 0,27,28
 216.59 -8 216.59 -8 162.227 58 c 128,-1,29
 107.864 124 107.864 124 124.087 216 c 128,-1,30
 140.309 308 140.309 308 218.27 373 c 128,-1,31
 296.231 438 296.231 438 389.231 438 c 0,32,33
 417.231 438 417.231 438 433.35 433 c 1,34,-1
 488.188 744 l 1,35,-1
 324.188 744 l 1,0,1
259.998 215.5 m 128,-1,37
 253.386 178 253.386 178 275.302 152 c 128,-1,38
 297.217 126 297.217 126 333.717 126 c 128,-1,39
 370.217 126 370.217 126 401.302 152 c 128,-1,40
 432.386 178 432.386 178 438.998 215.5 c 128,-1,41
 445.61 253 445.61 253 423.195 279 c 128,-1,42
 400.779 305 400.779 305 365.279 305 c 128,-1,43
 329.779 305 329.779 305 298.195 279 c 128,-1,36
 266.61 253 266.61 253 259.998 215.5 c 128,-1,37
EndSplineSet
EndChar
StartChar: uni0E21
Encoding: 3617 3617 156
Width: 1422
VWidth: 2045
Flags: W
HStem: -8 134<289.9 386.1> 305 133<291.2 384.8> 814 134<290.9 387.1> 1127 133<289.75 387.25>
VStem: 114 135<166.75 264.25 987.6 1086.4> 384 178<433 819> 428 134<168.2 201 987.6 1086.4> 1036 180<168 1254>
Fore
597.441 201 m 17,0,1
 578.982 119 578.982 119 503.786 55.5 c 128,-1,2
 428.59 -8 428.59 -8 336.59 -8 c 0,3,4
 243.59 -8 243.59 -8 189.227 58 c 128,-1,5
 134.864 124 134.864 124 151.087 216 c 128,-1,6
 167.309 308 167.309 308 245.27 373 c 128,-1,7
 323.231 438 323.231 438 414.231 438 c 0,8,9
 442.231 438 442.231 438 460.35 433 c 1,10,-1
 526.412 819 l 1,11,12
 502.53 814 502.53 814 481.53 814 c 0,13,14
 387.53 814 387.53 814 334.168 880 c 128,-1,15
 280.806 946 280.806 946 297.027 1038 c 0,16,17
 313.073 1129 313.073 1129 390.123 1194.5 c 128,-1,18
 467.172 1260 467.172 1260 560.172 1260 c 0,19,20
 652.172 1260 652.172 1260 707.211 1195 c 0,21,22
 761.25 1130 761.25 1130 744.675 1036 c 2,23,-1
 627.064 369 l 1,24,-1
 1065.62 168 l 5,25,-1
 1257.11 1254 l 5,26,-1
 1437.11 1254 l 5,27,-1
 1216 0 l 5,28,-1
 1036 0 l 5,29,-1
 597.441 201 l 17,0,1
286.998 215.5 m 128,-1,31
 280.386 178 280.386 178 301.802 152 c 128,-1,32
 323.217 126 323.217 126 360.217 126 c 128,-1,33
 397.217 126 397.217 126 428.39 152.5 c 128,-1,34
 459.562 179 459.562 179 465.91 215 c 128,-1,35
 472.258 251 472.258 251 450.019 278 c 128,-1,36
 427.779 305 427.779 305 391.779 305 c 128,-1,37
 355.779 305 355.779 305 324.695 279 c 128,-1,30
 293.61 253 293.61 253 286.998 215.5 c 128,-1,31
431.852 1037 m 128,-1,39
 425.15 999 425.15 999 447.154 973.5 c 128,-1,40
 469.158 948 469.158 948 506.158 948 c 128,-1,41
 543.158 948 543.158 948 573.654 973.5 c 128,-1,42
 604.15 999 604.15 999 610.852 1037 c 128,-1,43
 617.552 1075 617.552 1075 596.136 1101 c 128,-1,44
 574.721 1127 574.721 1127 537.221 1127 c 128,-1,45
 499.721 1127 499.721 1127 469.136 1101 c 128,-1,38
 438.552 1075 438.552 1075 431.852 1037 c 128,-1,39
EndSplineSet
EndChar
StartChar: uni0E22
Encoding: 3618 3618 157
Width: 1321
VWidth: 2045
Flags: W
HStem: 0 178<408 937> 520 178<467.986 682> 816 133<409.6 508.4> 1127 133<412.05 506.95>
VStem: 228 180<178 479.65> 548 136<988.75 1086.25> 937 180<178 1254>
Fore
602.076 698 m 2,0,-1
 805.076 698 l 1,1,-1
 773.69 520 l 1,2,-1
 578.69 520 l 2,3,4
 561.69 520 561.69 520 526.062 493.75 c 128,-1,5
 490.433 467.5 490.433 467.5 483.292 427 c 2,6,-1
 439.386 178 l 1,7,-1
 968.387 178 l 5,8,-1
 1158.11 1254 l 5,9,-1
 1338.11 1254 l 5,10,-1
 1117 0 l 5,11,-1
 228 0 l 1,12,-1
 309.992 465 l 2,13,14
 324.804 549 324.804 549 385.268 597 c 1,15,16
 353.912 612 353.912 612 307.798 690.75 c 128,-1,17
 261.684 769.5 261.684 769.5 282.578 888 c 0,18,19
 299.329 983 299.329 983 351.229 1067.5 c 128,-1,20
 403.129 1152 403.129 1152 489.503 1208 c 128,-1,21
 575.877 1264 575.877 1264 682.172 1260 c 0,22,23
 777.643 1257 777.643 1257 830.358 1193 c 128,-1,24
 883.073 1129 883.073 1129 867.027 1038 c 128,-1,25
 850.981 947 850.981 947 771.991 879 c 0,26,27
 694.646 812.416 694.646 812.416 603.883 816 c 0,28,29
 489.626 820.512 489.626 820.512 454.578 888 c 1,30,31
 439.414 802 439.414 802 479.745 750 c 128,-1,32
 520.076 698 520.076 698 602.076 698 c 2,0,-1
551.027 1038 m 128,-1,34
 544.327 1000 544.327 1000 566.331 974.5 c 128,-1,35
 588.334 949 588.334 949 626.334 949 c 128,-1,36
 664.334 949 664.334 949 694.331 974.5 c 128,-1,37
 724.327 1000 724.327 1000 730.939 1037.5 c 128,-1,38
 737.552 1075 737.552 1075 716.136 1101 c 128,-1,39
 694.721 1127 694.721 1127 658.221 1127 c 128,-1,40
 621.721 1127 621.721 1127 589.725 1101.5 c 128,-1,33
 557.728 1076 557.728 1076 551.027 1038 c 128,-1,34
EndSplineSet
EndChar
StartChar: uni0E23
Encoding: 3619 3619 158
Width: 1172
VWidth: 2045
Flags: MW
HStem: -8 134<548.05 642.95> 305 133<549.35 641.65> 744 178<312 601.3> 1101 178<551 697.5>
VStem: 370 136<166.75 264.25> 641 180<433 711.5> 685 136<168.2 261.8>
Fore
543.998 215.5 m 128,-1,1
 537.387 178 537.387 178 559.302 152 c 128,-1,2
 581.217 126 581.217 126 617.717 126 c 128,-1,3
 654.217 126 654.217 126 685.39 152.5 c 128,-1,4
 716.562 179 716.562 179 722.91 215 c 128,-1,5
 729.258 251 729.258 251 707.019 278 c 128,-1,6
 684.779 305 684.779 305 649.279 305 c 128,-1,7
 613.779 305 613.779 305 582.195 279 c 128,-1,0
 550.61 253 550.61 253 543.998 215.5 c 128,-1,1
756.142 653 m 2,8,9
 764.076 698 764.076 698 742.132 721 c 128,-1,10
 720.188 744 720.188 744 679.188 744 c 2,11,-1
 216.188 744 l 1,12,13
 241.843 889.5 241.843 889.5 335.398 1011.75 c 128,-1,14
 428.955 1134 428.955 1134 566.238 1206.5 c 128,-1,15
 703.522 1279 703.522 1279 849.522 1279 c 4,16,17
 997.522 1279 997.522 1279 1108 1208 c 128,-1,18
 1218.48 1137 1218.48 1137 1269.62 1013 c 1,19,-1
 1097.93 924 l 1,20,21
 1081.63 962 1081.63 962 1054.45 995 c 0,22,23
 965.136 1101 965.136 1101 818.136 1101 c 4,24,25
 672.136 1101 672.136 1101 545.445 995 c 0,26,27
 506.803 963 506.803 963 474.573 922 c 1,28,-1
 706.573 922 l 2,29,30
 811.278 922 811.278 922 885.496 849.25 c 0,31,32
 958.183 778 958.183 778 936.142 653 c 2,33,-1
 859.087 216 l 2,34,35
 842.688 123 842.688 123 764.639 57.5 c 128,-1,36
 686.59 -8 686.59 -8 593.59 -8 c 128,-1,37
 500.59 -8 500.59 -8 446.227 58 c 128,-1,38
 391.864 124 391.864 124 408.087 216 c 128,-1,39
 424.309 308 424.309 308 502.27 373 c 128,-1,40
 580.231 438 580.231 438 672.231 438 c 0,41,42
 701.231 438 701.231 438 717.35 433 c 1,43,-1
 756.142 653 l 2,8,9
EndSplineSet
EndChar
StartChar: uni0E24
Encoding: 3620 3620 159
Width: 1367
VWidth: 2045
Flags: MW
HStem: -8 134<443.05 537.95> 305 133<443.2 536.8> 744 178<445 537> 1101 178<592.106 737.75 591.5 739.5>
VStem: 265 136<166.9 263.1> 265 180<433 744> 581 136<166.9 263.1> 1024 180<-551 890>
Fore
438.91 215 m 128,-1,1
 432.386 178 432.386 178 454.302 152 c 128,-1,2
 476.217 126 476.217 126 512.717 126 c 128,-1,3
 549.217 126 549.217 126 580.802 152 c 128,-1,4
 612.387 178 612.387 178 618.91 215 c 128,-1,5
 625.435 252 625.435 252 602.607 278.5 c 128,-1,6
 579.779 305 579.779 305 543.779 305 c 128,-1,7
 507.779 305 507.779 305 476.607 278.5 c 128,-1,0
 445.435 252 445.435 252 438.91 215 c 128,-1,1
256.188 744 m 1,8,-1
 396.188 744 l 1,9,-1
1106.84 -551 m 1,10,-1
 926.844 -551 l 1,11,-1
 1155.19 744 l 2,12,13
 1181.11 891 1181.11 891 1094.62 996 c 128,-1,14
 1008.14 1101 1008.14 1101 859.136 1101 c 4,15,16
 713.348 1101 713.348 1101 585.445 995 c 0,17,18
 545.627 962 545.627 962 516.573 922 c 1,19,-1
 699.573 922 l 1,20,-1
 668.188 744 l 1,21,-1
 576.188 744 l 1,22,-1
 521.35 433 l 1,23,24
 539.231 438 539.231 438 568.231 438 c 0,25,26
 660.231 438 660.231 438 715.77 373 c 128,-1,27
 771.309 308 771.309 308 755.087 216 c 0,28,29
 739.041 125 739.041 125 660.815 58.5 c 128,-1,30
 582.59 -8 582.59 -8 489.59 -8 c 128,-1,31
 396.59 -8 396.59 -8 341.727 58 c 128,-1,32
 286.864 124 286.864 124 302.734 214 c 2,33,-1
 396.188 744 l 1,34,-1
 256.188 744 l 1,35,36
 281.843 889.5 281.843 889.5 376.487 1012.25 c 128,-1,37
 471.131 1135 471.131 1135 607.326 1207 c 128,-1,38
 743.522 1279 743.522 1279 890.522 1279 c 4,39,40
 1036.02 1279 1036.02 1279 1146.58 1207 c 128,-1,41
 1257.13 1135 1257.13 1135 1309.03 1012.5 c 128,-1,42
 1360.93 890 1360.93 890 1335.19 744 c 2,43,-1
 1106.84 -551 l 1,10,-1
EndSplineSet
EndChar
StartChar: uni0E25
Encoding: 3621 3621 160
Width: 1385
VWidth: 2045
Flags: MW
HStem: -8 134<428.05 522.95> 305 133<429.35 521.65> 675 178<496.8 834.8> 1101 178<571.5 719>
VStem: 105 180<744 933.8> 250 136<168.2 261.8> 250 180<433 602.6> 566 136<166.9 263.1> 1003 180<0 466 718 893.01>
Fore
1129.6 718 m 9,0,-1
 1134.19 744 l 2,1,2
 1160.46 893.01 1160.46 893.01 1073.39 997.5 c 0,3,4
 987.136 1101 987.136 1101 839.136 1101 c 4,5,6
 692.136 1101 692.136 1101 567.122 996 c 128,-1,7
 442.107 891 442.107 891 416.188 744 c 1,8,-1
 236.188 744 l 1,9,10
 261.931 890 261.931 890 355.943 1012 c 128,-1,11
 449.955 1134 449.955 1134 586.738 1206.5 c 128,-1,12
 723.522 1279 723.522 1279 870.522 1279 c 4,13,14
 1018.52 1279 1018.52 1279 1129.65 1206 c 128,-1,15
 1240.78 1133 1240.78 1133 1290.35 1011.5 c 128,-1,16
 1339.93 890 1339.93 890 1314.19 744 c 2,17,-1
 1183 0 l 1,18,-1
 1003 0 l 1,19,-1
 1058.9 317 l 2,20,21
 1085.17 466 1085.17 466 998.595 570.5 c 128,-1,22
 912.021 675 912.021 675 764.021 675 c 0,23,24
 650.021 675 650.021 675 590.969 626.5 c 128,-1,25
 531.917 578 531.917 578 517.458 496 c 2,26,-1
 506.35 433 l 1,27,28
 525.231 438 525.231 438 553.231 438 c 0,29,30
 645.231 438 645.231 438 700.77 373 c 128,-1,31
 756.309 308 756.309 308 740.087 216 c 0,32,33
 724.041 125 724.041 125 645.815 58.5 c 128,-1,34
 567.59 -8 567.59 -8 474.59 -8 c 0,35,36
 382.59 -8 382.59 -8 327.139 57.5 c 128,-1,37
 271.688 123 271.688 123 287.734 214 c 2,38,-1
 337.282 495 l 2,39,40
 365.847 657 365.847 657 490.127 755 c 128,-1,41
 614.407 853 614.407 853 795.407 853 c 0,42,43
 941.407 853 941.407 853 1019.59 803 c 128,-1,44
 1097.77 753 1097.77 753 1129.6 718 c 9,0,-1
423.91 215 m 128,-1,46
 417.562 179 417.562 179 439.39 152.5 c 128,-1,47
 461.217 126 461.217 126 497.717 126 c 128,-1,48
 534.217 126 534.217 126 565.802 152 c 128,-1,49
 597.387 178 597.387 178 603.91 215 c 128,-1,50
 610.435 252 610.435 252 587.607 278.5 c 128,-1,51
 564.779 305 564.779 305 529.279 305 c 128,-1,52
 493.779 305 493.779 305 462.019 278 c 128,-1,45
 430.258 251 430.258 251 423.91 215 c 128,-1,46
EndSplineSet
EndChar
StartChar: uni0E26
Encoding: 3622 3622 161
Width: 1504
VWidth: 2045
Flags: MW
HStem: -8 134<294.05 388.95> 305 133<295.35 387.65> 744 178<567 656> 1101 178<692.533 835.5 689 837>
VStem: 116 136<166.75 264.25> 387 180<433 744> 431 136<166.75 264.25> 1122 180<-550 931.2>
Fore
354.188 744 m 1,0,1
 379.931 890 379.931 890 474.943 1012 c 128,-1,2
 569.955 1134 569.955 1134 705.738 1206.5 c 128,-1,3
 841.522 1279 841.522 1279 987.522 1279 c 4,4,5
 1134.52 1279 1134.52 1279 1244.83 1207 c 128,-1,6
 1355.13 1135 1355.13 1135 1407.44 1012 c 0,7,8
 1458.75 889 1458.75 889 1433.19 744 c 2,9,-1
 1205.02 -550 l 1,10,-1
 1024.84 -551 l 1,11,-1
 1253.19 744 l 2,12,13
 1278.58 888 1278.58 888 1191.86 994.5 c 128,-1,14
 1105.14 1101 1105.14 1101 957.136 1101 c 4,15,16
 816.203 1101 816.203 1101 684.445 995 c 0,17,18
 647.155 965 647.155 965 613.573 922 c 1,19,-1
 818.573 922 l 1,20,-1
 787.188 744 l 1,21,-1
 698.188 744 l 1,22,-1
 605.087 216 l 2,23,24
 588.688 123 588.688 123 510.639 57.5 c 128,-1,25
 432.59 -8 432.59 -8 340.59 -8 c 0,26,27
 246.59 -8 246.59 -8 192.227 58 c 128,-1,28
 137.864 124 137.864 124 154.087 216 c 128,-1,29
 170.309 308 170.309 308 248.27 373 c 128,-1,30
 326.231 438 326.231 438 419.231 438 c 0,31,32
 447.231 438 447.231 438 463.35 433 c 1,33,-1
 518.188 744 l 1,34,-1
 354.188 744 l 1,0,1
289.998 215.5 m 128,-1,36
 283.386 178 283.386 178 305.302 152 c 128,-1,37
 327.217 126 327.217 126 363.717 126 c 128,-1,38
 400.217 126 400.217 126 431.302 152 c 128,-1,39
 462.386 178 462.386 178 468.998 215.5 c 128,-1,40
 475.61 253 475.61 253 453.195 279 c 128,-1,41
 430.779 305 430.779 305 395.279 305 c 128,-1,42
 359.779 305 359.779 305 328.195 279 c 128,-1,35
 296.61 253 296.61 253 289.998 215.5 c 128,-1,36
EndSplineSet
EndChar
StartChar: uni0E27
Encoding: 3623 3623 162
Width: 1174
VWidth: 2045
Flags: MW
HStem: -8 134<724.3 825.7> 305 133<725.6 824.4> 1096 180<494 605>
VStem: 98 181<829 973.3> 551 134<168.2 261.8> 821 180<433 973.3> 865 136<168.2 261.8>
Fore
244.175 829 m 17,0,1
 265.511 950 265.511 950 344.672 1053 c 128,-1,2
 423.834 1156 423.834 1156 536.914 1216 c 128,-1,3
 649.993 1276 649.993 1276 774.993 1276 c 4,4,5
 898.993 1276 898.993 1276 990.914 1216 c 128,-1,6
 1082.83 1156 1082.83 1156 1125.67 1053 c 128,-1,7
 1168.51 950 1168.51 950 1147.17 829 c 2,8,-1
 1039.09 216 l 2,9,10
 1022.69 123 1022.69 123 944.139 57.5 c 128,-1,11
 865.59 -8 865.59 -8 773.59 -8 c 0,12,13
 680.59 -8 680.59 -8 626.727 58 c 128,-1,14
 572.864 124 572.864 124 589.087 216 c 128,-1,15
 605.309 308 605.309 308 682.27 373 c 128,-1,16
 759.231 438 759.231 438 854.231 438 c 0,17,18
 881.231 438 881.231 438 897.35 433 c 1,19,-1
 967.175 829 l 2,20,21
 986.747 940 986.747 940 920.001 1018 c 128,-1,22
 853.254 1096 853.254 1096 743.254 1096 c 4,23,24
 631.254 1096 631.254 1096 538.001 1018 c 128,-1,25
 444.747 940 444.747 940 425.175 829 c 1,26,-1
 244.175 829 l 17,0,1
722.91 215 m 128,-1,28
 716.562 179 716.562 179 737.39 152.5 c 128,-1,29
 758.217 126 758.217 126 797.217 126 c 128,-1,30
 836.217 126 836.217 126 866.39 152.5 c 128,-1,31
 896.562 179 896.562 179 902.91 215 c 128,-1,32
 909.258 251 909.258 251 888.019 278 c 128,-1,33
 866.779 305 866.779 305 828.779 305 c 128,-1,34
 790.779 305 790.779 305 760.019 278 c 128,-1,27
 729.258 251 729.258 251 722.91 215 c 128,-1,28
EndSplineSet
EndChar
StartChar: uni0E28
Encoding: 3624 3624 163
Width: 1398
VWidth: 2045
Flags: MW
HStem: 0 21G<161 341 1040 1220> 453 133<640.2 733.8> 764 133<637.75 735.25> 1088 180<696 768.643 616.5 771>
VStem: 161 180<322 926.4> 776 136<626.325 723.175> 1040 180<0 823.359> 1129 178<1174.2 1338>
Fore
1029.48 757 m 1,0,1
 1039.13 721 1039.13 721 1031.02 675 c 0,2,3
 1014.97 584 1014.97 584 935.338 518 c 128,-1,4
 855.7 452 855.7 452 765.876 453 c 0,5,6
 671.876 453 671.876 453 623.338 518 c 1,7,-1
 341 0 l 1,8,-1
 161 0 l 1,9,-1
 290.424 734 l 2,10,11
 319.045 896.315 319.045 896.315 407.207 1010.66 c 128,-1,12
 495.368 1125 495.368 1125 630.476 1196.5 c 128,-1,13
 765.583 1268 765.583 1268 914.583 1268 c 4,14,15
 1069.87 1268 1069.87 1268 1161.95 1202 c 0,16,17
 1211.6 1166 1211.6 1166 1260.55 1109 c 1,18,19
 1342.71 1212 1342.71 1212 1364.93 1338 c 1,20,-1
 1542.93 1338 l 1,21,22
 1513.56 1171.48 1513.56 1171.48 1402.91 1026 c 0,23,24
 1368.7 981.021 1368.7 981.021 1341.04 953 c 1,25,26
 1370.41 853 1370.41 853 1349.42 734 c 2,27,-1
 1220 0 l 1,28,-1
 1040 0 l 1,29,-1
 1169.25 733 l 2,30,31
 1177.71 781 1177.71 781 1174.59 820 c 1,32,33
 1094.33 773.5 1094.33 773.5 1029.48 757 c 1,0,1
1115.09 976 m 1,34,35
 1037.84 1088 1037.84 1088 887.844 1088 c 4,36,37
 732.942 1088.83 732.942 1088.83 616.829 987.25 c 0,38,39
 496.521 882 496.521 882 470.424 734 c 2,40,-1
 397.777 322 l 1,41,-1
 617.596 769 l 2,42,43
 629.808 793.833 629.808 793.833 691.173 846 c 0,44,45
 749.954 895.97 749.954 895.97 844.165 897 c 0,46,47
 1014.22 898.969 1014.22 898.969 1115.09 976 c 1,34,35
714.977 674.75 m 128,-1,49
 708.408 637.5 708.408 637.5 731.368 611.75 c 128,-1,50
 754.328 586 754.328 586 790.328 586 c 128,-1,51
 826.328 586 826.328 586 857.368 611.75 c 128,-1,52
 888.408 637.5 888.408 637.5 894.977 674.75 c 128,-1,53
 901.545 712 901.545 712 880.129 738 c 128,-1,54
 858.714 764 858.714 764 821.214 764 c 128,-1,55
 783.714 764 783.714 764 752.629 738 c 128,-1,48
 721.545 712 721.545 712 714.977 674.75 c 128,-1,49
EndSplineSet
EndChar
StartChar: uni0E29
Encoding: 3625 3625 164
Width: 1505
VWidth: 2045
Flags: W
HStem: 0 178<290 381 559 1081> 384 193<723.6 899> 755 133<722.3 823.7> 814 134<289.35 381.65> 1127 133<288.05 382.95>
VStem: 110 136<987.6 1086.4> 381 178<178 597 761.221 819> 425 136<988.9 1085.1> 1081 180<178 411 808 1254>
Fore
1183.27 580 m 9,0,-1
 1302.11 1254 l 1,1,-1
 1482.11 1254 l 1,2,-1
 1403.47 808 l 1,3,-1
 1528.72 713 l 1,4,5
 1444.97 584 1444.97 584 1351.1 511 c 1,6,-1
 1261 0 l 1,7,-1
 290 0 l 1,8,-1
 321.386 178 l 1,9,-1
 412.386 178 l 1,10,-1
 525.412 819 l 1,11,12
 499.53 814 499.53 814 478.53 814 c 0,13,14
 385.53 814 385.53 814 331.168 880 c 128,-1,15
 276.806 946 276.806 946 293.027 1038 c 0,16,17
 309.073 1129 309.073 1129 387.123 1194.5 c 128,-1,18
 465.172 1260 465.172 1260 557.172 1260 c 0,19,20
 650.172 1260 650.172 1260 705.123 1194.5 c 128,-1,21
 760.073 1129 760.073 1129 743.675 1036 c 2,22,-1
 688.248 733 l 1,23,24
 712.593 786 712.593 786 774.586 837 c 128,-1,25
 836.578 888 836.578 888 929.578 888 c 0,26,27
 1021.58 888 1021.58 888 1078.59 820 c 128,-1,28
 1135.6 752 1135.6 752 1115.96 669 c 0,29,30
 1095.33 586 1095.33 586 1037.45 547 c 1,31,32
 1111.92 544 1111.92 544 1183.27 580 c 9,0,-1
1153.47 411 m 17,33,34
 1061.71 384 1061.71 384 966.71 384 c 0,35,36
 786.238 387 786.238 387 717.579 474 c 0,37,38
 670.688 537 670.688 537 664.268 597 c 1,39,-1
 590.387 178 l 1,40,-1
 1112.39 178 l 1,41,-1
 1153.47 411 l 17,33,34
800.346 665.5 m 128,-1,43
 793.91 629 793.91 629 815.325 603 c 128,-1,44
 836.74 577 836.74 577 874.74 577 c 128,-1,45
 912.74 577 912.74 577 943.325 603 c 128,-1,46
 973.91 629 973.91 629 980.346 665.5 c 128,-1,47
 986.781 702 986.781 702 965.954 728.5 c 128,-1,48
 945.127 755 945.127 755 906.127 755 c 128,-1,49
 867.127 755 867.127 755 836.954 728.5 c 128,-1,42
 806.781 702 806.781 702 800.346 665.5 c 128,-1,43
428.852 1037 m 128,-1,51
 422.15 999 422.15 999 444.654 973.5 c 128,-1,52
 467.158 948 467.158 948 502.658 948 c 128,-1,53
 538.158 948 538.158 948 569.742 974 c 128,-1,54
 601.327 1000 601.327 1000 607.852 1037 c 128,-1,55
 614.375 1074 614.375 1074 592.548 1100.5 c 128,-1,56
 570.721 1127 570.721 1127 534.221 1127 c 128,-1,57
 497.721 1127 497.721 1127 466.636 1101 c 128,-1,50
 435.552 1075 435.552 1075 428.852 1037 c 128,-1,51
EndSplineSet
EndChar
StartChar: uni0E2A
Encoding: 3626 3626 165
Width: 1385
VWidth: 2045
Flags: MW
HStem: -8 134<428.05 522.95> 305 133<429.35 521.65> 675 178<496.8 810.1> 1101 178<571.5 718 571.5 719>
VStem: 105 180<744 933.8> 250 136<168.2 261.8> 250 180<433 602.6> 566 136<166.9 263.1> 1003 180<0 466 709 816.459> 1098 178<1160.9 1300>
Fore
1144.06 817 m 1,0,1
 1104.47 791 1104.47 791 1058.3 773 c 1,2,3
 1099.89 748 1099.89 748 1128.02 709 c 1,4,-1
 1134.19 744 l 2,5,6
 1144.06 800 1144.06 800 1144.06 817 c 1,0,1
1242.61 1098 m 1,7,8
 1308.36 1193 1308.36 1193 1327.22 1300 c 1,9,-1
 1505.22 1300 l 1,10,11
 1474.3 1124.6 1474.3 1124.6 1365.86 986 c 0,12,13
 1340.04 953 1340.04 953 1316.46 927 c 1,14,15
 1331.11 840 1331.11 840 1314.19 744 c 2,16,-1
 1183 0 l 1,17,-1
 1003 0 l 1,18,-1
 1058.9 317 l 2,19,20
 1085.17 466 1085.17 466 998.506 570 c 0,21,22
 912.021 675 912.021 675 764.021 675 c 0,23,24
 650.021 675 650.021 675 590.969 626.5 c 128,-1,25
 531.917 578 531.917 578 517.458 496 c 2,26,-1
 506.35 433 l 1,27,28
 525.231 438 525.231 438 553.231 438 c 0,29,30
 645.231 438 645.231 438 700.77 373 c 128,-1,31
 756.309 308 756.309 308 740.087 216 c 0,32,33
 724.041 125 724.041 125 645.815 58.5 c 128,-1,34
 567.59 -8 567.59 -8 474.59 -8 c 0,35,36
 382.59 -8 382.59 -8 327.139 57.5 c 128,-1,37
 271.688 123 271.688 123 287.734 214 c 2,38,-1
 337.282 495 l 2,39,40
 365.847 657 365.847 657 490.127 755 c 128,-1,41
 614.407 853 614.407 853 795.407 853 c 0,42,43
 922.407 853 922.407 853 1032.81 912 c 0,44,45
 1069.25 931.5 1069.25 931.5 1103.22 954 c 1,46,47
 1087.62 979 1087.62 979 1073.62 996 c 0,48,49
 987.136 1101 987.136 1101 839.136 1101 c 4,50,51
 692.136 1101 692.136 1101 567.122 996 c 128,-1,52
 442.107 891 442.107 891 416.188 744 c 1,53,-1
 236.188 744 l 1,54,55
 261.931 890 261.931 890 355.943 1012 c 128,-1,56
 449.955 1134 449.955 1134 586.738 1206.5 c 128,-1,57
 723.522 1279 723.522 1279 870.522 1279 c 4,58,59
 1016.52 1279 1016.52 1279 1127.65 1206 c 0,60,61
 1195.89 1162 1195.89 1162 1242.61 1098 c 1,7,8
423.91 215 m 128,-1,63
 417.562 179 417.562 179 439.39 152.5 c 128,-1,64
 461.217 126 461.217 126 497.717 126 c 128,-1,65
 534.217 126 534.217 126 565.802 152 c 128,-1,66
 597.387 178 597.387 178 603.91 215 c 128,-1,67
 610.435 252 610.435 252 587.607 278.5 c 128,-1,68
 564.779 305 564.779 305 529.279 305 c 128,-1,69
 493.779 305 493.779 305 462.019 278 c 128,-1,62
 430.258 251 430.258 251 423.91 215 c 128,-1,63
EndSplineSet
EndChar
StartChar: uni0E2B
Encoding: 3627 3627 166
Width: 1507
VWidth: 2045
Flags: W
HStem: 0 21G<366 546 1120 1300> 814 134<274.2 367.8> 1127 133<272.975 368.525> 1137 133<1026.75 1124.25>
VStem: 95 136<987.6 1086.4> 366 180<316 819> 410 136<988.25 1085.75> 851 136<997.45 1097.55> 1120 180<0 725.9> 1166 134<998.675 1096.82>
Fore
1171.7 1047.5 m 132,-1,1
 1164.91 1009 1164.91 1009 1185.92 983.5 c 132,-1,2
 1206.92 958 1206.92 958 1244.42 958 c 132,-1,3
 1281.92 958 1281.92 958 1313.01 984 c 132,-1,4
 1344.09 1010 1344.09 1010 1350.75 1047.75 c 132,-1,5
 1357.4 1085.5 1357.4 1085.5 1335.44 1111.25 c 132,-1,6
 1313.48 1137 1313.48 1137 1275.98 1137 c 132,-1,7
 1238.48 1137 1238.48 1137 1208.49 1111.5 c 132,-1,0
 1178.49 1086 1178.49 1086 1171.7 1047.5 c 132,-1,1
1369.11 874 m 5,8,9
 1441.24 801 1441.24 801 1415.49 655 c 6,10,-1
 1300 0 l 1,11,-1
 1120 0 l 1,12,-1
 1238.14 670 l 6,13,14
 1245.72 713 1245.72 713 1222.86 745 c 132,-1,15
 1200.01 777 1200.01 777 1146.01 777 c 4,16,17
 1088.82 777 1088.82 777 1047.6 718 c 6,18,-1
 546 0 l 1,19,-1
 366 0 l 1,20,-1
 510.412 819 l 1,21,22
 484.53 814 484.53 814 463.53 814 c 0,23,24
 370.53 814 370.53 814 316.168 880 c 128,-1,25
 261.806 946 261.806 946 278.027 1038 c 0,26,27
 294.073 1129 294.073 1129 372.123 1194.5 c 128,-1,28
 450.172 1260 450.172 1260 542.172 1260 c 128,-1,29
 634.172 1260 634.172 1260 689.623 1194.5 c 128,-1,30
 745.073 1129 745.073 1129 728.675 1036 c 2,31,-1
 601.72 316 l 1,32,-1
 920.064 783 l 6,33,34
 979.769 870.584 979.769 870.584 1056.34 915 c 5,35,36
 1022.21 971 1022.21 971 1035.79 1048 c 4,37,38
 1051.84 1139 1051.84 1139 1129.89 1204.5 c 132,-1,39
 1207.94 1270 1207.94 1270 1299.94 1270 c 4,40,41
 1392.94 1270 1392.94 1270 1447.89 1204.5 c 4,42,43
 1501.94 1140.06 1501.94 1140.06 1484.79 1048 c 4,44,45
 1464.51 939.155 1464.51 939.155 1369.11 874 c 5,8,9
413.852 1037 m 128,-1,47
 407.15 999 407.15 999 429.654 973.5 c 128,-1,48
 452.158 948 452.158 948 488.158 948 c 128,-1,49
 524.158 948 524.158 948 555.198 973.75 c 128,-1,50
 586.239 999.5 586.239 999.5 592.852 1037 c 128,-1,51
 599.463 1074.5 599.463 1074.5 577.842 1100.75 c 128,-1,52
 556.221 1127 556.221 1127 519.471 1127 c 128,-1,53
 482.721 1127 482.721 1127 451.636 1101 c 128,-1,46
 420.552 1075 420.552 1075 413.852 1037 c 128,-1,47
EndSplineSet
EndChar
StartChar: uni0E2C
Encoding: 3628 3628 167
Width: 1654
VWidth: 2045
Flags: W
HStem: 0 21G<366 546 1200 1380> 814 134<274.2 367.8> 1118 134<1104.9 1201.1> 1127 133<272.975 368.525> 1430 134<1104.75 1202.25>
VStem: 95 136<987.6 1086.4> 366 180<430 819> 410 136<988.25 1085.75> 928 136<1293.05 1387.95> 1200 180<432 1122>
AnchorPoint: "AboveBase" 1085.1 1460.2 basechar 0
Fore
1599.7 1246 m 1,0,-1
 1380 0 l 1,1,-1
 1200 0 l 1,2,-1
 1022.35 847 l 1,3,-1
 546 0 l 1,4,-1
 366 0 l 1,5,-1
 510.412 819 l 1,6,7
 486.53 814 486.53 814 463.53 814 c 0,8,9
 370.53 814 370.53 814 316.168 880 c 128,-1,10
 261.806 946 261.806 946 278.027 1038 c 0,11,12
 294.073 1129 294.073 1129 372.123 1194.5 c 128,-1,13
 450.172 1260 450.172 1260 542.172 1260 c 0,14,15
 635.172 1260 635.172 1260 690.034 1194 c 0,16,17
 745.146 1127.69 745.146 1127.69 728.675 1036 c 2,18,-1
 619.82 430 l 5,19,-1
 1011.13 1118 l 1,20,-1
 1127.13 1118 l 1,21,-1
 1276.17 432 l 5,22,-1
 1397.84 1122 l 1,23,24
 1376.13 1118 1376.13 1118 1351.13 1118 c 0,25,26
 1259.13 1118 1259.13 1118 1203.68 1183.5 c 128,-1,27
 1148.23 1249 1148.23 1249 1164.45 1341 c 128,-1,28
 1180.68 1433 1180.68 1433 1258.23 1498.5 c 128,-1,29
 1335.78 1564 1335.78 1564 1429.78 1564 c 0,30,31
 1522.58 1564 1522.58 1564 1576.14 1498 c 0,32,33
 1594.39 1475.5 1594.39 1475.5 1600.79 1462 c 1,34,-1
 1702.95 1548 l 1,35,-1
 1806.56 1421 l 1,36,-1
 1599.7 1246 l 1,0,-1
1300.37 1340.5 m 128,-1,38
 1293.93 1304 1293.93 1304 1315.35 1278 c 128,-1,39
 1336.76 1252 1336.76 1252 1373.76 1252 c 128,-1,40
 1410.76 1252 1410.76 1252 1442.35 1278 c 128,-1,41
 1473.93 1304 1473.93 1304 1480.37 1340.5 c 128,-1,42
 1486.8 1377 1486.8 1377 1464.97 1403.5 c 128,-1,43
 1443.15 1430 1443.15 1430 1405.65 1430 c 128,-1,44
 1368.15 1430 1368.15 1430 1337.47 1403.5 c 128,-1,37
 1306.8 1377 1306.8 1377 1300.37 1340.5 c 128,-1,38
413.852 1037 m 128,-1,46
 407.15 999 407.15 999 429.654 973.5 c 128,-1,47
 452.158 948 452.158 948 488.158 948 c 128,-1,48
 524.158 948 524.158 948 555.198 973.75 c 128,-1,49
 586.239 999.5 586.239 999.5 592.852 1037 c 128,-1,50
 599.463 1074.5 599.463 1074.5 577.842 1100.75 c 128,-1,51
 556.221 1127 556.221 1127 519.471 1127 c 128,-1,52
 482.721 1127 482.721 1127 451.636 1101 c 128,-1,45
 420.552 1075 420.552 1075 413.852 1037 c 128,-1,46
EndSplineSet
EndChar
StartChar: uni0E2D
Encoding: 3629 3629 168
Width: 1364
VWidth: 2045
Flags: MW
HStem: 0 178<516 995> 454 133<512.6 611.4> 765 134<511.3 612.7> 1101 178<562 708.5 562 709.5>
VStem: 96 180<744 933.15> 337 181<178 457> 337 136<627.75 725.25> 652 134<627.75 725.25> 995 180<178 934.1>
Fore
1126.01 743 m 2,0,1
 1152.11 891 1152.11 891 1065.12 996 c 128,-1,2
 978.136 1101 978.136 1101 829.136 1101 c 4,3,4
 683.136 1101 683.136 1101 558.033 995.5 c 128,-1,5
 432.931 890 432.931 890 407.188 744 c 1,6,-1
 227.188 744 l 1,7,8
 252.843 889.5 252.843 889.5 346.398 1011.75 c 128,-1,9
 439.955 1134 439.955 1134 577.238 1206.5 c 128,-1,10
 714.522 1279 714.522 1279 860.522 1279 c 4,11,12
 1007.52 1279 1007.52 1279 1118.33 1207 c 128,-1,13
 1229.13 1135 1229.13 1135 1280.53 1012.5 c 128,-1,14
 1331.93 890 1331.93 890 1306.01 743 c 2,15,-1
 1175 0 l 1,16,-1
 337 0 l 1,17,-1
 456.55 678 l 2,18,19
 472.419 768 472.419 768 549.469 833.5 c 128,-1,20
 626.518 899 626.518 899 720.518 899 c 128,-1,21
 814.518 899 814.518 899 867.881 833 c 128,-1,22
 921.243 767 921.243 767 905.197 676 c 0,23,24
 888.975 584 888.975 584 811.514 519 c 128,-1,25
 734.053 454 734.053 454 642.053 454 c 0,26,27
 619.053 454 619.053 454 598.581 457 c 1,28,-1
 547.387 178 l 1,29,-1
 1026.39 178 l 1,30,-1
 1126.01 743 l 2,0,1
771.285 676.5 m 128,-1,32
 777.897 714 777.897 714 756.894 739.5 c 128,-1,33
 735.891 765 735.891 765 696.891 765 c 128,-1,34
 657.891 765 657.891 765 628.394 739.5 c 128,-1,35
 598.897 714 598.897 714 592.285 676.5 c 128,-1,36
 585.673 639 585.673 639 606.589 613 c 128,-1,37
 627.504 587 627.504 587 665.504 587 c 128,-1,38
 703.504 587 703.504 587 734.089 613 c 128,-1,31
 764.673 639 764.673 639 771.285 676.5 c 128,-1,32
EndSplineSet
EndChar
StartChar: uni0E2E
Encoding: 3630 3630 169
Width: 1298
VWidth: 2045
Flags: MW
HStem: 0 178<381 898> 306 133<379.2 472.8> 617 133<377.75 475.25> 800 160<279.8 700.8> 1104 175<526 538>
VStem: 114 213<948.9 1124.4> 201 180<178 309> 201 136<479.325 576.175> 517 136<479.325 576.175> 898 180<178 834.65>
Fore
951.796 1014 m 1,0,1
 870.842 1105 870.842 1105 720.665 1104 c 4,2,3
 521.136 1101 521.136 1101 507.383 1023 c 0,4,5
 497.332 966 497.332 966 680.273 960 c 0,6,7
 825.393 955 825.393 955 951.796 1014 c 1,0,1
1025.82 878 m 1,8,9
 867.885 799 867.885 799 647.062 800 c 0,10,11
 473.062 800 473.062 800 377.434 873 c 128,-1,12
 281.806 946 281.806 946 293.677 1019 c 0,13,14
 310.662 1121 310.662 1121 437.695 1197.75 c 0,15,16
 567.655 1276.27 567.655 1276.27 763.522 1279 c 4,17,18
 903.894 1280.96 903.894 1280.96 1020.65 1206 c 0,19,20
 1080.07 1167.85 1080.07 1167.85 1117.02 1123 c 1,21,22
 1194.36 1193 1194.36 1193 1232.99 1276 c 1,23,-1
 1370.53 1194 l 1,24,25
 1310.96 1083 1310.96 1083 1192.04 987 c 1,26,27
 1232.11 874 1232.11 874 1209.01 743 c 2,28,-1
 1078 0 l 1,29,-1
 201 0 l 1,30,-1
 294.101 528 l 2,31,32
 310.322 620 310.322 620 388.284 685 c 128,-1,33
 466.245 750 466.245 750 559.245 750 c 0,34,35
 651.245 750 651.245 750 706.784 685 c 128,-1,36
 762.322 620 762.322 620 746.101 528 c 128,-1,37
 729.879 436 729.879 436 651.417 371 c 128,-1,38
 572.956 306 572.956 306 480.956 306 c 0,39,40
 455.956 306 455.956 306 435.485 309 c 1,41,-1
 412.386 178 l 1,42,-1
 929.387 178 l 1,43,-1
 1029.01 743 l 2,44,45
 1041.44 813.5 1041.44 813.5 1025.82 878 c 1,8,9
610.057 527.75 m 128,-1,47
 616.625 565 616.625 565 594.709 591 c 128,-1,48
 572.794 617 572.794 617 535.294 617 c 128,-1,49
 497.794 617 497.794 617 467.209 591 c 128,-1,50
 436.625 565 436.625 565 430.057 527.75 c 128,-1,51
 423.488 490.5 423.488 490.5 445.448 464.75 c 128,-1,52
 467.407 439 467.407 439 503.407 439 c 128,-1,53
 539.407 439 539.407 439 571.448 464.75 c 128,-1,46
 603.488 490.5 603.488 490.5 610.057 527.75 c 128,-1,47
EndSplineSet
EndChar
StartChar: uni0E2F
Encoding: 3631 3631 170
Width: 1295
VWidth: 2045
Flags: W
HStem: 0 21G<919 1099> 719 221<290.3 508> 1118 134<291.6 389.1>
VStem: 116 134<982.2 1077.75> 430 136<983.5 1077.1> 919 180<0 853 1060.3 1254>
Fore
669.518 899 m 1,0,1
 691.46 893 691.46 893 717.46 893 c 0,2,3
 865.46 893 865.46 893 989.15 999 c 0,4,5
 1113.84 1105 1113.84 1105 1140.11 1254 c 1,6,-1
 1320.11 1254 l 1,7,-1
 1099 0 l 1,8,-1
 919 0 l 1,9,-1
 1069.41 853 l 1,10,11
 1016.65 809 1016.65 809 905.714 764 c 128,-1,12
 794.779 719 794.779 719 634.779 719 c 0,13,14
 437.779 719 437.779 719 356.412 819 c 0,15,16
 274.868 918 274.868 918 297.617 1030 c 0,17,18
 317.191 1124 317.191 1124 392.477 1188 c 128,-1,19
 467.762 1252 467.762 1252 560.762 1252 c 0,20,21
 654.762 1252 654.762 1252 708.477 1188 c 0,22,23
 762.839 1122 762.839 1122 747.617 1030 c 0,24,25
 735.393 955 735.393 955 669.518 899 c 1,0,1
431.44 1029 m 0,26,27
 425.093 993 425.093 993 447.332 966 c 0,28,29
 467.747 940 467.747 940 506.747 940 c 0,30,31
 544.747 940 544.747 940 574.332 966 c 0,32,33
 605.27 994 605.27 994 611.44 1029 c 0,34,35
 617.965 1066 617.965 1066 596.549 1092 c 128,-1,36
 575.134 1118 575.134 1118 538.134 1118 c 0,37,38
 500.134 1118 500.134 1118 469.549 1092 c 0,39,40
 438.053 1066.5 438.053 1066.5 431.44 1029 c 0,26,27
EndSplineSet
EndChar
StartChar: uni0E30
Encoding: 3632 3632 171
Width: 1158
VWidth: 2045
Flags: W
HStem: 45 193<272.6 448> 417 133<272.6 370.1> 665 193<271.3 448> 1036 133<272.6 368.8>
VStem: 99 133<277.6 376.4 897.9 995.4>
Fore
1126.27 994 m 5,0,1
 1003.77 804 1003.77 804 860.424 734 c 0,2,3
 716.081 664 716.081 664 565.258 665 c 0,4,5
 383.61 667 383.61 667 315.95 754 c 0,6,7
 247.291 841 247.291 841 264.924 941 c 0,8,9
 282.38 1040 282.38 1040 358.842 1105 c 0,10,11
 434.126 1169 434.126 1169 528.126 1169 c 0,12,13
 621.126 1169 621.126 1169 677.136 1101 c 0,14,15
 734.322 1034 734.322 1034 714.334 949 c 0,16,17
 693.522 865 693.522 865 634.999 828 c 1,18,19
 726.117 823 726.117 823 816.815 878 c 0,20,21
 908.337 932 908.337 932 1002.02 1089 c 1,22,-1
 1126.27 994 l 5,0,1
398.806 946 m 4,23,24
 392.281 909 392.281 909 413.873 884 c 0,25,26
 434.288 858 434.288 858 473.288 858 c 0,27,28
 511.288 858 511.288 858 541.873 884 c 128,-1,29
 572.457 910 572.457 910 578.806 946 c 128,-1,30
 585.153 982 585.153 982 564.09 1010 c 0,31,32
 540.675 1036 540.675 1036 504.675 1036 c 0,33,34
 466.675 1036 466.675 1036 436.09 1010 c 128,-1,35
 405.506 984 405.506 984 398.806 946 c 4,23,24
1017.12 375 m 1,36,37
 894.62 185 894.62 185 751.277 115 c 0,38,39
 607.582 43 607.582 43 455.935 45 c 0,40,41
 275.111 46 275.111 46 206.628 134 c 128,-1,42
 138.145 222 138.145 222 155.777 322 c 0,43,44
 173.233 421 173.233 421 249.695 486 c 0,45,46
 326.979 550 326.979 550 418.979 550 c 0,47,48
 511.979 550 511.979 550 567.989 482 c 0,49,50
 625.176 415 625.176 415 605.188 330 c 0,51,52
 584.553 247 584.553 247 525.676 208 c 1,53,54
 614.971 204 614.971 204 707.492 258 c 0,55,56
 799.19 313 799.19 313 892.874 470 c 1,57,-1
 1017.12 375 l 1,36,37
289.659 327 m 128,-1,59
 282.959 289 282.959 289 304.551 264 c 0,60,61
 325.966 238 325.966 238 363.966 238 c 0,62,63
 399.966 238 399.966 238 432.551 264 c 0,64,65
 463.135 290 463.135 290 469.659 327 c 128,-1,66
 476.183 364 476.183 364 454.768 390 c 0,67,68
 432.528 417 432.528 417 395.528 417 c 0,69,70
 357.528 417 357.528 417 326.768 390 c 0,71,58
 296.359 365 296.359 365 289.659 327 c 128,-1,59
EndSplineSet
EndChar
StartChar: uni0E31
Encoding: 3633 3633 172
Width: 0
VWidth: 2045
Flags: W
HStem: 1414 163<-463 -234.8> 1785 133<-639.4 -540.6>
VStem: -813 133<1648.2 1741.8>
AnchorPoint: "AboveMark" 3.85352 1986.39 basemark 0
AnchorPoint: "AboveBase" -35.7197 1374.68 mark 0
Fore
446.338 1743 m 1,0,1
 345.239 1612 345.239 1612 184.606 1512 c 0,2,3
 25.9736 1412 25.9736 1412 -213.674 1414 c 0,4,5
 -392.321 1416 -392.321 1416 -461.628 1505 c 0,6,7
 -531.582 1596 -531.582 1596 -515.008 1690 c 0,8,9
 -497.551 1789 -497.551 1789 -421.09 1854 c 0,10,11
 -345.805 1918 -345.805 1918 -251.805 1918 c 128,-1,12
 -157.805 1918 -157.805 1918 -101.795 1850 c 128,-1,13
 -45.7852 1782 -45.7852 1782 -65.5967 1698 c 0,14,15
 -86.4082 1614 -86.4082 1614 -143.933 1577 c 1,16,17
 -0.725586 1572.5 -0.725586 1572.5 114.234 1646 c 0,18,19
 225.577 1716 225.577 1716 321.089 1838 c 1,20,-1
 446.338 1743 l 1,0,1
-381.126 1695 m 128,-1,22
 -387.474 1659 -387.474 1659 -366.058 1633 c 128,-1,23
 -344.643 1607 -344.643 1607 -306.643 1607 c 128,-1,24
 -268.643 1607 -268.643 1607 -238.058 1633 c 128,-1,25
 -207.474 1659 -207.474 1659 -201.126 1695 c 128,-1,26
 -194.778 1731 -194.778 1731 -215.841 1759 c 0,27,28
 -237.256 1785 -237.256 1785 -275.256 1785 c 128,-1,29
 -313.256 1785 -313.256 1785 -343.841 1759 c 0,30,21
 -374.778 1731 -374.778 1731 -381.126 1695 c 128,-1,22
EndSplineSet
EndChar
